<mxfile host="app.diagrams.net" modified="2022-05-25T11:32:20.118Z" agent="5.0 (Windows)" etag="2mYuqaeF3Cup56ZPTQLC" version="18.1.1" type="github">
  <diagram id="8RLUcugFeyfd8YLwR2Qb" name="Page-1">
    <mxGraphModel dx="1718" dy="950" grid="0" gridSize="10" guides="1" tooltips="1" connect="1" arrows="1" fold="1" page="1" pageScale="1" pageWidth="827" pageHeight="1169" math="0" shadow="0">
      <root>
        <mxCell id="0" />
        <mxCell id="1" parent="0" />
        <mxCell id="fmiSZgB1ioxrz4cgV_8w-1" value="" style="rounded=0;whiteSpace=wrap;html=1;shadow=1;labelBackgroundColor=none;labelBorderColor=none;fontSize=19;fontColor=#000000;strokeColor=#FFFFFF;fillColor=#FFFFFF;" vertex="1" parent="1">
          <mxGeometry x="440" y="410" width="830" height="590" as="geometry" />
        </mxCell>
        <mxCell id="fmiSZgB1ioxrz4cgV_8w-5" value="" style="shape=image;aspect=fixed;image=data:image/svg+xml,PHN2ZyB4bWxucz0iaHR0cDovL3d3dy53My5vcmcvMjAwMC9zdmciIHZpZXdCb3g9IjAgMCA1MTIgNTEyIj48cGF0aCBkPSJNMTYgMTI4aDQxNmM4Ljg0IDAgMTYtNy4xNiAxNi0xNlY0OGMwLTguODQtNy4xNi0xNi0xNi0xNkgxNkM3LjE2IDMyIDAgMzkuMTYgMCA0OHY2NGMwIDguODQgNy4xNiAxNiAxNiAxNnptNDgwIDgwSDgwYy04Ljg0IDAtMTYgNy4xNi0xNiAxNnY2NGMwIDguODQgNy4xNiAxNiAxNiAxNmg0MTZjOC44NCAwIDE2LTcuMTYgMTYtMTZ2LTY0YzAtOC44NC03LjE2LTE2LTE2LTE2em0tNjQgMTc2SDE2Yy04Ljg0IDAtMTYgNy4xNi0xNiAxNnY2NGMwIDguODQgNy4xNiAxNiAxNiAxNmg0MTZjOC44NCAwIDE2LTcuMTYgMTYtMTZ2LTY0YzAtOC44NC03LjE2LTE2LTE2LTE2eiIvPjwvc3ZnPg==;connectable=0;movable=1;verticalLabelPosition=bottom;resizable=1;rotatable=0;cloneable=0;deletable=1;recursiveResize=0;imageBackground=none;verticalAlign=top;rounded=1;shadow=1;labelBackgroundColor=none;labelBorderColor=none;fontSize=8;fontColor=#000000;strokeColor=#FFFFFF;fillColor=#FFFFFF;" vertex="1" parent="1">
          <mxGeometry x="1074" y="424" width="16" height="16" as="geometry" />
        </mxCell>
        <mxCell id="fmiSZgB1ioxrz4cgV_8w-6" value="Meldewesen" style="text;html=1;strokeColor=none;fillColor=none;align=center;verticalAlign=middle;whiteSpace=wrap;rounded=0;shadow=1;labelBackgroundColor=none;labelBorderColor=none;fontSize=8;fontColor=#000000;" vertex="1" parent="1">
          <mxGeometry x="1090" y="427" width="50" height="10" as="geometry" />
        </mxCell>
        <mxCell id="fmiSZgB1ioxrz4cgV_8w-7" value="" style="shape=image;verticalLabelPosition=bottom;labelBackgroundColor=default;verticalAlign=top;aspect=fixed;imageAspect=0;image=data:image/png,iVBORw0KGgoAAAANSUhEUgAAAJEAAABxCAYAAADVnEGhAAAgAElEQVR4nO2951dX59q2+/4De+yxH+nWaFRQsGHXGKPpK8laK4mF3u2dImAXld47SBUQpErvIChdRcWKisaukfr70eHYH+akWdZ61qsrxMg5xvzIgDnvY1zXPZn3eV7/hxGN6B31f4b7DxjRh68RiEb0zhqBaETvrBGIRvTOGoFoRO+sEYhG9M4agWiQent7kUjbaGhu4ffGFp68bOJZfTONLa20tnfQ1d0z3H/in1IfNUTd3d08e/acG7frKL50m+CCG1jGX0M75ArfepxnmVMZKx3P8b1rMf90O4OmZyEmfoWYhhRx6OQ5XBPLCc48T/yZarLLayivuc2Ne49okrQO9639ofqoIGpoaOTOvQdU1NwmsfQWrlm32J32EM1TT1gZdJ+lfndZ4n2bRZ43WeRxnQVuNcx3ucw8p2rmOlxA3a6S2bZlzDpawkybs8w4VITagQJU9+Whui+X6dbpTDdPRHVHJNu8U2iRtg33Lf8h+mggulH3iJyrT7HKbWRtfCPfnHjB8uAnfH78IcsCf+Mz/3ss9X07ROoO5wWIjr0Bov35TNuTjbJlOlPMkpi4NZrx60Nxiy0c7tv+Q/TRQBR5rpbTtb3szm9jS2YLRsmNaCX8zqqYZ/w98jHfhz3gq6B7rAi4yzKfWpZ63WCR+1UWuL5SifogOlyM2oF8VKwzmWKawCebTzDGyB8FHTfkNByRXXMMI7sTw33bf4g+GoiSz9+j6GEvefd7ybjby+naHmJvdBFZ005wtRSfyhZcSps5WtTEntx6TDNesOX0M4zjHqEd9Rurwu7wQ8AN5jtUonawkMk745mwMYwxBr4oarshr+GE7Fp7ZNfYI7vGDtk1dhgeCxvu2/5D9NFAFFNWR8GDXrLv95JR10vqnV6SaruJv9lJzPV2oq62E36lnaBLrQRcbMXvQis+Va14lEtxLpVgd7aF3VkvWel1BeXdaYzR9UBJyxVFTRcUNJyF6qPhiOxaBxEmB4zsIob7tv8QfTQQJZ+/KwB0r5fUu70k3e4h/mY3Mdc7ibzaTlhNO8GXWgmsFgDyrmrFvaIVlzIp9iVSjp6VYJ3XwJfeV5hqnsxoHTeUtNxQ1HJBQdMZOQ1nZDWdRJCEa53TqeG+7T9EHw1EUWV1IkA9JN3uIe5WD9E3uom41ikAdFkAyH8QQM79AEk5VCRhd44AkbJFCqN1PFDSdkdR2xUFLVfkNF2Q1XJGVtMZWQ0nZNc6sdU1Zrhv+w/RRwNRYmUdKXd7SewHqIeIa92E1XQSfLm9vwJ5VbXiVtGKU5kUOxGgw0VSDhS2YJ7dwErvGqZapDBaxxMlHXcUtd1Q0HJHTssVWS1XZDVdkNVwRnaNEzvcRirRX0pxFXUk3e4h9lYPJ2/2EHGth7Cr3QRf6STwUjt+F1vxOt+KW6UUp3IpdqVSjp6TcrhYyoEzEvYWtLArs4EVfRDpeqGk64GijgcKOu7Iabsjq+0mgKThguwaZ3Z6xA33bf8h+mggii67S2ytCND1PoC6CbzUie+FdjyrWnGtlOJYLlagIQBJsMxrYWt6A1941TB1dwqj9bxR0vVCUdcTBV0P5HQ8kNV2R1bLDVkNV2TXumDmmzzct/2H6KOBKK6ijpM3e4m43kN4P0Dd+F7sxON8O64VrTiWSbEvlXJsEEB7CiTszpNglt3CptQGlvdBpO+Dkp43inpeKOh6IafriayOB7Ja7shqCCBZ+I1A9JfSydK7RA4CKOBSNz4Xu/Go6sSloh3HslbsSqQcOyvlcJGE/WckWOcLAJlmS9iR2cL65AaWe9YwdXcqo/X9UNL3QVHfBwU9b+R0vZDV8URWywNZTXdkNd3ZH5gy3Lf9h+ijgSihoo7wqz39AHlf7MajqgvXik6cytqxL2kVN9ES9hcKAFnkDgC0Nb0Fk6QGPvesYerudEYb+KFk4Iuivi8K+j7I6Xkjq+OFrLancGl5ciA4fbhv+w/RRwNRbNldgq/04F/djfeFbtyrunCt6MKprBP7knaOnm3tB8iqrwLlSNiR1cKWjBY2pjVjkNjAMo8aplqmM9rQHyVDfxQN/FDQ90VOzwdZHW/xEmA6HJY93Lf9h+ijgSix/C7+l3rwutiN+/kuXCu7cCrvwr60k6Pn2jl8tpV9RRKsCiVY5EswzZWwPbuFLZktbEhvwSStGe3EBj7rg8goECXDABQN/VDQ90NOzw9ZXV9kdUWYdD05HJ4z3Lf9h+ijgSi+4i7e1T14nO/CtaoLp4ou7Mq6OFrSyaGz7ewrasXqjASLAgmmeRK257SwOauFDRktGKe1oJ/SjEZCPUs9aphqmcFo4yCUjAJRNPRHQd9fgKjv0vVGVs8Lu8iRSvSXUmLFXTwvduNa1YWjCNCRkk4Onu1kX1E7VoWtWBRI2DUIoPUZLRiJAOmcbmJNXB9EmQJExoEoGgaiYBCInH4AsvoByOr7Iavvg6yeD84xecN923+IPhqIkqvqcDvfjWNFF7blXdiUdnLwXCf7ijuxOtOORUEru/IkbOsDKLMFo3QRoORmNJOa+DW2nsXuYiUyCULJOAhFw+MoGBxHzuA4sgYByBr4IWvgi6yeL25xZ4b7tv8QfTQQpVTdxbGqWwCopJMD5zrZW9yJVWEn5gXt7MxrZVuOhE1ZLazLEAFKFQDSSGxmdUIT/4ipZ5H7VaZaZTLaJBgl42AUDYNRMAxGzjAIWcNAZA38BZBGIPrrKfX8XWwrurEpHQDI8kwn5gWd7MxrZ1tOK5uyJAJAaUMBWhXfzD9jm/jbyZcsdLvKVKssRq8LRck4BEWjEBSMQpAzehUiPzziRyD6Symp4i42ZV0DABV2Yp7fyc7cDrbmtLMxq5V1GZL+PZD2KwD9ENPEN5EvWdAPURhKxmEoGoW+ApHY0vT9CEkrGe7b/kP00UAUW3oH88JO9gwCaEduB1uyO9iY2c769NYBgE43szaxmV/jm/mHCND3J5v45sRLFrj+byASjskWX7yOpLWNjs6u4b79/6o+GoiKr9TxhWcNaxMk6JyWopfSin6qFMPUVoxSWzFMkaCX3PIaQD/GNPG3k018G9nEl2EvWeDydojkjI4jq++LjJY7CtruzNnsw/LdYfzzcDTr3ZI4GJpNQEopKWcvU1Fzm7pHz5C2dQz3o3ln/aUh6urq5sXLBs5fu4NFQCaTtp9C2SqT6fsLmHmkhDn2lSxwvcwSz+t87lvLysA6vg7+jW9CH/NN+DO+PfGC70685JvwBr4Mb2R58O/Mc64RNtZ9EBmHomAUhJyeL/LaHow18OHTjUFM3RKG8rYIlLdHobwjGpVdp1DZFYuKaRwqpnHMME9gtvkp5plH8eX+U+i4JLM7OBf3hHPEFl7iXE0ddx+/4HlDMz09vcP9KP+l/pIQPX3+gsqrtwnKv8HmmBv8EFTLIvdrzHWqZrZtGTMOFzFtXy7KVpl8ap7MJNNEPtkZxyc745lklsxUq0ym7S9A9cAZZhwuYfaxSuY6XGKuUw0zbM4xYXsco9eHoWgYiLyuN6P1PPjEyIfJGwKZsjGIKZtDmLol/HWITONQMYtHxTyRaRanhWt3CtMs01CxTEfFKgMV60yUd6cx1SwJ5R2nWGgVi6l/+p+6Yv0lIOru7ub57/VUXb9LUP5Vdqfc4+eIByz1Gewhu8p8lyvMc65mruNF1O2rmGNXIViAjpwTfGQHzzBtTw5TLFKYtDOeiTvimLAthvFbTjJuUyTjNkcJFcgkmAmbTjBlWxTTTWOYvku8TE8x3SwWVfME1CyTUbNKRc06FTXrNNSs01Hbk4Ha3qz+S3VvFqp7spi+J4vpe7KZtiebadZZqFhnoWyVyRTzFCZtj2X8+hCyK64N92N+qz5oiF7WN3Dx2h1SKu9im/sQvfinfBX8kKV+dSz1vcMS71oW/ycQHSpC7UAhqvvzmL43BxXrLFSsMphqkcrEbTHI6Xgir+vDZ963+Daqka9OvGRl2AtWhDxjefBjPj/+gGX+9/nMr46lPrdZ7HWLRR43WOh+lQWuV5jnfEn43Q5VzLEtZ/axUuF3Hy5G7eAZVA/ko7ovFxWrDCbvSmD8+lAUdTyRW21HctHF4X7cb9UHB1FnVxfXbt8ns+oOnsVP2ZbZwjcnnrM8SFzEgN+ERfyPICp5DaJpe3NQtkxn8q4EJmwIR0nPGzltD6aZxWNd1MXe4i525bWxPqMF7aQGfol5wQ8RT/g65AFfBN5jmd8dlniLELldZX4/RBeE3/0GiKbvzWGKaRLjN4SiqOuJ3FoHZFbZIvOLDVkll4b70b9VHxxEl2/dI/t2GzbnOvkhuoGVYc9ZEfL0PUF0BtX9BahYZfDpznjGrQ9BUddDXMxjjFrtwKStkfziX41fdSfHr4DPpV7czndjX9bBobNSrAtb2JndyIaUenTjXrAq6jE/hN7nq4DbLPO6ziLXK8x36nPTChCpHShgqkUKEzadQEnPCzkNJ8G/tsYemdV2yPx6lMLz14f70b9VHxxESRV3KXzQS+iVHo6ca2dXjgSTlAY0Yl/w98gnfBv6kBXH77PM/y5LfGpZ7PXvIZp55BxqBwsFeHbEMs7kOAo6buJCCm5WmVV2AkRbIphzMJcVrhUcKmzCu7oXj/M94tGSDuzL2sWjJW3sP9OKVUErZrlStmdJ2JjahFFiA9qnnvPLiYd84X2NmYeLmLQ1mtH63shriSZI0bcmu8YBmTUOjPrFhtLLt4b70b9VHx5ElYKTNed+L5l1vaTc7iX+Zg8RNZ0EXGjFpayZg4UNmGb9zrrTT9GKecTP4ff4LvA2K3xusNS9hoUul5jneB51uwpmHi5GxTKdT7fFMM44EEVtd+Q1nJBb6zDIzWqPzGp7Rq12ZOLmcGbvz2auTSGLHMrZfPoJLhU9OJV3YVfawdFz7RwqFgCyLmjFIq8V01wpO7KlbM2UsildwrrUFgyTm/gx9D4zDxYy1tAPBS0X5DWdkdMc6l2TWeOIzK9HOH/93nA/+rfqA4ToLnm/9ZJ1r5f0uwJEibd6iLvRTfS1TiJr2gm70krwpVb8L0jxrJTgVCrB5kwzVjn1bEt9gVH8E1ZH3GO5x2WmWWcxfl0wo3U8UNR0RUHTWYBIw2nAFr3GEZnVDoxa48jETeHM3peJ+uEC5h07y3yHSn4Nr8PmbAdHSjo4dLZNPJvUikVBK6Z5UnbkSNmaJWVjpoR16S0Ypragk9zE96H3mXGwgDEGvihouyKv5YqclovoXRP8azJrHBn1z8PU3Hkw3I/+rfrgIDpdKdih0+/2kiwCFHujh5PXuom42kHYFdEOfbEVv/N9blYpzuVSHEQnh02xBLOsen4IvIWKZTpj9LxFS7QrCpouyGu6iBXBaUhFGLXGiU82hjFrTzpzDuYy90gx8+3LWeB8ga/8b7Erp4m9xSJAhSJAuVK2ZgsAmaRLMEhrQTelGa2kJr4Lvo/agXwRInfktd2Q6/OuabqKEDkh88tRbv32dLgf/Vv1AUJ0h4x7AkAJtT2cutnDyes9RFztJuxKx2tuVvcKqWCHLpVie07KkWLBEm2e3cAPx2+hYiVCNMgS/VpFWOs8ANGGUGZapzL7QA7qNmeYZ1vKAsfzLHK9zDKfW+gn/c7uwlZM86Vsz5WyZQhAEnRThE8rGglNfBN0D7X9+Ywx9ENBxwP5PhOklnu/CVJmjTMyP9vw29Pfh/vRv1UfHESpVYIdOl4EKOp6DxFXewi70k3w5Q4Cq9vx7bdDC27WIQCdkbCvUMKuzAb+dvwWKlYZjNH3ES3R7oMqwlBbtMwaJ0atdWbChmBmWiUze1+W2NLOMd+hkoUu1SzyuMYS71r+GfWELdktbMmWsiFTgnG6BIPUvm9zLWgkNvNrfCNfBtWhuj+f0Yb+KOh6IK/rgZy2pwiR4F2TWeuCwho7Hj6vH+5H/1Z9cBBlXrhL/O0eTt0SK9C1HsJqegi+3E1gdUe/m9XtTRVIBMg6X8L2jAa+D7zFNOsMxhj4oqTriaKO56CK4CYspOZARRi11pkJ64OYsTuJWXszmHMwj7lH+1raRRa517DY6yZLfe/wZdB9DFIaMc4YBFBSC2sTWlgV38Q/TjXyRWAdqvvyGG0YgIKeF/K6XsjpeCGrLZogNd2Q0XBlnJYDj1+MQPTelH/pHtE3uoUKNAiggOpufC504FnVjmuFFCcx0UPYA0k5eEbCvgIJVnmCn2xzWiPfBd5imnUmYwz9BizROp5iRRhYyL6KMErDhfHrjqNmkcBM67TXWtpC1yss9rzOEp/bLPG5zVLvWn6JfoZeSgtaIkC/xjXzj1NN/BDdyDL/OqbvzWO0UQAK+t7I63kPgkgwQcpouvOJvivPXjYN96N/qz44iIpqfiPiaqfQwmp6COoHqBuPqg5cK9r7I2HeBJB5joRdWS1sTGnk24Bapu3JZIxhAEp6PijqCpZoeV1P5Aa7WTVckdFwZZSGK+NNAlE1j2OmVQqz92ehfriQuf0t7RKLPK6x2LuWJX2fPTxv8HXQfVbHN4kANfNDdBPfRjXwmd9dpu/NZbRxIAr6vsjr+SCn642stheyWoIJUkbLg6lGbryoH4Hovank+kNCqtsJvSIA1GdG9KjqxrWiA+eydgGgs1JsigSA9r4C0PbMFtafbhAhymaMUeAQS7S8rrcAkbbnkIogQBSAqukpZlieFlraoXzmHi1mXl9LcxNa2pJB384WuF3lM++b/BD1kh9imvjuZCPfRDSw1OeOCNFxFAz8kNfzRU53kAlS2wsZbU+mr/fi98aW4X70b9UHB1FV7RP8qyQcHwxQZTeuFd04lXVgX9IuAFQs6QfIMl+Cea6EXdktbBcdrcanG/gmoJZpe3MYY3xcsEQb+IoVwRs5cRH7bNEyWh6M0nRlvLE/03dFo2aRyMw9acw+mIv6kSLm2ZYy3/E8C10vs8jzuvDJZRBE810us8D1CiuDH/NNRCMrwxtY7H2HaXtyGG0chIKBP/L6fsjp+iKr49NvgpTR8WLWJm8amiXD/ejfqg8Oost1z/Eqb8avWvTTn+/GtbIb5/Iu7Ms6OFbSjs1ZKQeKJew5I8GyQIJ5voRduS1DHK0Gpxv4KqCW6XtzGGMSNMQSLa/nI0A0pCJ4MErLjXHGfkzbEYWaeTwzrVKZvT9bbGklAy3N/RqLvW4NgUj4ii98clnsfZsvQl6yyHMwRAHIDzFBCm5aGV1v5m4L+FMHrH9wEN169DuupQ14V3fjcaEb16punCq7sC/v4lhpBzbn2tlfLGVPkQTLwqEAbc4ccLRqJzXypf9tpu/NZey6ENES7Y+Cvh/yen5iW+mrCF7I6HgKEBn6Mm17BKpmscywTGbWvkyxpZ1lnn0FC5wvstCthkWeN98CkfAVf57TJea73UBlTw5KxsEoGAQirx8gmiD9BYj0fJHR82HRjgAkre3D/ejfqg8Ooron9TiX1ONxsRvX84MB6uLwuQ72n21nT5H0jQCtFwEySGlGK7FhAKL1oUMs0fJ93vp+f703MrpejNJyZ6yhDyrbwpm+Kwa13UnM3JPO7ANiS7MrG2hpHjeGQuRyeQhEwlGQMlSss1EyDkHBMBB5g0DkDPpsR4L1SEbPl8/MgpG2jUD03nT/6Uuczr0cAtDRsi4OlXSx/2wHe4rasSyUYp4vYWduC9uyW9iUOWCJNkhpRvd0M2vjG1jhf5vp+/IYuz5swBKtL7YVff9BFcEHGT0fRml5MNbAC+UtYUzfGY2aeQIzrVOZtT+bOYcLmWsrtLQFLpdY6H6NRZ7/BqKjpShbZaFkEoKCYRDyhkHIGR5H1jBgEER+rNwd/Kd2jHxwED183oBD0e8DAJX2AdTFnqIOLAvbMSuQsjOvha05Lf2O1r4KpJvcjFZiM6viGljud5vp+/IZuyEMJePjoiW6ryIMLKSsvi8yer6M0vJkrL4nyptDmLYjClWzOGZYJTNrXxZzDuWjLra0+YNa2gBEV94CUSZKJoJjRN4oeBBEwu+X0fND82gkvb1/3sP6HxxET+ubsSt8hl1FF0fKBgPUye7CDswK2oWPnjktbBwMUKoAkGZiM2sSmvnnqQY+97vD9P35jN0QLlqigwZVhAEPWV9bGaXlwRg9T6ZuDEJlWwTTTU+htvs0M/dmMPtgnviWJrS0Ba5XWORx4617oqGVKPwViAZ+t4yWB05hydT+9oQXDc1/Spg+OIjqm6Ucy3/SD9C+s11YF3Wyu7ATs/wOduS1syVHysasQXsg0RKtmdjM6oRmfolr5sfoBpb69kEUIVqig1EwCkbeSITI8BWItD0YrePGlA2BqGwNF1qa+Ko/a38Oc2zOMPdYCfMcKlngLLS0hf8WosxXIBqwY8toujHWyB/VnRGom0Wx0Cycr63DMXGOwzYim5PZZVRdu8uzl41IpG10D9M8tg8OopbWdo7kPuLgawCJjtacdjZmSfsBGhLKEN/Mz7HN/HSqie9Oiv/s21/A2I2RKBmHih6ykLdA5Mf/aLohu8aR8XrufLo+EOVtEUw3j2eGVYrQ0g4XDLQ0p4sscKthYf+pyjfviaZaDoYoBDmjYEZpe6Ko64nKrlimmycwzSyOabtiUd4Zg/KOaKZuj2LKtkgmbwlnkok/yuu8WWYayJrDJ7DwScIvsZCs0ktcv/vgDxmX9cFB1NbRxfaEu1gXd2J1RgDINL+T7bmdgiU6q531GdL+YCqd0wOe+p9jm/gppokfopv4LqKBpd53UD1QyNiNUSiZhL0C0UBbkdH3RUbbA0U9b2EgjK4n8louyGu7oqjnyTiTQD7dGoWKRTIz9uUw58hZ5jpUscDlcj9Eb6tEUy0zUDIJQ8EoFDn9QGQ0XZm8JQLV3adRtUgSIYp/HaKtkUzeeoLJm8P4dFMokzYEM2lDEJ+sC2SCsR8TjX2YbOSBqpELK3Z6sd4hkqiMc0ha3z9UHxxEPT296PieZVW8BO3TbRiktmKU3sa6jHbWZ7SzLr0NozQp+n3ndgaFMvwU08SPJ5v4W1QTX59oYKnX2yAS9yYGgcjoeKGk782nm0JQ3hYpmhFPorwjminbopi0+QQT1gczdtCnE0VDf8ZvimSKRRrTDxYx40gps20rUXc4L4y8EiGadbSUyeapKBmHMUrDnbFG/qhZnmaGVQqqlq9AZBqLSj9EJwdBFN4P0cT1QUxcF8gEkwAmGPkx3tCHcQbejNP3ZKyeB6O1nDF1j37va/LBQXTvaT0WgYJTdMaRc8x1rmaJ9y1WBN7n29DH/BD5nH+c/J2fY37n51P1/PNUA38/1cjfowWAvo9s4puIJlaGNbDY864A0aY3QKTvh5K+N5M2BAlu1q0nhkK0M1qoDLtOobwrFuVdcSibxqNsGs/UXXFM3BLFuHXBjDYKQNEgACXDQEavC2Xcpigm7khgyu50PjVLRsEwEDktd6aZxjNzTwYz96QxwyoFNctkASKLxEEQnXoFooh+iD7dfIIp2yL5dMsJJm0KZ+LGUCZuCGa8sR/j9L0Yo+uOwhp7Fmx0ee9r8kFA1NvbS8WN3/BIq8Yw/AorPC6ibluO6oF8plqmM2lXAp/siGWSaRJTrDNRPVTEbLsKFrjWsMS7luUB91h5/CFfBj1lZcgLvgh5yfLglyz0vD0EIiWTMBQMA1HU82aiSQBTN4cwdXMoylvCUd72OkQqO2NQ3hWLyq5YlE1FiMwSxCsRZbNEwQ5tdpoppglM2n6KCZsiUDI6zv/7zyP8Pz8dZPyGUOYePYv6kSLmHMpn1v5sZu7NQM0qFdXdpwdBFNcPkfL2k0zZFskUEaKpO2KYcbBA8M0dLBQmQe7NYZp1FlMtUhln4IPCKltkf7Vl2WbX974+f2qIGltayb14h0PxFzGKvsPKgDss9LgumAFdrjBfdJTOdTiPun2l4LHfk81ksyQ+2R7L+C3RjN9ykgnb45hsnorKnlzUDp9llm0V6k5XmG1/nskWqYzdGIGSSTBK+j5MMPZlyobjTN0UJEC0JQzlrX2++kiUtwutTHlnDCo7xZCGQVXoTRD1XVPEa7JpEuM2nkBO051lvndY7HaZhc4XWOB4nvkOlcy1LUX9SDGzD+Uzc38OansyULVMYbp5EiqmcSjvjBGq0bZIplumvNF8OX1vDspWGXy6Iw4lPS9kV9ki8+sxvjP1eO/r9KeDqLcXfm9sIan0Oo6ZNzCM/Y0vj99jsWhEfBNEg+ezzj5aysw+V+mBQqbvzWHq7jQ+3ZnAhC3RjN0Qzpj1oYzdGMG4zVGM2RDGmHUhTNocjsq2COGfiKaxqJrFoWoeL1wWiahaJKFmmSJUiCFXGqrW6ahapwuDhK3TmW6VxjSr9IGgBss0ppqfZop5MlPMTjNxSzRK+j58svUkCx0rUbc5I3x7sysT3uwcz7PA6QLzHM8z166COUdLmH24iJkH8lHbm42qdTrTdicz40B+/wZ9ps1ZZhzuq0R5qFhl8MnWaJT0fZFdK5ogV9nys5Xfe1+zPw1Evb293H3wlMyqWo5l3sUk6RnLA3/r99X/RxDZnO23JqsdKGD6vqHe+ikWKYzfeAJ5PR/Gb45iRdhzvops5MuIelaGv+CL0Gd8EfyEz4MeCo7aQUOG+/6Ggdf2Pmt0JXNsK5h9dMAaPePgGVQPFIj++kymmJ1m3LoQ5DWdkVl1jNF6Xsw5mIe6jXiwzb6cBY7nWeBSzULXKyxyvzpgw3a+xFyH88yxLWP2kbPMtilisfNF5jtUMce2bJAduxDl3alM2HQCBR2PQU5aB2RW2aFzKOi9r92wQ9Te3sGNuw84XVaLc9ELdBJ+Z0XwY5YFPmBZgDBm/H1ANG1vjjD01zyZSVujGWssHP9Qtyvn1wQp/4xt5ruoer4Kf/GKLVsIaFjiI/wNizxvCBC5vjLu3L5ySFUYCGkoYJp1FpN2nELJwFdY1NW2yKyyRVHHg9n7s4VTAH1nkhwqWeB0QfiI63510FTg4KUAABeaSURBVGmAvvsWfudyzxpM4h+jc/I+v4TU8rX3FebalqJimcG49cHIa7sJdqc+R+0aR2RW27PB/v0PNx5WiG7duU9y1T3szjajkdDAitBnfBHyhOVBj/i8H6L3U4kEf30C4zeEoaTrJQ78tWexfQkOFT24X+jFpqQL84I2TNKaWRP3Oz9GPuWrkIcsD7jX/zf8ZxAVomKZxviN4cKiilVBdrU9MqvsUdTxEI6SHMgVqpHY0uY7VrHAuZqFbldY5HGdRV6vB0Os9LnO1tQXbE5+xoakpxjFPeIL92om74pHQdtdmASp6SwM8Fvr1G/ANPN4/4P8hg2iuw8ek32zkR05bXwltpE3Q/RulWj6vlymmifzyeZIlAx8BGfraltkVh1DZpUt06zS0Iisw6e6G99L4HUR3M/34FTeyZFzbVgVtLA1oxGDxN9ZdfIJ34fcZ4X/bZZ6XmfhkKSPoRCpHchn8q54xhj5I6/pLFQEDdGavcYBmdX2KOl4CKcj94sfcI8UCZ9N7CuY73RBOA3gdrX/G9xC92v9ETVf+l5nS+oLNp5+hnHCE/ROPeIL90tM2nFKgEjLFdkh3jnBgHkgIPG9r+WwQZRWdYeC33rxrOrCIq8Vo5Qmfj31ku8inrEieGgr+Y8hOiIkfEyzEiL2xhgHIK/lMmTcuMxqW2RW2aGyO4VFzhf4Z1gdrpXdeJzvxa2yB+eKbhzKOrAtFQMaitvYWyDFPFfClvQmDBPrWXvyKT+G3OdL31ssdbuCul0Fs4+WMH1PFhO3RKKk6/lGN21fVRit7y18MtmbwewDOcw5XDBQjRwqWeB0kYWuV4RjJYMgmu98iW/8b7Ip5TkmCU/Ri32CZtRjlrlVM2l7rGB7esXyJBgwnbEPT3vvazl8EJ2/Q/Ej+sMZUu/0EnO9m4CL7didbcE8ux7DxGf8EvWIb4LvsdzvDku9B+8NXoeob4Opui+XKbsSGbcuGEUddzFp4/WABpnV9qiYJ7HAoYLFrpf5PriOo+c6cK7oxaGsG9tXAhr2FLZimd+KeV4rpjlSdmRJ2ZouZUNKM7pxL1nmeZXpe3MYbxKEko77UDetVl9rcRYgWuOAorYbM3YnCY7afVniJvsMc4+dY559ufCW5lLNQrcaFrpfFyES2ujXfjdZl/gc/dinaEU/YU3UY5a4VjNpexwKup7ID54E2eedW+uC16n3P7Rm2CBKP3+Xgge95N7vJatuwFufdKuHuBtdnLzWTujlNnwvSHEqbWZ/fgPbUp+jE/OIv4fWsdL3Jkvca1jgXC28tdhVMuNQEcoWqXyyMZwxet7CzHrNvnCG1wMaZFbbM9U0gfm2JSx0vsASj2t8E3yf/UUd2JV1c7S0g0Pn2thf3Ir1mVYsC1sxzxc99tlCSMPmDCkb0lowTmlhpe9NYdy5ridK/8JN29daFLXdUDNPEI7Z9lWjQwWoHylmrm0p8+wrxbZ2mYVuV1noPrAX+8rvJgbxz9E+9ZS1J5/wc+RjFrtcFCpRv+3pFe+chivBpwvf+1oOG0R51XXk3B9I9xgaztAlhjO0DYQziKPG3Sqk2JdIOFDYjFlWPeuTnvF9wC1mHTnHp9tPMdbAFyVtd5S0XFHom1nfF9cyJKDBAZnVDkzZGcvcI0X91Wip9y2+DH6AaV4rh0o62He2DeuiVizPtGJRIB0S0rA5S8L6DIn4sbeFL3xvMMX8tACRjgcK2h7Ia7/uphVaixMKmi6omsaitjtROCG5L1M4l2RzBvWj55hrV848hyrmO1ezQGxrC9wEiFb63kQn7jlrY57yy8nH/BTxiIVOFwSI9HxEN22f7WnATRubW/be13LYICq8fJ+Mu92kiQAl9AF0vYeIq11COMOltv50j35v/WBrtDiv3iDuCbMOFzPOKKB/Xr2SthsKWuLMei1XcWa9S39LkRGr0ZQdMagfymeeWI0We1zjM9+7rAh+xMbMZqyL2wYAyh8AaFM/QBL0U1vQTm5muY8IkZ4XSrpegptWxwM5HXehtWgODBkWIHIW7Efm8cywTBbOa4uv/OpHiphrK26yHS8w3/mScBpAbOUrfG+iEfuMX6Of8I/Ix/wt7CHzHS8wcXsciq/anrQER62MhivpZ99/9uOwQXTu2gNO13YOSfcYCGfoEsMZ2v5lOMPBIsHZapTwlFk2Zxlr6CfOq/fobycKQ9qJ66DcHydk1jgxeVuUEFp1pIgF9hUscr3MEu9bLAu4z/LjD9FPrseicBBAOVJxBogEo3QJ+qkSdJNb0E5qGgSRD0q63sLepM9Nqz14yLALo9YKOUh9/yFXs0hkRl81OpDLnMOFqB89y1zbMqEaOV0UvGsiRCv9brEq5in/iHrCDyce83XIQ+Y6nGfi9lgUDfyQ1/cZMEJqewm2p7UuFFa9/xTaYYOo6tYj4m+0EV/bQ8xggGp6CL7URcDFDnwvtAmjxl+pQIOt0db5EgwTnjHnaAljjQLEefUD7URBxx05HTdxZr1b/yuvzBoBpE+3RDBrT/pr1Wip7x2WBT7g84D7rI19LsTE5EjZ+CaATregkdjE5z43mGKezGh9X5T0vAfctLqD/fVuyGq4MUrDFfm1jqhsO8H0ndGomsczw/I0M/ekM2t/NrMP5TPHpgj1YyXMtatgnuN55jtXM9/1CvNdr/CF3y1+PvmEH0885tvQR3wR+IA59lVCJTLwR17fFzk90QipIxohNZyovHrnva/lsEFUfecxJ69KBwAaEs7Qhc+FDjyq2oaEM7wKkFWe4Gw1iH+O+rEyxhkHihB5oaQjtJOBmfV9m0xXMaDBGZm1zkzaFMYMy+T+ajTfQaxGXjf5zP9ef6TwP04+YUOWBJNMAaChUTFC0scy7xtMMRMhEgcMy/dNqhaHCwutRbBkK2g6o7wljGk7ooTz2haJ4it/JrMO5AjVSNxkz7WvZJ7jBeY7X2a+6xU+87rOTxGP+Tb0MSuCHrLM7zdm24kQDZ4Gqes7YITUcORa3aP3vpbDBtHlu085cUVK1PUeTrwWztAlhjO0DaR7iN76A33W6EHeeoP4F8y1K2ecSRCj9bxR0u1rJ14ovNpOxEogo+GCjIYrEzcEo2aRwKy96cx5QzX6zP+emEt9h29DH2CY1jIkKkYjsUU8dtvIUm+xEhn4oWTgh4LBKyEN2gMwjdJ0Q36tA1M3BQ9UI7M41CxPC2e292Ux+2A+c17ZZM8T29p8l0ss8bzGyqCHLA98yBLf35hlWyW0M8MAFPQDBmxP+n7I6vkwaq0Ddx8+fe+H/YcNohv3nxJWLRH3QK+EM1R24VregVNZ22sA7ckfCtD2zBb0418wz76C8etDxFbi099OFPS8BiqBdt/MejdkxOuT9ceFgAarZGbvzxGrUWV/NVrqVzfk29mXx++hc7oJrdMtrE1sYVV8Cz/HNfNTTCNLvG4yxTyF0YYBKBn6CyEN+q+ENIiTqkdpuiK/xp6pG44L1Wj70Go0c28Gsw7kMPtQAXOOFKN+rLS/rc1zrma+8yXmOVWz0LWGpf4PWOBzj5nHKsRKNNj6FCiAZOCHvJYTN+7co62t7b2CNGwQ1T54TvD5FkKv9HD8Ujd+F7vxPi+GM5R3ieEMbf3hDAfOSNjzlnAGvYSXzHesYvzGcEbr+6Gk74uSgdBOFPoqQd/M+r43FS0x+8fEX/DWWyT0p3zMsy1lgdMFFrlfY6nP7dc+wC7zreXXuEbx2G0zP51q5vvoRhZ73mSyWUr/pGoBIj9hb6I7ENIgq+PJKG035FfbMWW9f381mtZXjXafZoZ1GjP3ZTHrYB6zD59hztFzqNuWMde+inmOF5gnQjTX4TxznaqZ73WHmUfLmbg9HkWjoDeaIacYuXL56nXq6+tpb29/byANG0S/PX1JQHnDAEB98TCV3eKo8Q6OlbT9r8IZdBJessDpAhM2RTLawB+lQe1EgGjoW0pfyoeMtjvjjfxQ2RouVqMUZh/IEQM9K1joellMPrv72lf8pV43+fHkS3461czfxLyhxZ43mWyewmij4ygZBbwhpEGcVK3rxf9ouSO36hiTTXyYuiFQrEaRTN91ClWLhIFqtD9bqEY2xagfK0HdrlwE52I/ROr2lcyxr2KmzTk+2R43yPo02Azph+Zeb2quXuXp06dIpVJ6et6PxWjYIHpW34RXyQt8L3XjdXFQOENFF/ZlXRwt7eDwubZ/Hc6QLtiCNONfstD5IhM2RzHa0B8l8VIQUz4G3lIGWoqMticyOh6MN/Bm6qZgsRolMnNvBnMOFwyqRlfF5LPXv+IvdKvh6/DnfBfVxDcRDSz2ECEyPo6SUeAbQhqEvYmsng//o+WB3K9H+dTIi8l91WjrCabtPMl0szjUdicxwzqVmfsymXUgl9mHC5lz5Czqx0pRt69grsMF5joNdY/MtDnLJ9vjURp8VtzoOLIGfny20Z7TaRlcFSFqbW398CtRQ7MUt+InA+keorfers8afa6D/cVt7DkjHVKBtvWFM6QPeOs14utZ5HKJT7ZGC62kv50IKR/9bym6vgO5P7peyOh4MU7PgynrA8RqFNtfjdSPFDPPXoiKWex1QwitesNRkPkul1lx/DFfhzew0F2EyCQIJaOgofuSwZOq9X35Hy0P/r+f9jHJwJ3JJj5MEfdGKn3VSJxUNGNPOjP3ZzPrYD6zbYr625q6fRVzHS8MgqhCrETxKBkLFiR5o2DkDQJYvs6G0BNRFBcXc/v2berr6+ns7HxvazlsELW2d+JS+HBIuscAQH3hDG3sfkM4w7r0oeEMq+PqWeR6mYnbY/urQF87UXi1negJexMZPW9kdLwZo+vGp8Y+YjU6KVajTOGL+qBqtNi79u3niRwvstT3PgvcBIiUTIJRMgpGwfD4wL5kiLffD6VfDzHvRwMm/m0TY9ce4xN9dyavD0B5a3h/NVLdncQMq1Rm7hWr0aFCZtsUM+dYCep2Fag7VA1AZFfBTJuzTNgWN+Bc0ffnK5P9BAYFkZ2dTU1NDc+fP3+v+yEYRoi6e3pxyqvD9Xw3jiJAR/oB6sK6qIPdhW2Y5Q+EM/R56/sA0jktWKN/iW1gkdsVJu2IZ7RxMErGx1EyEt5QFAz62onYUvR9kdX3QUbPFxkdH8ZouzDJwEOwRm87IeQOWaUOqkYVLHC5xCLPG//+UJr9BRGiEAGivn2J0eCQBj/GaTugvckMS0tLdpnvZvU6U5brmKG6ejeT1h5ivK4Lk9YFMnV7FNPNE1CzSmPmPrEaHT7DnCNnmXOsDHU7wcum7nB+AKLtIkT6fvx94378/APIzMzk8uXLPH/+nI6O9z98b1hPNjpm38Wxsgvb1wASwxny29iRK3kNoMHO1tXxzfwjpoFF7leZtCtJnFcvthPxVXegnQxUAhk9X2R0fVHSdGKinguTTXyZujmEaTtPotYXMSxWo/lOF1jofrU/yPNtEM0+Vsan5ikomYS+vi8R/fXTtA+y2dQaOzs73N3d8fPzIzAwkMDAQPz8/bFzcmPH3qOs2ryPJfr7UNY+wgQDTyZtjmCqaSKqe7KYeaiQ2UdKmGNbjrp9Fer24imGw8WM33qKMfo+rN66n+DgEHJzc7lx4wb19fV0df134mmGFSLX3DsCQGVdb/DWd7Ajt01MpB8K0KvO1h+iG1jkfo1PzZIZvS4YJeO+diK86vaHJLwS0CCj4438z/sZu/booGoUIUbGpDLrQO7QauRx499DZJYieNiMwwZBFISivg9fGO3h4GEbPD09CQsLIzY2lpSUFDIzM8nNzSUvL4/CwkIKCwvJy8sjNS2NyKiTOLl7s9n6KH/fasNCYzummXgyeXMEU8ySmL4vn5k255hhc47JFmlMMPJmg9UxYk6dory8nAcPHrzXTfSbNKwQeeXfwWYwQEO89R1szm4Thqr8C4B+jGni+6gGFrlfZ7J5KqPXhaJkPNBOFMRFHAqRPzJ6PkxdbYWGwTpm/LQehR/MGa1hzyfGfkzdFoGqRSIz92UOrUZuV/8vIAphnJ4bmtv24eTkTEhICPHx8WRlZVFcXExlZSXV1dVcvXqVGzduUFtby507d6irq+u/bt++TU1NDSUlJaSlp3M8NJxDjh4Y7rbj603HmGniyuR1AagZOmJ5zJ3snBxu3rxJY2Mj3d3d//V1HFaIfPLucKikux8giwIBoG25nWzO7mBjZhvr0qUYpbWg1zevPmHouPEfTjbxXUQji91vMmV3mjijdaCdDIVIaGvy2i58rmOGhaU1NjY22NnZcfjIUTaaWvGTiQXqWpZM1rJhgqE3U7bHoLonizlHS5jnVC2crPx3EPWPOw9mhoE9lgeOcvz4cRITE8nPz6e8vJyamhpu377NgwcPePLkCc+fP+fly5c0NDTQ3NxMS0sLUqmU1tZWWltbaWtro62tDalUSmNjI0+ePKG2tpaKigqys7NJS0vj3Llz3L59m8bGxv9a63qThhUit7TLWBcJ6R4WBZ3syhMA2pLdycbMDiGcIVUiJtILAP0SJwD0kwjQ95FNfB3eyCL3W0y1zGT0uvBBlSB0EETCG9JkzcPobd2Nnb09Xl5eBAUFERERQUxMDHFxccTHxxMdE4N/YBAHbF3Q3XmIFSaHUDNyYsrmMKZZZzPjSAlz7IV/+A38r2YoRKONjvP1xiM4u3sRHx9PYWEhFy9epLa2locPH/LixQsaGxuRSCS0trbS0dFBZ2cn3d3d9PT00NPTQ29v779sQ729vfT09NDZ2dn/s8MRgjWsEGUWlfP50VxWRz7C8HQTm7La2ZzdyabMDtald2CY2oZusgStpBbW9AF0qkkIZ4gSATrRxMrQBhZ61KJslfUGiITMn9EGPny9/iCHbI7i4+NDZGQkSUlJZGRkkJeXR1FREaWlpVRWVnLhwgUuXbrEpUuXqKyspKCggNi4ONy8/dhxwJFfdjqwaJMb0zYFMnlnHCrW2ageOIPqgUI+2ZnAJEMvjCwdiI6Opri4mOvXr/Po0SPq6+uRSCS0t7fT1dXVD8qHrmGF6N69exxyD+KHvaEstIpnnk0hS12q+T74PquiX6KZ0IJGooTVCS38EtfMz6ea+IcYD/NdZBNfRTSxMryRFaENLPS8g4p1DqPXD4VI0TiEGUZObLGywdvbm5MnT5KamkphYSHl5eVUV1dz7do1amtrqaur48GDBzx+/Jhnz57x4sULXr58SX19Pb///juPHz/m1q1bVFRUkJGRSXB4BAcdPdGzsGfFJgdmb/Rm4UYXbN39yC8o4Pbt27x8+ZK2tja6urr+EsC8ScMKUU9PDw0NDdy6dYucvHzcgqLYeDSQr8wDmGUawfQ9Gcy1r2CZ902+CX0kjDWIbuLbk018FdnEyojGfogWed5FZW/uEIgmmBznp622OLu5Ex0dTVZWFiUlJVy6dIna2lru37/PkydPePHiBfX19TQ1NdHS0kJrayvt7e10dHTQ1dU1pMX09PTQ3d1NW1sbjY2NPHr0iGvXrlFSUkJeXh6lpaXU1dXR3Nz8h2xq/wwadht1n3p6emhra+P58+fU1NSQnpWNs18oRvvdWb7dC9XNx1E2S2TG4bPMdb3KYv/f+Dz4OV+E1bP8+Avmu9/qh2jchhPM2+SF9TEXomNiyM/PH7Ifef78OY2Njf3A9MHyv9mHvEl9e5M+2P6qFedt+tNANFi9vb10dXXR0tLCgwcPqKys5FR8IjbO3miY2rLI2JZPjX2YtDOeaQeKmHG0CjWbEiaZJTNpczgalq6EhEdQVFTEtWvXePjwIS9fvqS5uZm2trYhG9iPbcH/G/pTQvSqent76ezspKmpibq6OsrKyzkVG8chB3fW7jzCkvW2zNvgxne73HH0DqakRGgp9fX1tLa20tnZOQLMf1EfBESvqqenh9bWVp4/f861a9coKioiPz+fiooKHjx4gFQqHbbX3Y9RHyREr6q7u7t/TzOiP15/CYhGNLwagWhE76wRiEb0zhqBaETvrBGIRvTOGoFoRO+sEYhG9M4agWhE76wRiEb0zhqBaETvrBGIRvTOGoFoRO+sEYhG9M4agWhE76wRiEb0zhqBaETvrBGIRvTO+v8BsJegh+7IDR0AAAAASUVORK5CYII=;" vertex="1" parent="1">
          <mxGeometry x="470" y="424" width="34.65" height="27" as="geometry" />
        </mxCell>
        <mxCell id="fmiSZgB1ioxrz4cgV_8w-8" value="SurvNet@RKI 5.0" style="text;html=1;strokeColor=none;fillColor=none;align=left;verticalAlign=middle;whiteSpace=wrap;rounded=0;shadow=1;labelBackgroundColor=none;labelBorderColor=none;fontSize=10;fontColor=#000000;fontStyle=1" vertex="1" parent="1">
          <mxGeometry x="510" y="432.5" width="110" height="10" as="geometry" />
        </mxCell>
        <mxCell id="fmiSZgB1ioxrz4cgV_8w-10" style="edgeStyle=orthogonalEdgeStyle;rounded=1;orthogonalLoop=1;jettySize=auto;html=1;exitX=1;exitY=0.5;exitDx=0;exitDy=0;entryX=0.5;entryY=0;entryDx=0;entryDy=0;fontSize=10;fontColor=#000000;" edge="1" parent="1" source="fmiSZgB1ioxrz4cgV_8w-9" target="fmiSZgB1ioxrz4cgV_8w-6">
          <mxGeometry relative="1" as="geometry" />
        </mxCell>
        <mxCell id="fmiSZgB1ioxrz4cgV_8w-9" value="Beim Klick hierauf kann man umschalten zwischen Verschiedenen Modulen. Zum Beispiel Abfragemodul, oder Modul des Landes Berlin zu Rattenmeldungen oder Hygienebegehungen in Kitas" style="rounded=0;whiteSpace=wrap;html=1;shadow=1;labelBackgroundColor=none;labelBorderColor=none;fontSize=10;fontColor=#333333;strokeColor=#666666;fillColor=#f5f5f5;" vertex="1" parent="1">
          <mxGeometry x="1000" y="190" width="120" height="140" as="geometry" />
        </mxCell>
        <mxCell id="fmiSZgB1ioxrz4cgV_8w-12" style="edgeStyle=orthogonalEdgeStyle;rounded=1;orthogonalLoop=1;jettySize=auto;html=1;exitX=0;exitY=0.5;exitDx=0;exitDy=0;entryX=0.5;entryY=0;entryDx=0;entryDy=0;fontSize=10;fontColor=#000000;" edge="1" parent="1" source="fmiSZgB1ioxrz4cgV_8w-11" target="fmiSZgB1ioxrz4cgV_8w-2">
          <mxGeometry relative="1" as="geometry" />
        </mxCell>
        <mxCell id="fmiSZgB1ioxrz4cgV_8w-11" value="Beim Klick hieraufkommt man zu einem &quot;klassischen&quot; Login Menü mit Einstellungen, Ggf. Persönliche Nachrichten, Ggf. Link zu Agora, Abmelden" style="rounded=0;whiteSpace=wrap;html=1;shadow=1;labelBackgroundColor=none;labelBorderColor=none;fontSize=10;fontColor=#333333;strokeColor=#666666;fillColor=#f5f5f5;" vertex="1" parent="1">
          <mxGeometry x="1350" y="170" width="120" height="110" as="geometry" />
        </mxCell>
        <mxCell id="fmiSZgB1ioxrz4cgV_8w-13" value="" style="rounded=0;whiteSpace=wrap;html=1;shadow=0;labelBackgroundColor=none;labelBorderColor=none;fontSize=10;strokeColor=none;fillColor=#CCE5FF;fontColor=#ffffff;" vertex="1" parent="1">
          <mxGeometry x="440" y="560" width="830" height="60" as="geometry" />
        </mxCell>
        <mxCell id="fmiSZgB1ioxrz4cgV_8w-14" value="&lt;div align=&quot;left&quot;&gt;&lt;font color=&quot;#808080&quot;&gt;Suche&lt;/font&gt;&lt;/div&gt;" style="rounded=1;whiteSpace=wrap;html=1;shadow=0;labelBackgroundColor=none;labelBorderColor=none;fontSize=10;align=left;spacingLeft=9;" vertex="1" parent="1">
          <mxGeometry x="660" y="580" width="230" height="20" as="geometry" />
        </mxCell>
        <mxCell id="fmiSZgB1ioxrz4cgV_8w-17" value="" style="group" vertex="1" connectable="0" parent="1">
          <mxGeometry x="1000" y="577" width="61" height="25" as="geometry" />
        </mxCell>
        <mxCell id="fmiSZgB1ioxrz4cgV_8w-15" value="" style="shape=image;aspect=fixed;image=data:image/svg+xml,PHN2ZyB4bWxucz0iaHR0cDovL3d3dy53My5vcmcvMjAwMC9zdmciIHZpZXdCb3g9IjAgMCA1MTIgNTEyIj48cGF0aCBkPSJNNDk2IDM4NEgxNjB2LTE2YzAtOC44LTcuMi0xNi0xNi0xNmgtMzJjLTguOCAwLTE2IDcuMi0xNiAxNnYxNkgxNmMtOC44IDAtMTYgNy4yLTE2IDE2djMyYzAgOC44IDcuMiAxNiAxNiAxNmg4MHYxNmMwIDguOCA3LjIgMTYgMTYgMTZoMzJjOC44IDAgMTYtNy4yIDE2LTE2di0xNmgzMzZjOC44IDAgMTYtNy4yIDE2LTE2di0zMmMwLTguOC03LjItMTYtMTYtMTZ6bTAtMTYwaC04MHYtMTZjMC04LjgtNy4yLTE2LTE2LTE2aC0zMmMtOC44IDAtMTYgNy4yLTE2IDE2djE2SDE2Yy04LjggMC0xNiA3LjItMTYgMTZ2MzJjMCA4LjggNy4yIDE2IDE2IDE2aDMzNnYxNmMwIDguOCA3LjIgMTYgMTYgMTZoMzJjOC44IDAgMTYtNy4yIDE2LTE2di0xNmg4MGM4LjggMCAxNi03LjIgMTYtMTZ2LTMyYzAtOC44LTcuMi0xNi0xNi0xNnptMC0xNjBIMjg4VjQ4YzAtOC44LTcuMi0xNi0xNi0xNmgtMzJjLTguOCAwLTE2IDcuMi0xNiAxNnYxNkgxNkM3LjIgNjQgMCA3MS4yIDAgODB2MzJjMCA4LjggNy4yIDE2IDE2IDE2aDIwOHYxNmMwIDguOCA3LjIgMTYgMTYgMTZoMzJjOC44IDAgMTYtNy4yIDE2LTE2di0xNmgyMDhjOC44IDAgMTYtNy4yIDE2LTE2VjgwYzAtOC44LTcuMi0xNi0xNi0xNnoiLz48L3N2Zz4=;connectable=0;movable=1;verticalLabelPosition=bottom;resizable=1;rotatable=0;cloneable=0;deletable=1;recursiveResize=0;imageBackground=none;verticalAlign=top;rounded=1;shadow=0;labelBackgroundColor=none;labelBorderColor=none;fontSize=10;fontColor=#808080;strokeColor=#FFFFFF;fillColor=#004C99;" vertex="1" parent="fmiSZgB1ioxrz4cgV_8w-17">
          <mxGeometry y="4.5" width="16" height="16" as="geometry" />
        </mxCell>
        <mxCell id="fmiSZgB1ioxrz4cgV_8w-16" value="&lt;div&gt;Filter &amp;amp;&lt;/div&gt;&lt;div&gt;Sortierung&lt;br&gt;&lt;/div&gt;" style="text;html=1;strokeColor=none;fillColor=none;align=left;verticalAlign=middle;whiteSpace=wrap;rounded=0;shadow=1;labelBackgroundColor=none;labelBorderColor=none;fontSize=8;fontColor=#000000;" vertex="1" parent="fmiSZgB1ioxrz4cgV_8w-17">
          <mxGeometry x="21" width="40" height="25" as="geometry" />
        </mxCell>
        <mxCell id="fmiSZgB1ioxrz4cgV_8w-19" value="" style="shape=image;aspect=fixed;image=data:image/svg+xml,PHN2ZyB4bWxucz0iaHR0cDovL3d3dy53My5vcmcvMjAwMC9zdmciIHZpZXdCb3g9IjAgMCA1MTIgNTEyIj48cGF0aCBkPSJNMjU2IDhDMTE5LjA0MyA4IDggMTE5LjA4MyA4IDI1NmMwIDEzNi45OTcgMTExLjA0MyAyNDggMjQ4IDI0OHMyNDgtMTExLjAwMyAyNDgtMjQ4QzUwNCAxMTkuMDgzIDM5Mi45NTcgOCAyNTYgOHptMCAxMTBjMjMuMTk2IDAgNDIgMTguODA0IDQyIDQycy0xOC44MDQgNDItNDIgNDItNDItMTguODA0LTQyLTQyIDE4LjgwNC00MiA0Mi00MnptNTYgMjU0YzAgNi42MjctNS4zNzMgMTItMTIgMTJoLTg4Yy02LjYyNyAwLTEyLTUuMzczLTEyLTEydi0yNGMwLTYuNjI3IDUuMzczLTEyIDEyLTEyaDEydi02NGgtMTJjLTYuNjI3IDAtMTItNS4zNzMtMTItMTJ2LTI0YzAtNi42MjcgNS4zNzMtMTIgMTItMTJoNjRjNi42MjcgMCAxMiA1LjM3MyAxMiAxMnYxMDBoMTJjNi42MjcgMCAxMiA1LjM3MyAxMiAxMnYyNHoiLz48L3N2Zz4=;connectable=0;movable=1;verticalLabelPosition=bottom;resizable=1;rotatable=0;cloneable=0;deletable=1;recursiveResize=0;imageBackground=none;verticalAlign=top;rounded=1;shadow=0;labelBackgroundColor=none;labelBorderColor=none;fontSize=10;fontColor=#808080;strokeColor=#FFFFFF;fillColor=#CCE5FF;" vertex="1" parent="fmiSZgB1ioxrz4cgV_8w-17">
          <mxGeometry x="55" y="4" width="6" height="6" as="geometry" />
        </mxCell>
        <mxCell id="fmiSZgB1ioxrz4cgV_8w-18" value="" style="shape=image;aspect=fixed;image=data:image/svg+xml,PHN2ZyB4bWxucz0iaHR0cDovL3d3dy53My5vcmcvMjAwMC9zdmciIHZpZXdCb3g9IjAgMCA1MTIgNTEyIj48cGF0aCBkPSJNMjU2IDhDMTE5LjA0MyA4IDggMTE5LjA4MyA4IDI1NmMwIDEzNi45OTcgMTExLjA0MyAyNDggMjQ4IDI0OHMyNDgtMTExLjAwMyAyNDgtMjQ4QzUwNCAxMTkuMDgzIDM5Mi45NTcgOCAyNTYgOHptMCAxMTBjMjMuMTk2IDAgNDIgMTguODA0IDQyIDQycy0xOC44MDQgNDItNDIgNDItNDItMTguODA0LTQyLTQyIDE4LjgwNC00MiA0Mi00MnptNTYgMjU0YzAgNi42MjctNS4zNzMgMTItMTIgMTJoLTg4Yy02LjYyNyAwLTEyLTUuMzczLTEyLTEydi0yNGMwLTYuNjI3IDUuMzczLTEyIDEyLTEyaDEydi02NGgtMTJjLTYuNjI3IDAtMTItNS4zNzMtMTItMTJ2LTI0YzAtNi42MjcgNS4zNzMtMTIgMTItMTJoNjRjNi42MjcgMCAxMiA1LjM3MyAxMiAxMnYxMDBoMTJjNi42MjcgMCAxMiA1LjM3MyAxMiAxMnYyNHoiLz48L3N2Zz4=;connectable=0;movable=1;verticalLabelPosition=bottom;resizable=1;rotatable=0;cloneable=0;deletable=1;recursiveResize=0;imageBackground=none;verticalAlign=top;rounded=1;shadow=0;labelBackgroundColor=none;labelBorderColor=none;fontSize=10;fontColor=#E6E6E6;strokeColor=#FFFFFF;fillColor=#CCE5FF;" vertex="1" parent="1">
          <mxGeometry x="882" y="581" width="6" height="6" as="geometry" />
        </mxCell>
        <mxCell id="fmiSZgB1ioxrz4cgV_8w-20" value="" style="shape=image;aspect=fixed;image=data:image/svg+xml,PHN2ZyB4bWxucz0iaHR0cDovL3d3dy53My5vcmcvMjAwMC9zdmciIHZpZXdCb3g9IjAgMCA1MTIgNTEyIj48cGF0aCBkPSJNNTA1IDQ0Mi43TDQwNS4zIDM0M2MtNC41LTQuNS0xMC42LTctMTctN0gzNzJjMjcuNi0zNS4zIDQ0LTc5LjcgNDQtMTI4QzQxNiA5My4xIDMyMi45IDAgMjA4IDBTMCA5My4xIDAgMjA4czkzLjEgMjA4IDIwOCAyMDhjNDguMyAwIDkyLjctMTYuNCAxMjgtNDR2MTYuM2MwIDYuNCAyLjUgMTIuNSA3IDE3bDk5LjcgOTkuN2M5LjQgOS40IDI0LjYgOS40IDMzLjkgMGwyOC4zLTI4LjNjOS40LTkuNCA5LjQtMjQuNi4xLTM0ek0yMDggMzM2Yy03MC43IDAtMTI4LTU3LjItMTI4LTEyOCAwLTcwLjcgNTcuMi0xMjggMTI4LTEyOCA3MC43IDAgMTI4IDU3LjIgMTI4IDEyOCAwIDcwLjctNTcuMiAxMjgtMTI4IDEyOHoiLz48L3N2Zz4=;connectable=0;movable=1;verticalLabelPosition=bottom;resizable=1;rotatable=0;cloneable=0;deletable=1;recursiveResize=0;imageBackground=none;verticalAlign=top;rounded=1;shadow=0;labelBackgroundColor=none;labelBorderColor=none;fontSize=10;fontColor=#808080;strokeColor=#FFFFFF;fillColor=#CCE5FF;" vertex="1" parent="1">
          <mxGeometry x="640" y="582" width="16" height="16" as="geometry" />
        </mxCell>
        <mxCell id="fmiSZgB1ioxrz4cgV_8w-27" value="" style="group" vertex="1" connectable="0" parent="1">
          <mxGeometry x="920" y="577" width="61" height="25" as="geometry" />
        </mxCell>
        <mxCell id="fmiSZgB1ioxrz4cgV_8w-22" value="" style="shape=image;aspect=fixed;image=data:image/svg+xml,PHN2ZyB4bWxucz0iaHR0cDovL3d3dy53My5vcmcvMjAwMC9zdmciIHZpZXdCb3g9IjAgMCA2NDAgNTEyIj48cGF0aCBkPSJNNDMxLjk4IDQ0OC4wMWwtNDcuOTcuMDVWNDE2aC0xMjh2MzIuMjFsLTQ3Ljk4LjA1Yy04LjgyLjAxLTE1Ljk3IDcuMTYtMTUuOTggMTUuOTlsLS4wNSAzMS43M2MtLjAxIDguODUgNy4xNyAxNi4wMyAxNi4wMiAxNi4wMmwyMjMuOTYtLjI2YzguODItLjAxIDE1Ljk3LTcuMTYgMTUuOTgtMTUuOThsLjA0LTMxLjczYy4wMS04Ljg1LTcuMTctMTYuMDMtMTYuMDItMTYuMDJ6TTU4NS4yIDI2Ljc0QzU4Mi41OCAxMS4zMSA1NjguOTkgMCA1NTMuMDYgMEg4Ni45M0M3MSAwIDU3LjQxIDExLjMxIDU0Ljc5IDI2Ljc0LTMuMzIgMzY5LjE2LjA0IDM0OC4wOC4wMyAzNTJjLS4wMyAxNy4zMiAxNC4yOSAzMiAzMi42IDMyaDU3NC43NGMxOC4yMyAwIDMyLjUxLTE0LjU2IDMyLjU5LTMxLjc5LjAyLTQuMDggMy4zNSAxNi45NS01NC43Ni0zMjUuNDd6TTI1OS44MyA2NGgxMjAuMzNsOS43NyA5NkgyNTAuMDZsOS43Ny05NnptLTc1LjE3IDI1Nkg3MS4wOUw5MC4xIDIwOGgxMDUuOTdsLTExLjQxIDExMnptMTYuMjktMTYwSDk4LjI0bDE2LjI5LTk2aDk2LjE5bC05Ljc3IDk2em0zMi44MiAxNjBsMTEuNC0xMTJoMTQ5LjY1bDExLjQgMTEySDIzMy43N3ptMTk1LjUtMjU2aDk2LjE5bDE2LjI5IDk2SDQzOS4wNGwtOS43Ny05NnptMjYuMDYgMjU2bC0xMS40LTExMkg1NDkuOWwxOS4wMSAxMTJINDU1LjMzeiIvPjwvc3ZnPg==;connectable=0;movable=1;verticalLabelPosition=bottom;resizable=1;rotatable=0;cloneable=0;deletable=1;recursiveResize=0;imageBackground=none;verticalAlign=top;rounded=1;shadow=0;labelBackgroundColor=none;labelBorderColor=none;fontSize=10;fontColor=#808080;strokeColor=#FFFFFF;fillColor=#CCE5FF;" vertex="1" parent="fmiSZgB1ioxrz4cgV_8w-27">
          <mxGeometry y="5" width="16" height="16" as="geometry" />
        </mxCell>
        <mxCell id="fmiSZgB1ioxrz4cgV_8w-23" value="" style="group" vertex="1" connectable="0" parent="fmiSZgB1ioxrz4cgV_8w-27">
          <mxGeometry width="61" height="25" as="geometry" />
        </mxCell>
        <mxCell id="fmiSZgB1ioxrz4cgV_8w-25" value="Ansichten" style="text;html=1;strokeColor=none;fillColor=none;align=left;verticalAlign=middle;whiteSpace=wrap;rounded=0;shadow=1;labelBackgroundColor=none;labelBorderColor=none;fontSize=8;fontColor=#000000;" vertex="1" parent="fmiSZgB1ioxrz4cgV_8w-23">
          <mxGeometry x="21" width="40" height="25" as="geometry" />
        </mxCell>
        <mxCell id="fmiSZgB1ioxrz4cgV_8w-26" value="" style="shape=image;aspect=fixed;image=data:image/svg+xml,PHN2ZyB4bWxucz0iaHR0cDovL3d3dy53My5vcmcvMjAwMC9zdmciIHZpZXdCb3g9IjAgMCA1MTIgNTEyIj48cGF0aCBkPSJNMjU2IDhDMTE5LjA0MyA4IDggMTE5LjA4MyA4IDI1NmMwIDEzNi45OTcgMTExLjA0MyAyNDggMjQ4IDI0OHMyNDgtMTExLjAwMyAyNDgtMjQ4QzUwNCAxMTkuMDgzIDM5Mi45NTcgOCAyNTYgOHptMCAxMTBjMjMuMTk2IDAgNDIgMTguODA0IDQyIDQycy0xOC44MDQgNDItNDIgNDItNDItMTguODA0LTQyLTQyIDE4LjgwNC00MiA0Mi00MnptNTYgMjU0YzAgNi42MjctNS4zNzMgMTItMTIgMTJoLTg4Yy02LjYyNyAwLTEyLTUuMzczLTEyLTEydi0yNGMwLTYuNjI3IDUuMzczLTEyIDEyLTEyaDEydi02NGgtMTJjLTYuNjI3IDAtMTItNS4zNzMtMTItMTJ2LTI0YzAtNi42MjcgNS4zNzMtMTIgMTItMTJoNjRjNi42MjcgMCAxMiA1LjM3MyAxMiAxMnYxMDBoMTJjNi42MjcgMCAxMiA1LjM3MyAxMiAxMnYyNHoiLz48L3N2Zz4=;connectable=0;movable=1;verticalLabelPosition=bottom;resizable=1;rotatable=0;cloneable=0;deletable=1;recursiveResize=0;imageBackground=none;verticalAlign=top;rounded=1;shadow=0;labelBackgroundColor=none;labelBorderColor=none;fontSize=10;fontColor=#808080;strokeColor=#FFFFFF;fillColor=#CCE5FF;" vertex="1" parent="fmiSZgB1ioxrz4cgV_8w-23">
          <mxGeometry x="55" y="4" width="6" height="6" as="geometry" />
        </mxCell>
        <mxCell id="fmiSZgB1ioxrz4cgV_8w-29" style="edgeStyle=orthogonalEdgeStyle;rounded=1;orthogonalLoop=1;jettySize=auto;html=1;exitX=0.5;exitY=1;exitDx=0;exitDy=0;entryX=0.5;entryY=0;entryDx=0;entryDy=0;fontSize=10;fontColor=#E6E6E6;" edge="1" parent="1" source="fmiSZgB1ioxrz4cgV_8w-28" target="fmiSZgB1ioxrz4cgV_8w-25">
          <mxGeometry relative="1" as="geometry" />
        </mxCell>
        <mxCell id="fmiSZgB1ioxrz4cgV_8w-28" value="Beim Klick hierauf kann man umschalten zwischen vordefinierten Ansichten (die man bei Filter und Sortierung erstellen kann). Die Ansichten umfassen z.B. &quot;Aufgaben für Schumacher&quot; oder &quot;Nur Demis-Eingaben&quot; oder &quot;Neueste Fälle&quot; oder &quot;Fälle mit bedrohlichem Potential&quot; oder &quot;Nur Ausbrüche&quot;" style="rounded=0;whiteSpace=wrap;html=1;shadow=1;labelBackgroundColor=none;labelBorderColor=none;fontSize=10;fontColor=#333333;strokeColor=#666666;fillColor=#f5f5f5;" vertex="1" parent="1">
          <mxGeometry x="800" y="180" width="130" height="170" as="geometry" />
        </mxCell>
        <mxCell id="fmiSZgB1ioxrz4cgV_8w-31" style="edgeStyle=orthogonalEdgeStyle;rounded=1;orthogonalLoop=1;jettySize=auto;html=1;fontSize=10;fontColor=#E6E6E6;" edge="1" parent="1" source="fmiSZgB1ioxrz4cgV_8w-30">
          <mxGeometry relative="1" as="geometry">
            <mxPoint x="640" y="590" as="targetPoint" />
          </mxGeometry>
        </mxCell>
        <mxCell id="fmiSZgB1ioxrz4cgV_8w-30" value="Die Suche sucht nach quer durch den ganzen Bereich. Man kann Sie aber auch wie z.B. in Outlook, Google oder bei Pubmed einschränken mit z.B. Type:CVD oder &quot;Street:Teichstr&quot; oder &quot;Flagge: Demis&quot;" style="rounded=0;whiteSpace=wrap;html=1;shadow=1;labelBackgroundColor=none;labelBorderColor=none;fontSize=10;fontColor=#333333;strokeColor=#666666;fillColor=#f5f5f5;" vertex="1" parent="1">
          <mxGeometry x="210" y="432.5" width="120" height="160" as="geometry" />
        </mxCell>
        <mxCell id="fmiSZgB1ioxrz4cgV_8w-62" style="edgeStyle=orthogonalEdgeStyle;rounded=1;orthogonalLoop=1;jettySize=auto;html=1;exitX=0;exitY=0.5;exitDx=0;exitDy=0;entryX=1;entryY=0.75;entryDx=0;entryDy=0;fontSize=10;fontColor=#000000;" edge="1" parent="1" source="fmiSZgB1ioxrz4cgV_8w-32" target="fmiSZgB1ioxrz4cgV_8w-16">
          <mxGeometry relative="1" as="geometry" />
        </mxCell>
        <mxCell id="fmiSZgB1ioxrz4cgV_8w-32" value="Bei Filtern und Sorteriung kann man die angezeigten Fälle filtern, bzw. sortieren. Im sich öffnenden Menü kann man ganz unten seine aktuelle Auswahl speichern, die dann unter &quot;Ansichten&quot; erscheint." style="rounded=0;whiteSpace=wrap;html=1;shadow=1;labelBackgroundColor=none;labelBorderColor=none;fontSize=10;fontColor=#333333;strokeColor=#666666;fillColor=#f5f5f5;" vertex="1" parent="1">
          <mxGeometry x="1350" y="500" width="120" height="160" as="geometry" />
        </mxCell>
        <mxCell id="fmiSZgB1ioxrz4cgV_8w-35" value="&lt;div&gt;KP-CVD 2022 &lt;br&gt;&lt;/div&gt;&lt;div&gt;97700&lt;/div&gt;" style="rounded=1;whiteSpace=wrap;html=1;shadow=0;labelBackgroundColor=none;labelBorderColor=none;fontSize=10;strokeColor=#82b366;fillColor=#d5e8d4;glass=0;" vertex="1" parent="1">
          <mxGeometry x="764.5" y="660" width="60" height="60" as="geometry" />
        </mxCell>
        <mxCell id="fmiSZgB1ioxrz4cgV_8w-38" value="CVD-2022 2040" style="rounded=1;whiteSpace=wrap;html=1;shadow=0;labelBackgroundColor=none;labelBorderColor=none;fontSize=10;strokeColor=#6c8ebf;fillColor=#dae8fc;glass=0;" vertex="1" parent="1">
          <mxGeometry x="1006.5" y="660" width="60" height="60" as="geometry" />
        </mxCell>
        <mxCell id="fmiSZgB1ioxrz4cgV_8w-39" value="CVD-2022 2041" style="rounded=1;whiteSpace=wrap;html=1;shadow=0;labelBackgroundColor=none;labelBorderColor=none;fontSize=10;strokeColor=#b85450;fillColor=#f8cecc;glass=0;" vertex="1" parent="1">
          <mxGeometry x="1127.5" y="660" width="60" height="60" as="geometry" />
        </mxCell>
        <mxCell id="fmiSZgB1ioxrz4cgV_8w-40" value="IFSG7- 2040" style="rounded=1;whiteSpace=wrap;html=1;shadow=0;labelBackgroundColor=none;labelBorderColor=none;fontSize=10;strokeColor=#b85450;fillColor=#f8cecc;glass=0;dashed=1;" vertex="1" parent="1">
          <mxGeometry x="522.5" y="760" width="60" height="60" as="geometry" />
        </mxCell>
        <mxCell id="fmiSZgB1ioxrz4cgV_8w-41" value="CVD-2022 2040" style="rounded=1;whiteSpace=wrap;html=1;shadow=0;labelBackgroundColor=none;labelBorderColor=none;fontSize=10;strokeColor=#b85450;fillColor=#f8cecc;glass=0;dashed=1;" vertex="1" parent="1">
          <mxGeometry x="643.5" y="760" width="60" height="60" as="geometry" />
        </mxCell>
        <mxCell id="fmiSZgB1ioxrz4cgV_8w-43" value="CVD-2022 2040" style="rounded=1;whiteSpace=wrap;html=1;shadow=0;labelBackgroundColor=none;labelBorderColor=none;fontSize=10;strokeColor=#82b366;fillColor=#d5e8d4;glass=0;" vertex="1" parent="1">
          <mxGeometry x="885.5" y="760" width="60" height="60" as="geometry" />
        </mxCell>
        <mxCell id="fmiSZgB1ioxrz4cgV_8w-44" value="KP-Vorgang 2022 4372" style="rounded=1;whiteSpace=wrap;html=1;shadow=0;labelBackgroundColor=none;labelBorderColor=none;fontSize=10;strokeColor=#6c8ebf;fillColor=#dae8fc;glass=0;" vertex="1" parent="1">
          <mxGeometry x="1006.5" y="760" width="60" height="60" as="geometry" />
        </mxCell>
        <mxCell id="fmiSZgB1ioxrz4cgV_8w-46" value="" style="rounded=0;whiteSpace=wrap;html=1;shadow=0;glass=0;labelBackgroundColor=none;labelBorderColor=none;fontSize=10;fontColor=#ffffff;strokeColor=#B20000;fillColor=#e51400;rotation=-15;strokeWidth=1;" vertex="1" parent="1">
          <mxGeometry x="570.17" y="671.29" width="30" height="10" as="geometry" />
        </mxCell>
        <mxCell id="fmiSZgB1ioxrz4cgV_8w-45" value="&lt;div&gt;Ausbruch CVD-2022 8322&lt;/div&gt;" style="rounded=1;whiteSpace=wrap;html=1;shadow=0;labelBackgroundColor=none;labelBorderColor=none;fontSize=10;strokeColor=#b85450;fillColor=#f8cecc;glass=0;" vertex="1" parent="1">
          <mxGeometry x="1127.5" y="760" width="60" height="60" as="geometry" />
        </mxCell>
        <mxCell id="fmiSZgB1ioxrz4cgV_8w-47" value="" style="rounded=0;whiteSpace=wrap;html=1;shadow=0;glass=0;labelBackgroundColor=none;labelBorderColor=none;fontSize=10;fontColor=#000000;strokeColor=#C73500;fillColor=#fa6800;rotation=0;strokeWidth=1;" vertex="1" parent="1">
          <mxGeometry x="570.17" y="685" width="30" height="10" as="geometry" />
        </mxCell>
        <mxCell id="fmiSZgB1ioxrz4cgV_8w-48" value="" style="rounded=0;whiteSpace=wrap;html=1;shadow=0;glass=0;labelBackgroundColor=none;labelBorderColor=none;fontSize=10;fontColor=#ffffff;strokeColor=#432D57;fillColor=#76608a;rotation=-15;strokeWidth=1;" vertex="1" parent="1">
          <mxGeometry x="504.65" y="700" width="30" height="10" as="geometry" />
        </mxCell>
        <mxCell id="fmiSZgB1ioxrz4cgV_8w-33" value="CVD-2022 1845" style="rounded=1;whiteSpace=wrap;html=1;shadow=0;labelBackgroundColor=none;labelBorderColor=none;fontSize=10;strokeColor=#d6b656;fillColor=#fff2cc;glass=0;" vertex="1" parent="1">
          <mxGeometry x="522.5" y="660" width="60" height="60" as="geometry" />
        </mxCell>
        <mxCell id="fmiSZgB1ioxrz4cgV_8w-49" value="" style="rounded=0;whiteSpace=wrap;html=1;shadow=0;glass=0;labelBackgroundColor=none;labelBorderColor=none;fontSize=10;fontColor=#000000;strokeColor=#C73500;fillColor=#fa6800;rotation=0;strokeWidth=1;" vertex="1" parent="1">
          <mxGeometry x="690" y="685" width="30" height="10" as="geometry" />
        </mxCell>
        <mxCell id="fmiSZgB1ioxrz4cgV_8w-50" value="" style="rounded=0;whiteSpace=wrap;html=1;shadow=0;glass=0;labelBackgroundColor=none;labelBorderColor=none;fontSize=10;fontColor=#ffffff;strokeColor=#3A5431;fillColor=#6d8764;rotation=105;strokeWidth=1;direction=south;" vertex="1" parent="1">
          <mxGeometry x="640" y="660" width="10" height="30" as="geometry" />
        </mxCell>
        <mxCell id="fmiSZgB1ioxrz4cgV_8w-34" value="CVD-2022 1965" style="rounded=1;whiteSpace=wrap;html=1;shadow=0;labelBackgroundColor=none;labelBorderColor=none;fontSize=10;strokeColor=#82b366;fillColor=#d5e8d4;glass=0;" vertex="1" parent="1">
          <mxGeometry x="643.5" y="660" width="60" height="60" as="geometry" />
        </mxCell>
        <mxCell id="fmiSZgB1ioxrz4cgV_8w-57" style="edgeStyle=orthogonalEdgeStyle;rounded=1;orthogonalLoop=1;jettySize=auto;html=1;exitX=1;exitY=0.5;exitDx=0;exitDy=0;entryX=0;entryY=0.25;entryDx=0;entryDy=0;fontSize=10;fontColor=#000000;" edge="1" parent="1" source="fmiSZgB1ioxrz4cgV_8w-51" target="fmiSZgB1ioxrz4cgV_8w-48">
          <mxGeometry relative="1" as="geometry" />
        </mxCell>
        <mxCell id="fmiSZgB1ioxrz4cgV_8w-51" value="Alle Fälle können per Rechtsklick mit Flaggen versehen werden. Eine Flagge kann z.B. eine Aufgabe sein oder eine Warnmeldung durch die Algorhithmen oder eine Nachricht vom RKI/LS" style="rounded=0;whiteSpace=wrap;html=1;shadow=1;labelBackgroundColor=none;labelBorderColor=none;fontSize=10;fontColor=#333333;strokeColor=#666666;fillColor=#f5f5f5;" vertex="1" parent="1">
          <mxGeometry x="170" y="625" width="120" height="115" as="geometry" />
        </mxCell>
        <mxCell id="fmiSZgB1ioxrz4cgV_8w-52" value="" style="rounded=0;whiteSpace=wrap;html=1;shadow=0;glass=0;labelBackgroundColor=none;labelBorderColor=none;fontSize=10;fontColor=#000000;strokeColor=#C73500;fillColor=#fa6800;rotation=0;strokeWidth=1;" vertex="1" parent="1">
          <mxGeometry x="925.5" y="690" width="30" height="10" as="geometry" />
        </mxCell>
        <mxCell id="fmiSZgB1ioxrz4cgV_8w-53" value="" style="rounded=0;whiteSpace=wrap;html=1;shadow=0;glass=0;labelBackgroundColor=none;labelBorderColor=none;fontSize=10;fontColor=#ffffff;strokeColor=#3A5431;fillColor=#6d8764;rotation=105;strokeWidth=1;direction=south;" vertex="1" parent="1">
          <mxGeometry x="875.5" y="665" width="10" height="30" as="geometry" />
        </mxCell>
        <mxCell id="fmiSZgB1ioxrz4cgV_8w-54" value="" style="rounded=0;whiteSpace=wrap;html=1;shadow=0;glass=0;labelBackgroundColor=none;labelBorderColor=none;fontSize=10;fontColor=#000000;strokeColor=#C73500;fillColor=#fa6800;rotation=0;strokeWidth=1;" vertex="1" parent="1">
          <mxGeometry x="808.5" y="785" width="30" height="10" as="geometry" />
        </mxCell>
        <mxCell id="fmiSZgB1ioxrz4cgV_8w-55" value="" style="rounded=0;whiteSpace=wrap;html=1;shadow=0;glass=0;labelBackgroundColor=none;labelBorderColor=none;fontSize=10;fontColor=#ffffff;strokeColor=#3A5431;fillColor=#6d8764;rotation=105;strokeWidth=1;direction=south;" vertex="1" parent="1">
          <mxGeometry x="758.5" y="760" width="10" height="30" as="geometry" />
        </mxCell>
        <mxCell id="fmiSZgB1ioxrz4cgV_8w-42" value="LEG-2022 2040" style="rounded=1;whiteSpace=wrap;html=1;shadow=0;labelBackgroundColor=none;labelBorderColor=none;fontSize=10;strokeColor=#b85450;fillColor=#f8cecc;glass=0;" vertex="1" parent="1">
          <mxGeometry x="764.5" y="760" width="60" height="60" as="geometry" />
        </mxCell>
        <mxCell id="fmiSZgB1ioxrz4cgV_8w-36" value="CVD-2022 2040" style="rounded=1;whiteSpace=wrap;html=1;shadow=0;labelBackgroundColor=none;labelBorderColor=none;fontSize=10;strokeColor=#82b366;fillColor=#d5e8d4;glass=0;" vertex="1" parent="1">
          <mxGeometry x="885.5" y="660" width="60" height="60" as="geometry" />
        </mxCell>
        <mxCell id="fmiSZgB1ioxrz4cgV_8w-59" style="edgeStyle=orthogonalEdgeStyle;rounded=1;orthogonalLoop=1;jettySize=auto;html=1;exitX=0;exitY=0.5;exitDx=0;exitDy=0;fontSize=10;fontColor=#000000;entryX=1;entryY=0.5;entryDx=0;entryDy=0;" edge="1" parent="1" source="fmiSZgB1ioxrz4cgV_8w-58" target="fmiSZgB1ioxrz4cgV_8w-39">
          <mxGeometry relative="1" as="geometry" />
        </mxCell>
        <mxCell id="fmiSZgB1ioxrz4cgV_8w-58" value="Farben symbolisieren den Bearbeitungsstand. Rot: Nicht angefasst. Blau: In Bearbeitung. Grün: Zu Ende Bearbeitet. Gelb: Auf Wiedervorlage. " style="rounded=0;whiteSpace=wrap;html=1;shadow=1;labelBackgroundColor=none;labelBorderColor=none;fontSize=10;fontColor=#333333;strokeColor=#666666;fillColor=#f5f5f5;" vertex="1" parent="1">
          <mxGeometry x="1390" y="695" width="140" height="115" as="geometry" />
        </mxCell>
        <mxCell id="fmiSZgB1ioxrz4cgV_8w-61" style="edgeStyle=orthogonalEdgeStyle;rounded=1;orthogonalLoop=1;jettySize=auto;html=1;exitX=1;exitY=0.5;exitDx=0;exitDy=0;entryX=0;entryY=0.5;entryDx=0;entryDy=0;fontSize=10;fontColor=#000000;" edge="1" parent="1" source="fmiSZgB1ioxrz4cgV_8w-60" target="fmiSZgB1ioxrz4cgV_8w-40">
          <mxGeometry relative="1" as="geometry" />
        </mxCell>
        <mxCell id="fmiSZgB1ioxrz4cgV_8w-60" value="Mit einer gestrichelten Linie werden noch nicht übernommene Demis-Meldungen markiert" style="rounded=0;whiteSpace=wrap;html=1;shadow=1;labelBackgroundColor=none;labelBorderColor=none;fontSize=10;fontColor=#333333;strokeColor=#666666;fillColor=#f5f5f5;" vertex="1" parent="1">
          <mxGeometry x="200" y="790" width="140" height="60" as="geometry" />
        </mxCell>
        <mxCell id="fmiSZgB1ioxrz4cgV_8w-64" style="edgeStyle=orthogonalEdgeStyle;rounded=1;orthogonalLoop=1;jettySize=auto;html=1;exitX=0;exitY=0.5;exitDx=0;exitDy=0;entryX=1;entryY=0.5;entryDx=0;entryDy=0;fontSize=10;fontColor=#000000;" edge="1" parent="1" source="fmiSZgB1ioxrz4cgV_8w-63" target="fmiSZgB1ioxrz4cgV_8w-45">
          <mxGeometry relative="1" as="geometry" />
        </mxCell>
        <mxCell id="fmiSZgB1ioxrz4cgV_8w-65" style="edgeStyle=orthogonalEdgeStyle;rounded=1;orthogonalLoop=1;jettySize=auto;html=1;exitX=0;exitY=0.5;exitDx=0;exitDy=0;fontSize=10;fontColor=#000000;" edge="1" parent="1" source="fmiSZgB1ioxrz4cgV_8w-63" target="fmiSZgB1ioxrz4cgV_8w-44">
          <mxGeometry relative="1" as="geometry" />
        </mxCell>
        <mxCell id="fmiSZgB1ioxrz4cgV_8w-63" value="Auch Ausbrüche und KP-Vorgänge werden hier angezeigt - Je nach aktueller Ansicht natürlich. " style="rounded=0;whiteSpace=wrap;html=1;shadow=1;labelBackgroundColor=none;labelBorderColor=none;fontSize=10;fontColor=#333333;strokeColor=#666666;fillColor=#f5f5f5;" vertex="1" parent="1">
          <mxGeometry x="1350" y="830" width="140" height="70" as="geometry" />
        </mxCell>
        <mxCell id="fmiSZgB1ioxrz4cgV_8w-66" value="" style="group" vertex="1" connectable="0" parent="1">
          <mxGeometry x="1187" y="425.5" width="63" height="13" as="geometry" />
        </mxCell>
        <mxCell id="fmiSZgB1ioxrz4cgV_8w-2" value="Schumacher" style="text;html=1;strokeColor=none;fillColor=none;align=center;verticalAlign=middle;whiteSpace=wrap;rounded=0;shadow=1;labelBackgroundColor=none;labelBorderColor=none;fontSize=8;fontColor=#000000;" vertex="1" parent="fmiSZgB1ioxrz4cgV_8w-66">
          <mxGeometry x="13" y="3" width="50" height="10" as="geometry" />
        </mxCell>
        <mxCell id="fmiSZgB1ioxrz4cgV_8w-3" value="" style="shape=image;aspect=fixed;image=data:image/svg+xml,PHN2ZyB4bWxucz0iaHR0cDovL3d3dy53My5vcmcvMjAwMC9zdmciIHZpZXdCb3g9IjAgMCA1MTIgNTEyIj48cGF0aCBkPSJNMjU2IDI4OGM3OS41IDAgMTQ0LTY0LjUgMTQ0LTE0NFMzMzUuNSAwIDI1NiAwIDExMiA2NC41IDExMiAxNDRzNjQuNSAxNDQgMTQ0IDE0NHptMTI4IDMyaC01NS4xYy0yMi4yIDEwLjItNDYuOSAxNi03Mi45IDE2cy01MC42LTUuOC03Mi45LTE2SDEyOEM1Ny4zIDMyMCAwIDM3Ny4zIDAgNDQ4djE2YzAgMjYuNSAyMS41IDQ4IDQ4IDQ4aDQxNmMyNi41IDAgNDgtMjEuNSA0OC00OHYtMTZjMC03MC43LTU3LjMtMTI4LTEyOC0xMjh6Ii8+PC9zdmc+;connectable=0;movable=1;verticalLabelPosition=bottom;resizable=1;rotatable=0;cloneable=0;deletable=1;recursiveResize=0;imageBackground=none;verticalAlign=top;rounded=1;shadow=1;labelBackgroundColor=none;labelBorderColor=none;fontSize=8;fontColor=#000000;strokeColor=#FFFFFF;fillColor=#FFFFFF;" vertex="1" parent="fmiSZgB1ioxrz4cgV_8w-66">
          <mxGeometry width="13" height="13" as="geometry" />
        </mxCell>
        <mxCell id="fmiSZgB1ioxrz4cgV_8w-69" value="&lt;h1&gt;Startansicht von SurvNet 5.0&lt;br&gt;&lt;/h1&gt;&lt;p&gt;Das ist die Ansicht die man als Startseite von SurvNet bekommt. Es gibt verschiedene Module, z.B. für das Meldewesen. Die SurvNet Abragen bekommen auch ein eigenes Modul. Das Meldewesenmodul funktioniert über Kacheln, die Einträge aller Datensatzkategorien beinhalten. Die Kacheln lassen sich sortieren, filtern, durchsuchen und es gibt vordefinierte Ansichten. Man kann bei einer Kachel eine Flagge setzen mit der Aufgaben u.ä. verteilt werden. &lt;br&gt;&lt;/p&gt;" style="text;html=1;strokeColor=none;fillColor=none;spacing=5;spacingTop=-20;whiteSpace=wrap;overflow=hidden;rounded=0;shadow=0;glass=0;dashed=1;labelBackgroundColor=none;labelBorderColor=none;fontSize=10;fontColor=#000000;" vertex="1" parent="1">
          <mxGeometry x="140" y="90" width="310" height="150" as="geometry" />
        </mxCell>
        <mxCell id="fmiSZgB1ioxrz4cgV_8w-70" value="" style="rounded=0;whiteSpace=wrap;html=1;shadow=1;labelBackgroundColor=none;labelBorderColor=none;fontSize=19;fontColor=#000000;strokeColor=#FFFFFF;fillColor=#FFFFFF;" vertex="1" parent="1">
          <mxGeometry x="450" y="1600" width="830" height="767" as="geometry" />
        </mxCell>
        <mxCell id="fmiSZgB1ioxrz4cgV_8w-71" value="" style="shape=image;aspect=fixed;image=data:image/svg+xml,PHN2ZyB4bWxucz0iaHR0cDovL3d3dy53My5vcmcvMjAwMC9zdmciIHZpZXdCb3g9IjAgMCA1MTIgNTEyIj48cGF0aCBkPSJNMTYgMTI4aDQxNmM4Ljg0IDAgMTYtNy4xNiAxNi0xNlY0OGMwLTguODQtNy4xNi0xNi0xNi0xNkgxNkM3LjE2IDMyIDAgMzkuMTYgMCA0OHY2NGMwIDguODQgNy4xNiAxNiAxNiAxNnptNDgwIDgwSDgwYy04Ljg0IDAtMTYgNy4xNi0xNiAxNnY2NGMwIDguODQgNy4xNiAxNiAxNiAxNmg0MTZjOC44NCAwIDE2LTcuMTYgMTYtMTZ2LTY0YzAtOC44NC03LjE2LTE2LTE2LTE2em0tNjQgMTc2SDE2Yy04Ljg0IDAtMTYgNy4xNi0xNiAxNnY2NGMwIDguODQgNy4xNiAxNiAxNiAxNmg0MTZjOC44NCAwIDE2LTcuMTYgMTYtMTZ2LTY0YzAtOC44NC03LjE2LTE2LTE2LTE2eiIvPjwvc3ZnPg==;connectable=0;movable=1;verticalLabelPosition=bottom;resizable=1;rotatable=0;cloneable=0;deletable=1;recursiveResize=0;imageBackground=none;verticalAlign=top;rounded=1;shadow=1;labelBackgroundColor=none;labelBorderColor=none;fontSize=8;fontColor=#000000;strokeColor=#FFFFFF;fillColor=#FFFFFF;" vertex="1" parent="1">
          <mxGeometry x="1084" y="1614" width="16" height="16" as="geometry" />
        </mxCell>
        <mxCell id="fmiSZgB1ioxrz4cgV_8w-73" value="Meldewesen" style="text;html=1;strokeColor=none;fillColor=none;align=center;verticalAlign=middle;whiteSpace=wrap;rounded=0;shadow=1;labelBackgroundColor=none;labelBorderColor=none;fontSize=8;fontColor=#000000;" vertex="1" parent="1">
          <mxGeometry x="1100" y="1617" width="50" height="10" as="geometry" />
        </mxCell>
        <mxCell id="fmiSZgB1ioxrz4cgV_8w-74" value="" style="shape=image;verticalLabelPosition=bottom;labelBackgroundColor=default;verticalAlign=top;aspect=fixed;imageAspect=0;image=data:image/png,iVBORw0KGgoAAAANSUhEUgAAAJEAAABxCAYAAADVnEGhAAAgAElEQVR4nO2951dX59q2+/4De+yxH+nWaFRQsGHXGKPpK8laK4mF3u2dImAXld47SBUQpErvIChdRcWKisaukfr70eHYH+akWdZ61qsrxMg5xvzIgDnvY1zXPZn3eV7/hxGN6B31f4b7DxjRh68RiEb0zhqBaETvrBGIRvTOGoFoRO+sEYhG9M4agWiQent7kUjbaGhu4ffGFp68bOJZfTONLa20tnfQ1d0z3H/in1IfNUTd3d08e/acG7frKL50m+CCG1jGX0M75ArfepxnmVMZKx3P8b1rMf90O4OmZyEmfoWYhhRx6OQ5XBPLCc48T/yZarLLayivuc2Ne49okrQO9639ofqoIGpoaOTOvQdU1NwmsfQWrlm32J32EM1TT1gZdJ+lfndZ4n2bRZ43WeRxnQVuNcx3ucw8p2rmOlxA3a6S2bZlzDpawkybs8w4VITagQJU9+Whui+X6dbpTDdPRHVHJNu8U2iRtg33Lf8h+mggulH3iJyrT7HKbWRtfCPfnHjB8uAnfH78IcsCf+Mz/3ss9X07ROoO5wWIjr0Bov35TNuTjbJlOlPMkpi4NZrx60Nxiy0c7tv+Q/TRQBR5rpbTtb3szm9jS2YLRsmNaCX8zqqYZ/w98jHfhz3gq6B7rAi4yzKfWpZ63WCR+1UWuL5SifogOlyM2oF8VKwzmWKawCebTzDGyB8FHTfkNByRXXMMI7sTw33bf4g+GoiSz9+j6GEvefd7ybjby+naHmJvdBFZ005wtRSfyhZcSps5WtTEntx6TDNesOX0M4zjHqEd9Rurwu7wQ8AN5jtUonawkMk745mwMYwxBr4oarshr+GE7Fp7ZNfYI7vGDtk1dhgeCxvu2/5D9NFAFFNWR8GDXrLv95JR10vqnV6SaruJv9lJzPV2oq62E36lnaBLrQRcbMXvQis+Va14lEtxLpVgd7aF3VkvWel1BeXdaYzR9UBJyxVFTRcUNJyF6qPhiOxaBxEmB4zsIob7tv8QfTQQJZ+/KwB0r5fUu70k3e4h/mY3Mdc7ibzaTlhNO8GXWgmsFgDyrmrFvaIVlzIp9iVSjp6VYJ3XwJfeV5hqnsxoHTeUtNxQ1HJBQdMZOQ1nZDWdRJCEa53TqeG+7T9EHw1EUWV1IkA9JN3uIe5WD9E3uom41ikAdFkAyH8QQM79AEk5VCRhd44AkbJFCqN1PFDSdkdR2xUFLVfkNF2Q1XJGVtMZWQ0nZNc6sdU1Zrhv+w/RRwNRYmUdKXd7SewHqIeIa92E1XQSfLm9vwJ5VbXiVtGKU5kUOxGgw0VSDhS2YJ7dwErvGqZapDBaxxMlHXcUtd1Q0HJHTssVWS1XZDVdkNVwRnaNEzvcRirRX0pxFXUk3e4h9lYPJ2/2EHGth7Cr3QRf6STwUjt+F1vxOt+KW6UUp3IpdqVSjp6TcrhYyoEzEvYWtLArs4EVfRDpeqGk64GijgcKOu7Iabsjq+0mgKThguwaZ3Z6xA33bf8h+mggii67S2ytCND1PoC6CbzUie+FdjyrWnGtlOJYLlagIQBJsMxrYWt6A1941TB1dwqj9bxR0vVCUdcTBV0P5HQ8kNV2R1bLDVkNV2TXumDmmzzct/2H6KOBKK6ijpM3e4m43kN4P0Dd+F7sxON8O64VrTiWSbEvlXJsEEB7CiTszpNglt3CptQGlvdBpO+Dkp43inpeKOh6IafriayOB7Ja7shqCCBZ+I1A9JfSydK7RA4CKOBSNz4Xu/Go6sSloh3HslbsSqQcOyvlcJGE/WckWOcLAJlmS9iR2cL65AaWe9YwdXcqo/X9UNL3QVHfBwU9b+R0vZDV8URWywNZTXdkNd3ZH5gy3Lf9h+ijgSihoo7wqz39AHlf7MajqgvXik6cytqxL2kVN9ES9hcKAFnkDgC0Nb0Fk6QGPvesYerudEYb+KFk4Iuivi8K+j7I6Xkjq+OFrLancGl5ciA4fbhv+w/RRwNRbNldgq/04F/djfeFbtyrunCt6MKprBP7knaOnm3tB8iqrwLlSNiR1cKWjBY2pjVjkNjAMo8aplqmM9rQHyVDfxQN/FDQ90VOzwdZHW/xEmA6HJY93Lf9h+ijgSix/C7+l3rwutiN+/kuXCu7cCrvwr60k6Pn2jl8tpV9RRKsCiVY5EswzZWwPbuFLZktbEhvwSStGe3EBj7rg8goECXDABQN/VDQ90NOzw9ZXV9kdUWYdD05HJ4z3Lf9h+ijgSi+4i7e1T14nO/CtaoLp4ou7Mq6OFrSyaGz7ewrasXqjASLAgmmeRK257SwOauFDRktGKe1oJ/SjEZCPUs9aphqmcFo4yCUjAJRNPRHQd9fgKjv0vVGVs8Lu8iRSvSXUmLFXTwvduNa1YWjCNCRkk4Onu1kX1E7VoWtWBRI2DUIoPUZLRiJAOmcbmJNXB9EmQJExoEoGgaiYBCInH4AsvoByOr7Iavvg6yeD84xecN923+IPhqIkqvqcDvfjWNFF7blXdiUdnLwXCf7ijuxOtOORUEru/IkbOsDKLMFo3QRoORmNJOa+DW2nsXuYiUyCULJOAhFw+MoGBxHzuA4sgYByBr4IWvgi6yeL25xZ4b7tv8QfTQQpVTdxbGqWwCopJMD5zrZW9yJVWEn5gXt7MxrZVuOhE1ZLazLEAFKFQDSSGxmdUIT/4ipZ5H7VaZaZTLaJBgl42AUDYNRMAxGzjAIWcNAZA38BZBGIPrrKfX8XWwrurEpHQDI8kwn5gWd7MxrZ1tOK5uyJAJAaUMBWhXfzD9jm/jbyZcsdLvKVKssRq8LRck4BEWjEBSMQpAzehUiPzziRyD6Symp4i42ZV0DABV2Yp7fyc7cDrbmtLMxq5V1GZL+PZD2KwD9ENPEN5EvWdAPURhKxmEoGoW+ApHY0vT9CEkrGe7b/kP00UAUW3oH88JO9gwCaEduB1uyO9iY2c769NYBgE43szaxmV/jm/mHCND3J5v45sRLFrj+byASjskWX7yOpLWNjs6u4b79/6o+GoiKr9TxhWcNaxMk6JyWopfSin6qFMPUVoxSWzFMkaCX3PIaQD/GNPG3k018G9nEl2EvWeDydojkjI4jq++LjJY7CtruzNnsw/LdYfzzcDTr3ZI4GJpNQEopKWcvU1Fzm7pHz5C2dQz3o3ln/aUh6urq5sXLBs5fu4NFQCaTtp9C2SqT6fsLmHmkhDn2lSxwvcwSz+t87lvLysA6vg7+jW9CH/NN+DO+PfGC70685JvwBr4Mb2R58O/Mc64RNtZ9EBmHomAUhJyeL/LaHow18OHTjUFM3RKG8rYIlLdHobwjGpVdp1DZFYuKaRwqpnHMME9gtvkp5plH8eX+U+i4JLM7OBf3hHPEFl7iXE0ddx+/4HlDMz09vcP9KP+l/pIQPX3+gsqrtwnKv8HmmBv8EFTLIvdrzHWqZrZtGTMOFzFtXy7KVpl8ap7MJNNEPtkZxyc745lklsxUq0ym7S9A9cAZZhwuYfaxSuY6XGKuUw0zbM4xYXsco9eHoWgYiLyuN6P1PPjEyIfJGwKZsjGIKZtDmLol/HWITONQMYtHxTyRaRanhWt3CtMs01CxTEfFKgMV60yUd6cx1SwJ5R2nWGgVi6l/+p+6Yv0lIOru7ub57/VUXb9LUP5Vdqfc4+eIByz1Gewhu8p8lyvMc65mruNF1O2rmGNXIViAjpwTfGQHzzBtTw5TLFKYtDOeiTvimLAthvFbTjJuUyTjNkcJFcgkmAmbTjBlWxTTTWOYvku8TE8x3SwWVfME1CyTUbNKRc06FTXrNNSs01Hbk4Ha3qz+S3VvFqp7spi+J4vpe7KZtiebadZZqFhnoWyVyRTzFCZtj2X8+hCyK64N92N+qz5oiF7WN3Dx2h1SKu9im/sQvfinfBX8kKV+dSz1vcMS71oW/ycQHSpC7UAhqvvzmL43BxXrLFSsMphqkcrEbTHI6Xgir+vDZ963+Daqka9OvGRl2AtWhDxjefBjPj/+gGX+9/nMr46lPrdZ7HWLRR43WOh+lQWuV5jnfEn43Q5VzLEtZ/axUuF3Hy5G7eAZVA/ko7ovFxWrDCbvSmD8+lAUdTyRW21HctHF4X7cb9UHB1FnVxfXbt8ns+oOnsVP2ZbZwjcnnrM8SFzEgN+ERfyPICp5DaJpe3NQtkxn8q4EJmwIR0nPGzltD6aZxWNd1MXe4i525bWxPqMF7aQGfol5wQ8RT/g65AFfBN5jmd8dlniLELldZX4/RBeE3/0GiKbvzWGKaRLjN4SiqOuJ3FoHZFbZIvOLDVkll4b70b9VHxxEl2/dI/t2GzbnOvkhuoGVYc9ZEfL0PUF0BtX9BahYZfDpznjGrQ9BUddDXMxjjFrtwKStkfziX41fdSfHr4DPpV7czndjX9bBobNSrAtb2JndyIaUenTjXrAq6jE/hN7nq4DbLPO6ziLXK8x36nPTChCpHShgqkUKEzadQEnPCzkNJ8G/tsYemdV2yPx6lMLz14f70b9VHxxESRV3KXzQS+iVHo6ca2dXjgSTlAY0Yl/w98gnfBv6kBXH77PM/y5LfGpZ7PXvIZp55BxqBwsFeHbEMs7kOAo6buJCCm5WmVV2AkRbIphzMJcVrhUcKmzCu7oXj/M94tGSDuzL2sWjJW3sP9OKVUErZrlStmdJ2JjahFFiA9qnnvPLiYd84X2NmYeLmLQ1mtH63shriSZI0bcmu8YBmTUOjPrFhtLLt4b70b9VHx5ElYKTNed+L5l1vaTc7iX+Zg8RNZ0EXGjFpayZg4UNmGb9zrrTT9GKecTP4ff4LvA2K3xusNS9hoUul5jneB51uwpmHi5GxTKdT7fFMM44EEVtd+Q1nJBb6zDIzWqPzGp7Rq12ZOLmcGbvz2auTSGLHMrZfPoJLhU9OJV3YVfawdFz7RwqFgCyLmjFIq8V01wpO7KlbM2UsildwrrUFgyTm/gx9D4zDxYy1tAPBS0X5DWdkdMc6l2TWeOIzK9HOH/93nA/+rfqA4ToLnm/9ZJ1r5f0uwJEibd6iLvRTfS1TiJr2gm70krwpVb8L0jxrJTgVCrB5kwzVjn1bEt9gVH8E1ZH3GO5x2WmWWcxfl0wo3U8UNR0RUHTWYBIw2nAFr3GEZnVDoxa48jETeHM3peJ+uEC5h07y3yHSn4Nr8PmbAdHSjo4dLZNPJvUikVBK6Z5UnbkSNmaJWVjpoR16S0Ypragk9zE96H3mXGwgDEGvihouyKv5YqclovoXRP8azJrHBn1z8PU3Hkw3I/+rfrgIDpdKdih0+/2kiwCFHujh5PXuom42kHYFdEOfbEVv/N9blYpzuVSHEQnh02xBLOsen4IvIWKZTpj9LxFS7QrCpouyGu6iBXBaUhFGLXGiU82hjFrTzpzDuYy90gx8+3LWeB8ga/8b7Erp4m9xSJAhSJAuVK2ZgsAmaRLMEhrQTelGa2kJr4Lvo/agXwRInfktd2Q6/OuabqKEDkh88tRbv32dLgf/Vv1AUJ0h4x7AkAJtT2cutnDyes9RFztJuxKx2tuVvcKqWCHLpVie07KkWLBEm2e3cAPx2+hYiVCNMgS/VpFWOs8ANGGUGZapzL7QA7qNmeYZ1vKAsfzLHK9zDKfW+gn/c7uwlZM86Vsz5WyZQhAEnRThE8rGglNfBN0D7X9+Ywx9ENBxwP5PhOklnu/CVJmjTMyP9vw29Pfh/vRv1UfHESpVYIdOl4EKOp6DxFXewi70k3w5Q4Cq9vx7bdDC27WIQCdkbCvUMKuzAb+dvwWKlYZjNH3ES3R7oMqwlBbtMwaJ0atdWbChmBmWiUze1+W2NLOMd+hkoUu1SzyuMYS71r+GfWELdktbMmWsiFTgnG6BIPUvm9zLWgkNvNrfCNfBtWhuj+f0Yb+KOh6IK/rgZy2pwiR4F2TWeuCwho7Hj6vH+5H/1Z9cBBlXrhL/O0eTt0SK9C1HsJqegi+3E1gdUe/m9XtTRVIBMg6X8L2jAa+D7zFNOsMxhj4oqTriaKO56CK4CYspOZARRi11pkJ64OYsTuJWXszmHMwj7lH+1raRRa517DY6yZLfe/wZdB9DFIaMc4YBFBSC2sTWlgV38Q/TjXyRWAdqvvyGG0YgIKeF/K6XsjpeCGrLZogNd2Q0XBlnJYDj1+MQPTelH/pHtE3uoUKNAiggOpufC504FnVjmuFFCcx0UPYA0k5eEbCvgIJVnmCn2xzWiPfBd5imnUmYwz9BizROp5iRRhYyL6KMErDhfHrjqNmkcBM67TXWtpC1yss9rzOEp/bLPG5zVLvWn6JfoZeSgtaIkC/xjXzj1NN/BDdyDL/OqbvzWO0UQAK+t7I63kPgkgwQcpouvOJvivPXjYN96N/qz44iIpqfiPiaqfQwmp6COoHqBuPqg5cK9r7I2HeBJB5joRdWS1sTGnk24Bapu3JZIxhAEp6PijqCpZoeV1P5Aa7WTVckdFwZZSGK+NNAlE1j2OmVQqz92ehfriQuf0t7RKLPK6x2LuWJX2fPTxv8HXQfVbHN4kANfNDdBPfRjXwmd9dpu/NZbRxIAr6vsjr+SCn642stheyWoIJUkbLg6lGbryoH4Hovank+kNCqtsJvSIA1GdG9KjqxrWiA+eydgGgs1JsigSA9r4C0PbMFtafbhAhymaMUeAQS7S8rrcAkbbnkIogQBSAqukpZlieFlraoXzmHi1mXl9LcxNa2pJB384WuF3lM++b/BD1kh9imvjuZCPfRDSw1OeOCNFxFAz8kNfzRU53kAlS2wsZbU+mr/fi98aW4X70b9UHB1FV7RP8qyQcHwxQZTeuFd04lXVgX9IuAFQs6QfIMl+Cea6EXdktbBcdrcanG/gmoJZpe3MYY3xcsEQb+IoVwRs5cRH7bNEyWh6M0nRlvLE/03dFo2aRyMw9acw+mIv6kSLm2ZYy3/E8C10vs8jzuvDJZRBE810us8D1CiuDH/NNRCMrwxtY7H2HaXtyGG0chIKBP/L6fsjp+iKr49NvgpTR8WLWJm8amiXD/ejfqg8Oost1z/Eqb8avWvTTn+/GtbIb5/Iu7Ms6OFbSjs1ZKQeKJew5I8GyQIJ5voRduS1DHK0Gpxv4KqCW6XtzGGMSNMQSLa/nI0A0pCJ4MErLjXHGfkzbEYWaeTwzrVKZvT9bbGklAy3N/RqLvW4NgUj4ii98clnsfZsvQl6yyHMwRAHIDzFBCm5aGV1v5m4L+FMHrH9wEN169DuupQ14V3fjcaEb16punCq7sC/v4lhpBzbn2tlfLGVPkQTLwqEAbc4ccLRqJzXypf9tpu/NZey6ENES7Y+Cvh/yen5iW+mrCF7I6HgKEBn6Mm17BKpmscywTGbWvkyxpZ1lnn0FC5wvstCthkWeN98CkfAVf57TJea73UBlTw5KxsEoGAQirx8gmiD9BYj0fJHR82HRjgAkre3D/ejfqg8Ooron9TiX1ONxsRvX84MB6uLwuQ72n21nT5H0jQCtFwEySGlGK7FhAKL1oUMs0fJ93vp+f703MrpejNJyZ6yhDyrbwpm+Kwa13UnM3JPO7ANiS7MrG2hpHjeGQuRyeQhEwlGQMlSss1EyDkHBMBB5g0DkDPpsR4L1SEbPl8/MgpG2jUD03nT/6Uuczr0cAtDRsi4OlXSx/2wHe4rasSyUYp4vYWduC9uyW9iUOWCJNkhpRvd0M2vjG1jhf5vp+/IYuz5swBKtL7YVff9BFcEHGT0fRml5MNbAC+UtYUzfGY2aeQIzrVOZtT+bOYcLmWsrtLQFLpdY6H6NRZ7/BqKjpShbZaFkEoKCYRDyhkHIGR5H1jBgEER+rNwd/Kd2jHxwED183oBD0e8DAJX2AdTFnqIOLAvbMSuQsjOvha05Lf2O1r4KpJvcjFZiM6viGljud5vp+/IZuyEMJePjoiW6ryIMLKSsvi8yer6M0vJkrL4nyptDmLYjClWzOGZYJTNrXxZzDuWjLra0+YNa2gBEV94CUSZKJoJjRN4oeBBEwu+X0fND82gkvb1/3sP6HxxET+ubsSt8hl1FF0fKBgPUye7CDswK2oWPnjktbBwMUKoAkGZiM2sSmvnnqQY+97vD9P35jN0QLlqigwZVhAEPWV9bGaXlwRg9T6ZuDEJlWwTTTU+htvs0M/dmMPtgnviWJrS0Ba5XWORx4617oqGVKPwViAZ+t4yWB05hydT+9oQXDc1/Spg+OIjqm6Ucy3/SD9C+s11YF3Wyu7ATs/wOduS1syVHysasQXsg0RKtmdjM6oRmfolr5sfoBpb69kEUIVqig1EwCkbeSITI8BWItD0YrePGlA2BqGwNF1qa+Ko/a38Oc2zOMPdYCfMcKlngLLS0hf8WosxXIBqwY8toujHWyB/VnRGom0Wx0Cycr63DMXGOwzYim5PZZVRdu8uzl41IpG10D9M8tg8OopbWdo7kPuLgawCJjtacdjZmSfsBGhLKEN/Mz7HN/HSqie9Oiv/s21/A2I2RKBmHih6ykLdA5Mf/aLohu8aR8XrufLo+EOVtEUw3j2eGVYrQ0g4XDLQ0p4sscKthYf+pyjfviaZaDoYoBDmjYEZpe6Ko64nKrlimmycwzSyOabtiUd4Zg/KOaKZuj2LKtkgmbwlnkok/yuu8WWYayJrDJ7DwScIvsZCs0ktcv/vgDxmX9cFB1NbRxfaEu1gXd2J1RgDINL+T7bmdgiU6q531GdL+YCqd0wOe+p9jm/gppokfopv4LqKBpd53UD1QyNiNUSiZhL0C0UBbkdH3RUbbA0U9b2EgjK4n8louyGu7oqjnyTiTQD7dGoWKRTIz9uUw58hZ5jpUscDlcj9Eb6tEUy0zUDIJQ8EoFDn9QGQ0XZm8JQLV3adRtUgSIYp/HaKtkUzeeoLJm8P4dFMokzYEM2lDEJ+sC2SCsR8TjX2YbOSBqpELK3Z6sd4hkqiMc0ha3z9UHxxEPT296PieZVW8BO3TbRiktmKU3sa6jHbWZ7SzLr0NozQp+n3ndgaFMvwU08SPJ5v4W1QTX59oYKnX2yAS9yYGgcjoeKGk782nm0JQ3hYpmhFPorwjminbopi0+QQT1gczdtCnE0VDf8ZvimSKRRrTDxYx40gps20rUXc4L4y8EiGadbSUyeapKBmHMUrDnbFG/qhZnmaGVQqqlq9AZBqLSj9EJwdBFN4P0cT1QUxcF8gEkwAmGPkx3tCHcQbejNP3ZKyeB6O1nDF1j37va/LBQXTvaT0WgYJTdMaRc8x1rmaJ9y1WBN7n29DH/BD5nH+c/J2fY37n51P1/PNUA38/1cjfowWAvo9s4puIJlaGNbDY864A0aY3QKTvh5K+N5M2BAlu1q0nhkK0M1qoDLtOobwrFuVdcSibxqNsGs/UXXFM3BLFuHXBjDYKQNEgACXDQEavC2Xcpigm7khgyu50PjVLRsEwEDktd6aZxjNzTwYz96QxwyoFNctkASKLxEEQnXoFooh+iD7dfIIp2yL5dMsJJm0KZ+LGUCZuCGa8sR/j9L0Yo+uOwhp7Fmx0ee9r8kFA1NvbS8WN3/BIq8Yw/AorPC6ibluO6oF8plqmM2lXAp/siGWSaRJTrDNRPVTEbLsKFrjWsMS7luUB91h5/CFfBj1lZcgLvgh5yfLglyz0vD0EIiWTMBQMA1HU82aiSQBTN4cwdXMoylvCUd72OkQqO2NQ3hWLyq5YlE1FiMwSxCsRZbNEwQ5tdpoppglM2n6KCZsiUDI6zv/7zyP8Pz8dZPyGUOYePYv6kSLmHMpn1v5sZu7NQM0qFdXdpwdBFNcPkfL2k0zZFskUEaKpO2KYcbBA8M0dLBQmQe7NYZp1FlMtUhln4IPCKltkf7Vl2WbX974+f2qIGltayb14h0PxFzGKvsPKgDss9LgumAFdrjBfdJTOdTiPun2l4LHfk81ksyQ+2R7L+C3RjN9ykgnb45hsnorKnlzUDp9llm0V6k5XmG1/nskWqYzdGIGSSTBK+j5MMPZlyobjTN0UJEC0JQzlrX2++kiUtwutTHlnDCo7xZCGQVXoTRD1XVPEa7JpEuM2nkBO051lvndY7HaZhc4XWOB4nvkOlcy1LUX9SDGzD+Uzc38OansyULVMYbp5EiqmcSjvjBGq0bZIplumvNF8OX1vDspWGXy6Iw4lPS9kV9ki8+sxvjP1eO/r9KeDqLcXfm9sIan0Oo6ZNzCM/Y0vj99jsWhEfBNEg+ezzj5aysw+V+mBQqbvzWHq7jQ+3ZnAhC3RjN0Qzpj1oYzdGMG4zVGM2RDGmHUhTNocjsq2COGfiKaxqJrFoWoeL1wWiahaJKFmmSJUiCFXGqrW6ahapwuDhK3TmW6VxjSr9IGgBss0ppqfZop5MlPMTjNxSzRK+j58svUkCx0rUbc5I3x7sysT3uwcz7PA6QLzHM8z166COUdLmH24iJkH8lHbm42qdTrTdicz40B+/wZ9ps1ZZhzuq0R5qFhl8MnWaJT0fZFdK5ogV9nys5Xfe1+zPw1Evb293H3wlMyqWo5l3sUk6RnLA3/r99X/RxDZnO23JqsdKGD6vqHe+ikWKYzfeAJ5PR/Gb45iRdhzvops5MuIelaGv+CL0Gd8EfyEz4MeCo7aQUOG+/6Ggdf2Pmt0JXNsK5h9dMAaPePgGVQPFIj++kymmJ1m3LoQ5DWdkVl1jNF6Xsw5mIe6jXiwzb6cBY7nWeBSzULXKyxyvzpgw3a+xFyH88yxLWP2kbPMtilisfNF5jtUMce2bJAduxDl3alM2HQCBR2PQU5aB2RW2aFzKOi9r92wQ9Te3sGNuw84XVaLc9ELdBJ+Z0XwY5YFPmBZgDBm/H1ANG1vjjD01zyZSVujGWssHP9Qtyvn1wQp/4xt5ruoer4Kf/GKLVsIaFjiI/wNizxvCBC5vjLu3L5ySFUYCGkoYJp1FpN2nELJwFdY1NW2yKyyRVHHg9n7s4VTAH1nkhwqWeB0QfiI63510FTg4KUAABeaSURBVGmAvvsWfudyzxpM4h+jc/I+v4TU8rX3FebalqJimcG49cHIa7sJdqc+R+0aR2RW27PB/v0PNx5WiG7duU9y1T3szjajkdDAitBnfBHyhOVBj/i8H6L3U4kEf30C4zeEoaTrJQ78tWexfQkOFT24X+jFpqQL84I2TNKaWRP3Oz9GPuWrkIcsD7jX/zf8ZxAVomKZxviN4cKiilVBdrU9MqvsUdTxEI6SHMgVqpHY0uY7VrHAuZqFbldY5HGdRV6vB0Os9LnO1tQXbE5+xoakpxjFPeIL92om74pHQdtdmASp6SwM8Fvr1G/ANPN4/4P8hg2iuw8ek32zkR05bXwltpE3Q/RulWj6vlymmifzyeZIlAx8BGfraltkVh1DZpUt06zS0Iisw6e6G99L4HUR3M/34FTeyZFzbVgVtLA1oxGDxN9ZdfIJ34fcZ4X/bZZ6XmfhkKSPoRCpHchn8q54xhj5I6/pLFQEDdGavcYBmdX2KOl4CKcj94sfcI8UCZ9N7CuY73RBOA3gdrX/G9xC92v9ETVf+l5nS+oLNp5+hnHCE/ROPeIL90tM2nFKgEjLFdkh3jnBgHkgIPG9r+WwQZRWdYeC33rxrOrCIq8Vo5Qmfj31ku8inrEieGgr+Y8hOiIkfEyzEiL2xhgHIK/lMmTcuMxqW2RW2aGyO4VFzhf4Z1gdrpXdeJzvxa2yB+eKbhzKOrAtFQMaitvYWyDFPFfClvQmDBPrWXvyKT+G3OdL31ssdbuCul0Fs4+WMH1PFhO3RKKk6/lGN21fVRit7y18MtmbwewDOcw5XDBQjRwqWeB0kYWuV4RjJYMgmu98iW/8b7Ip5TkmCU/Ri32CZtRjlrlVM2l7rGB7esXyJBgwnbEPT3vvazl8EJ2/Q/Ej+sMZUu/0EnO9m4CL7didbcE8ux7DxGf8EvWIb4LvsdzvDku9B+8NXoeob4Opui+XKbsSGbcuGEUddzFp4/WABpnV9qiYJ7HAoYLFrpf5PriOo+c6cK7oxaGsG9tXAhr2FLZimd+KeV4rpjlSdmRJ2ZouZUNKM7pxL1nmeZXpe3MYbxKEko77UDetVl9rcRYgWuOAorYbM3YnCY7afVniJvsMc4+dY559ufCW5lLNQrcaFrpfFyES2ujXfjdZl/gc/dinaEU/YU3UY5a4VjNpexwKup7ID54E2eedW+uC16n3P7Rm2CBKP3+Xgge95N7vJatuwFufdKuHuBtdnLzWTujlNnwvSHEqbWZ/fgPbUp+jE/OIv4fWsdL3Jkvca1jgXC28tdhVMuNQEcoWqXyyMZwxet7CzHrNvnCG1wMaZFbbM9U0gfm2JSx0vsASj2t8E3yf/UUd2JV1c7S0g0Pn2thf3Ir1mVYsC1sxzxc99tlCSMPmDCkb0lowTmlhpe9NYdy5ridK/8JN29daFLXdUDNPEI7Z9lWjQwWoHylmrm0p8+wrxbZ2mYVuV1noPrAX+8rvJgbxz9E+9ZS1J5/wc+RjFrtcFCpRv+3pFe+chivBpwvf+1oOG0R51XXk3B9I9xgaztAlhjO0DYQziKPG3Sqk2JdIOFDYjFlWPeuTnvF9wC1mHTnHp9tPMdbAFyVtd5S0XFHom1nfF9cyJKDBAZnVDkzZGcvcI0X91Wip9y2+DH6AaV4rh0o62He2DeuiVizPtGJRIB0S0rA5S8L6DIn4sbeFL3xvMMX8tACRjgcK2h7Ia7/uphVaixMKmi6omsaitjtROCG5L1M4l2RzBvWj55hrV848hyrmO1ezQGxrC9wEiFb63kQn7jlrY57yy8nH/BTxiIVOFwSI9HxEN22f7WnATRubW/be13LYICq8fJ+Mu92kiQAl9AF0vYeIq11COMOltv50j35v/WBrtDiv3iDuCbMOFzPOKKB/Xr2SthsKWuLMei1XcWa9S39LkRGr0ZQdMagfymeeWI0We1zjM9+7rAh+xMbMZqyL2wYAyh8AaFM/QBL0U1vQTm5muY8IkZ4XSrpegptWxwM5HXehtWgODBkWIHIW7Efm8cywTBbOa4uv/OpHiphrK26yHS8w3/mScBpAbOUrfG+iEfuMX6Of8I/Ix/wt7CHzHS8wcXsciq/anrQER62MhivpZ99/9uOwQXTu2gNO13YOSfcYCGfoEsMZ2v5lOMPBIsHZapTwlFk2Zxlr6CfOq/fobycKQ9qJ66DcHydk1jgxeVuUEFp1pIgF9hUscr3MEu9bLAu4z/LjD9FPrseicBBAOVJxBogEo3QJ+qkSdJNb0E5qGgSRD0q63sLepM9Nqz14yLALo9YKOUh9/yFXs0hkRl81OpDLnMOFqB89y1zbMqEaOV0UvGsiRCv9brEq5in/iHrCDyce83XIQ+Y6nGfi9lgUDfyQ1/cZMEJqewm2p7UuFFa9/xTaYYOo6tYj4m+0EV/bQ8xggGp6CL7URcDFDnwvtAmjxl+pQIOt0db5EgwTnjHnaAljjQLEefUD7URBxx05HTdxZr1b/yuvzBoBpE+3RDBrT/pr1Wip7x2WBT7g84D7rI19LsTE5EjZ+CaATregkdjE5z43mGKezGh9X5T0vAfctLqD/fVuyGq4MUrDFfm1jqhsO8H0ndGomsczw/I0M/ekM2t/NrMP5TPHpgj1YyXMtatgnuN55jtXM9/1CvNdr/CF3y1+PvmEH0885tvQR3wR+IA59lVCJTLwR17fFzk90QipIxohNZyovHrnva/lsEFUfecxJ69KBwAaEs7Qhc+FDjyq2oaEM7wKkFWe4Gw1iH+O+rEyxhkHihB5oaQjtJOBmfV9m0xXMaDBGZm1zkzaFMYMy+T+ajTfQaxGXjf5zP9ef6TwP04+YUOWBJNMAaChUTFC0scy7xtMMRMhEgcMy/dNqhaHCwutRbBkK2g6o7wljGk7ooTz2haJ4it/JrMO5AjVSNxkz7WvZJ7jBeY7X2a+6xU+87rOTxGP+Tb0MSuCHrLM7zdm24kQDZ4Gqes7YITUcORa3aP3vpbDBtHlu085cUVK1PUeTrwWztAlhjO0DaR7iN76A33W6EHeeoP4F8y1K2ecSRCj9bxR0u1rJ14ovNpOxEogo+GCjIYrEzcEo2aRwKy96cx5QzX6zP+emEt9h29DH2CY1jIkKkYjsUU8dtvIUm+xEhn4oWTgh4LBKyEN2gMwjdJ0Q36tA1M3BQ9UI7M41CxPC2e292Ux+2A+c17ZZM8T29p8l0ss8bzGyqCHLA98yBLf35hlWyW0M8MAFPQDBmxP+n7I6vkwaq0Ddx8+fe+H/YcNohv3nxJWLRH3QK+EM1R24VregVNZ22sA7ckfCtD2zBb0418wz76C8etDxFbi099OFPS8BiqBdt/MejdkxOuT9ceFgAarZGbvzxGrUWV/NVrqVzfk29mXx++hc7oJrdMtrE1sYVV8Cz/HNfNTTCNLvG4yxTyF0YYBKBn6CyEN+q+ENIiTqkdpuiK/xp6pG44L1Wj70Go0c28Gsw7kMPtQAXOOFKN+rLS/rc1zrma+8yXmOVWz0LWGpf4PWOBzj5nHKsRKNNj6FCiAZOCHvJYTN+7co62t7b2CNGwQ1T54TvD5FkKv9HD8Ujd+F7vxPi+GM5R3ieEMbf3hDAfOSNjzlnAGvYSXzHesYvzGcEbr+6Gk74uSgdBOFPoqQd/M+r43FS0x+8fEX/DWWyT0p3zMsy1lgdMFFrlfY6nP7dc+wC7zreXXuEbx2G0zP51q5vvoRhZ73mSyWUr/pGoBIj9hb6I7ENIgq+PJKG035FfbMWW9f381mtZXjXafZoZ1GjP3ZTHrYB6zD59hztFzqNuWMde+inmOF5gnQjTX4TxznaqZ73WHmUfLmbg9HkWjoDeaIacYuXL56nXq6+tpb29/byANG0S/PX1JQHnDAEB98TCV3eKo8Q6OlbT9r8IZdBJessDpAhM2RTLawB+lQe1EgGjoW0pfyoeMtjvjjfxQ2RouVqMUZh/IEQM9K1joellMPrv72lf8pV43+fHkS3461czfxLyhxZ43mWyewmij4ygZBbwhpEGcVK3rxf9ouSO36hiTTXyYuiFQrEaRTN91ClWLhIFqtD9bqEY2xagfK0HdrlwE52I/ROr2lcyxr2KmzTk+2R43yPo02Azph+Zeb2quXuXp06dIpVJ6et6PxWjYIHpW34RXyQt8L3XjdXFQOENFF/ZlXRwt7eDwubZ/Hc6QLtiCNONfstD5IhM2RzHa0B8l8VIQUz4G3lIGWoqMticyOh6MN/Bm6qZgsRolMnNvBnMOFwyqRlfF5LPXv+IvdKvh6/DnfBfVxDcRDSz2ECEyPo6SUeAbQhqEvYmsng//o+WB3K9H+dTIi8l91WjrCabtPMl0szjUdicxwzqVmfsymXUgl9mHC5lz5Czqx0pRt69grsMF5joNdY/MtDnLJ9vjURp8VtzoOLIGfny20Z7TaRlcFSFqbW398CtRQ7MUt+InA+keorfers8afa6D/cVt7DkjHVKBtvWFM6QPeOs14utZ5HKJT7ZGC62kv50IKR/9bym6vgO5P7peyOh4MU7PgynrA8RqFNtfjdSPFDPPXoiKWex1QwitesNRkPkul1lx/DFfhzew0F2EyCQIJaOgofuSwZOq9X35Hy0P/r+f9jHJwJ3JJj5MEfdGKn3VSJxUNGNPOjP3ZzPrYD6zbYr625q6fRVzHS8MgqhCrETxKBkLFiR5o2DkDQJYvs6G0BNRFBcXc/v2berr6+ns7HxvazlsELW2d+JS+HBIuscAQH3hDG3sfkM4w7r0oeEMq+PqWeR6mYnbY/urQF87UXi1negJexMZPW9kdLwZo+vGp8Y+YjU6KVajTOGL+qBqtNi79u3niRwvstT3PgvcBIiUTIJRMgpGwfD4wL5kiLffD6VfDzHvRwMm/m0TY9ce4xN9dyavD0B5a3h/NVLdncQMq1Rm7hWr0aFCZtsUM+dYCep2Fag7VA1AZFfBTJuzTNgWN+Bc0ffnK5P9BAYFkZ2dTU1NDc+fP3+v+yEYRoi6e3pxyqvD9Xw3jiJAR/oB6sK6qIPdhW2Y5Q+EM/R56/sA0jktWKN/iW1gkdsVJu2IZ7RxMErGx1EyEt5QFAz62onYUvR9kdX3QUbPFxkdH8ZouzDJwEOwRm87IeQOWaUOqkYVLHC5xCLPG//+UJr9BRGiEAGivn2J0eCQBj/GaTugvckMS0tLdpnvZvU6U5brmKG6ejeT1h5ivK4Lk9YFMnV7FNPNE1CzSmPmPrEaHT7DnCNnmXOsDHU7wcum7nB+AKLtIkT6fvx94378/APIzMzk8uXLPH/+nI6O9z98b1hPNjpm38Wxsgvb1wASwxny29iRK3kNoMHO1tXxzfwjpoFF7leZtCtJnFcvthPxVXegnQxUAhk9X2R0fVHSdGKinguTTXyZujmEaTtPotYXMSxWo/lOF1jofrU/yPNtEM0+Vsan5ikomYS+vi8R/fXTtA+y2dQaOzs73N3d8fPzIzAwkMDAQPz8/bFzcmPH3qOs2ryPJfr7UNY+wgQDTyZtjmCqaSKqe7KYeaiQ2UdKmGNbjrp9Fer24imGw8WM33qKMfo+rN66n+DgEHJzc7lx4wb19fV0df134mmGFSLX3DsCQGVdb/DWd7Ajt01MpB8K0KvO1h+iG1jkfo1PzZIZvS4YJeO+diK86vaHJLwS0CCj4438z/sZu/booGoUIUbGpDLrQO7QauRx499DZJYieNiMwwZBFISivg9fGO3h4GEbPD09CQsLIzY2lpSUFDIzM8nNzSUvL4/CwkIKCwvJy8sjNS2NyKiTOLl7s9n6KH/fasNCYzummXgyeXMEU8ySmL4vn5k255hhc47JFmlMMPJmg9UxYk6dory8nAcPHrzXTfSbNKwQeeXfwWYwQEO89R1szm4Thqr8C4B+jGni+6gGFrlfZ7J5KqPXhaJkPNBOFMRFHAqRPzJ6PkxdbYWGwTpm/LQehR/MGa1hzyfGfkzdFoGqRSIz92UOrUZuV/8vIAphnJ4bmtv24eTkTEhICPHx8WRlZVFcXExlZSXV1dVcvXqVGzduUFtby507d6irq+u/bt++TU1NDSUlJaSlp3M8NJxDjh4Y7rbj603HmGniyuR1AagZOmJ5zJ3snBxu3rxJY2Mj3d3d//V1HFaIfPLucKikux8giwIBoG25nWzO7mBjZhvr0qUYpbWg1zevPmHouPEfTjbxXUQji91vMmV3mjijdaCdDIVIaGvy2i58rmOGhaU1NjY22NnZcfjIUTaaWvGTiQXqWpZM1rJhgqE3U7bHoLonizlHS5jnVC2crPx3EPWPOw9mhoE9lgeOcvz4cRITE8nPz6e8vJyamhpu377NgwcPePLkCc+fP+fly5c0NDTQ3NxMS0sLUqmU1tZWWltbaWtro62tDalUSmNjI0+ePKG2tpaKigqys7NJS0vj3Llz3L59m8bGxv9a63qThhUit7TLWBcJ6R4WBZ3syhMA2pLdycbMDiGcIVUiJtILAP0SJwD0kwjQ95FNfB3eyCL3W0y1zGT0uvBBlSB0EETCG9JkzcPobd2Nnb09Xl5eBAUFERERQUxMDHFxccTHxxMdE4N/YBAHbF3Q3XmIFSaHUDNyYsrmMKZZZzPjSAlz7IV/+A38r2YoRKONjvP1xiM4u3sRHx9PYWEhFy9epLa2locPH/LixQsaGxuRSCS0trbS0dFBZ2cn3d3d9PT00NPTQ29v779sQ729vfT09NDZ2dn/s8MRgjWsEGUWlfP50VxWRz7C8HQTm7La2ZzdyabMDtald2CY2oZusgStpBbW9AF0qkkIZ4gSATrRxMrQBhZ61KJslfUGiITMn9EGPny9/iCHbI7i4+NDZGQkSUlJZGRkkJeXR1FREaWlpVRWVnLhwgUuXbrEpUuXqKyspKCggNi4ONy8/dhxwJFfdjqwaJMb0zYFMnlnHCrW2ageOIPqgUI+2ZnAJEMvjCwdiI6Opri4mOvXr/Po0SPq6+uRSCS0t7fT1dXVD8qHrmGF6N69exxyD+KHvaEstIpnnk0hS12q+T74PquiX6KZ0IJGooTVCS38EtfMz6ea+IcYD/NdZBNfRTSxMryRFaENLPS8g4p1DqPXD4VI0TiEGUZObLGywdvbm5MnT5KamkphYSHl5eVUV1dz7do1amtrqaur48GDBzx+/Jhnz57x4sULXr58SX19Pb///juPHz/m1q1bVFRUkJGRSXB4BAcdPdGzsGfFJgdmb/Rm4UYXbN39yC8o4Pbt27x8+ZK2tja6urr+EsC8ScMKUU9PDw0NDdy6dYucvHzcgqLYeDSQr8wDmGUawfQ9Gcy1r2CZ902+CX0kjDWIbuLbk018FdnEyojGfogWed5FZW/uEIgmmBznp622OLu5Ex0dTVZWFiUlJVy6dIna2lru37/PkydPePHiBfX19TQ1NdHS0kJrayvt7e10dHTQ1dU1pMX09PTQ3d1NW1sbjY2NPHr0iGvXrlFSUkJeXh6lpaXU1dXR3Nz8h2xq/wwadht1n3p6emhra+P58+fU1NSQnpWNs18oRvvdWb7dC9XNx1E2S2TG4bPMdb3KYv/f+Dz4OV+E1bP8+Avmu9/qh2jchhPM2+SF9TEXomNiyM/PH7Ifef78OY2Njf3A9MHyv9mHvEl9e5M+2P6qFedt+tNANFi9vb10dXXR0tLCgwcPqKys5FR8IjbO3miY2rLI2JZPjX2YtDOeaQeKmHG0CjWbEiaZJTNpczgalq6EhEdQVFTEtWvXePjwIS9fvqS5uZm2trYhG9iPbcH/G/pTQvSqent76ezspKmpibq6OsrKyzkVG8chB3fW7jzCkvW2zNvgxne73HH0DqakRGgp9fX1tLa20tnZOQLMf1EfBESvqqenh9bWVp4/f861a9coKioiPz+fiooKHjx4gFQqHbbX3Y9RHyREr6q7u7t/TzOiP15/CYhGNLwagWhE76wRiEb0zhqBaETvrBGIRvTOGoFoRO+sEYhG9M4agWhE76wRiEb0zhqBaETvrBGIRvTOGoFoRO+sEYhG9M4agWhE76wRiEb0zhqBaETvrBGIRvTO+v8BsJegh+7IDR0AAAAASUVORK5CYII=;" vertex="1" parent="1">
          <mxGeometry x="480" y="1614" width="34.65" height="27" as="geometry" />
        </mxCell>
        <mxCell id="fmiSZgB1ioxrz4cgV_8w-75" value="SurvNet@RKI 5.0" style="text;html=1;strokeColor=none;fillColor=none;align=left;verticalAlign=middle;whiteSpace=wrap;rounded=0;shadow=1;labelBackgroundColor=none;labelBorderColor=none;fontSize=10;fontColor=#000000;fontStyle=1" vertex="1" parent="1">
          <mxGeometry x="520" y="1622.5" width="110" height="10" as="geometry" />
        </mxCell>
        <mxCell id="fmiSZgB1ioxrz4cgV_8w-77" value="Hier werden die Algorithmen angezeigt" style="rounded=0;whiteSpace=wrap;html=1;shadow=1;labelBackgroundColor=none;labelBorderColor=none;fontSize=10;fontColor=#333333;strokeColor=#666666;fillColor=#f5f5f5;" vertex="1" parent="1">
          <mxGeometry x="1010" y="1464" width="102" height="56" as="geometry" />
        </mxCell>
        <mxCell id="fmiSZgB1ioxrz4cgV_8w-80" value="" style="rounded=0;whiteSpace=wrap;html=1;shadow=0;labelBackgroundColor=none;labelBorderColor=none;fontSize=10;strokeColor=none;fillColor=#CCE5FF;fontColor=#ffffff;" vertex="1" parent="1">
          <mxGeometry x="450" y="1750" width="830" height="60" as="geometry" />
        </mxCell>
        <mxCell id="fmiSZgB1ioxrz4cgV_8w-81" value="CVD-2022-4523" style="rounded=0;whiteSpace=wrap;html=1;shadow=0;labelBackgroundColor=none;labelBorderColor=none;fontSize=14;align=left;spacingLeft=9;fillColor=none;strokeColor=none;fontColor=#000000;" vertex="1" parent="1">
          <mxGeometry x="670" y="1770" width="230" height="20" as="geometry" />
        </mxCell>
        <mxCell id="fmiSZgB1ioxrz4cgV_8w-93" style="edgeStyle=orthogonalEdgeStyle;rounded=1;orthogonalLoop=1;jettySize=auto;html=1;exitX=0.5;exitY=1;exitDx=0;exitDy=0;entryX=0.75;entryY=0;entryDx=0;entryDy=0;fontSize=10;fontColor=#E6E6E6;" edge="1" parent="1" source="fmiSZgB1ioxrz4cgV_8w-94" target="fmiSZgB1ioxrz4cgV_8w-143">
          <mxGeometry relative="1" as="geometry">
            <mxPoint x="885.5" y="1757.5000000000002" as="targetPoint" />
          </mxGeometry>
        </mxCell>
        <mxCell id="fmiSZgB1ioxrz4cgV_8w-94" value="Hier kann man den Bearbeitungsstatus umstellen. " style="rounded=0;whiteSpace=wrap;html=1;shadow=1;labelBackgroundColor=none;labelBorderColor=none;fontSize=10;fontColor=#333333;strokeColor=#666666;fillColor=#f5f5f5;" vertex="1" parent="1">
          <mxGeometry x="810" y="1488" width="130" height="52" as="geometry" />
        </mxCell>
        <mxCell id="fmiSZgB1ioxrz4cgV_8w-95" style="edgeStyle=orthogonalEdgeStyle;rounded=1;orthogonalLoop=1;jettySize=auto;html=1;fontSize=10;fontColor=#E6E6E6;" edge="1" parent="1" source="fmiSZgB1ioxrz4cgV_8w-96">
          <mxGeometry relative="1" as="geometry">
            <mxPoint x="650" y="1780" as="targetPoint" />
          </mxGeometry>
        </mxCell>
        <mxCell id="fmiSZgB1ioxrz4cgV_8w-96" value="Die Suche sucht nach quer durch den ganzen Bereich. Man kann Sie aber auch wie z.B. in Outlook, Google oder bei Pubmed einschränken mit z.B. Type:CVD oder &quot;Street:Teichstr&quot; oder &quot;Flagge: Demis&quot;" style="rounded=0;whiteSpace=wrap;html=1;shadow=1;labelBackgroundColor=none;labelBorderColor=none;fontSize=10;fontColor=#333333;strokeColor=#666666;fillColor=#f5f5f5;" vertex="1" parent="1">
          <mxGeometry x="220" y="1622.5" width="120" height="160" as="geometry" />
        </mxCell>
        <mxCell id="fmiSZgB1ioxrz4cgV_8w-97" style="edgeStyle=orthogonalEdgeStyle;rounded=1;orthogonalLoop=1;jettySize=auto;html=1;exitX=0;exitY=0.5;exitDx=0;exitDy=0;fontSize=10;fontColor=#000000;entryX=0.585;entryY=-0.032;entryDx=0;entryDy=0;entryPerimeter=0;" edge="1" parent="1" source="fmiSZgB1ioxrz4cgV_8w-98" target="fmiSZgB1ioxrz4cgV_8w-153">
          <mxGeometry relative="1" as="geometry">
            <mxPoint x="1071" y="1785.75" as="targetPoint" />
          </mxGeometry>
        </mxCell>
        <mxCell id="fmiSZgB1ioxrz4cgV_8w-98" value="Externe Seiten, die Hilfestellungen anbieten werden verlinkt" style="rounded=0;whiteSpace=wrap;html=1;shadow=1;labelBackgroundColor=none;labelBorderColor=none;fontSize=10;fontColor=#333333;strokeColor=#666666;fillColor=#f5f5f5;" vertex="1" parent="1">
          <mxGeometry x="1350" y="1662" width="100" height="61" as="geometry" />
        </mxCell>
        <mxCell id="fmiSZgB1ioxrz4cgV_8w-129" value="" style="group" vertex="1" connectable="0" parent="1">
          <mxGeometry x="1197" y="1615.5" width="63" height="13" as="geometry" />
        </mxCell>
        <mxCell id="fmiSZgB1ioxrz4cgV_8w-130" value="Schumacher" style="text;html=1;strokeColor=none;fillColor=none;align=center;verticalAlign=middle;whiteSpace=wrap;rounded=0;shadow=1;labelBackgroundColor=none;labelBorderColor=none;fontSize=8;fontColor=#000000;" vertex="1" parent="fmiSZgB1ioxrz4cgV_8w-129">
          <mxGeometry x="13" y="3" width="50" height="10" as="geometry" />
        </mxCell>
        <mxCell id="fmiSZgB1ioxrz4cgV_8w-131" value="" style="shape=image;aspect=fixed;image=data:image/svg+xml,PHN2ZyB4bWxucz0iaHR0cDovL3d3dy53My5vcmcvMjAwMC9zdmciIHZpZXdCb3g9IjAgMCA1MTIgNTEyIj48cGF0aCBkPSJNMjU2IDI4OGM3OS41IDAgMTQ0LTY0LjUgMTQ0LTE0NFMzMzUuNSAwIDI1NiAwIDExMiA2NC41IDExMiAxNDRzNjQuNSAxNDQgMTQ0IDE0NHptMTI4IDMyaC01NS4xYy0yMi4yIDEwLjItNDYuOSAxNi03Mi45IDE2cy01MC42LTUuOC03Mi45LTE2SDEyOEM1Ny4zIDMyMCAwIDM3Ny4zIDAgNDQ4djE2YzAgMjYuNSAyMS41IDQ4IDQ4IDQ4aDQxNmMyNi41IDAgNDgtMjEuNSA0OC00OHYtMTZjMC03MC43LTU3LjMtMTI4LTEyOC0xMjh6Ii8+PC9zdmc+;connectable=0;movable=1;verticalLabelPosition=bottom;resizable=1;rotatable=0;cloneable=0;deletable=1;recursiveResize=0;imageBackground=none;verticalAlign=top;rounded=1;shadow=1;labelBackgroundColor=none;labelBorderColor=none;fontSize=8;fontColor=#000000;strokeColor=#FFFFFF;fillColor=#FFFFFF;" vertex="1" parent="fmiSZgB1ioxrz4cgV_8w-129">
          <mxGeometry width="13" height="13" as="geometry" />
        </mxCell>
        <mxCell id="fmiSZgB1ioxrz4cgV_8w-132" value="&lt;h1&gt;Ansicht eines Falles&lt;br&gt;&lt;/h1&gt;&lt;p&gt;Das ist die Ansicht die man als Startseite von SurvNet bekommt. Es gibt verschiedene Module, z.B. für das Meldewesen. Die SurvNet Abragen bekommen auch ein eigenes Modul. Das Meldewesenmodul funktioniert über Kacheln, die Einträge aller Datensatzkategorien beinhalten. Die Kacheln lassen sich sortieren, filtern, durchsuchen und es gibt vordefinierte Ansichten. Man kann bei einer Kachel eine Flagge setzen mit der Aufgaben u.ä. verteilt werden. &lt;br&gt;&lt;/p&gt;" style="text;html=1;strokeColor=none;fillColor=none;spacing=5;spacingTop=-20;whiteSpace=wrap;overflow=hidden;rounded=0;shadow=0;glass=0;dashed=1;labelBackgroundColor=none;labelBorderColor=none;fontSize=10;fontColor=#000000;" vertex="1" parent="1">
          <mxGeometry x="150" y="1280" width="310" height="150" as="geometry" />
        </mxCell>
        <mxCell id="fmiSZgB1ioxrz4cgV_8w-137" value="" style="group" vertex="1" connectable="0" parent="1">
          <mxGeometry x="851" y="1775" width="151" height="10" as="geometry" />
        </mxCell>
        <mxCell id="fmiSZgB1ioxrz4cgV_8w-86" value="" style="shape=image;aspect=fixed;image=data:image/svg+xml,PHN2ZyB4bWxucz0iaHR0cDovL3d3dy53My5vcmcvMjAwMC9zdmciIHZpZXdCb3g9IjAgMCA1MTIgNTEyIj48cGF0aCBkPSJNMjU2IDhDMTE5LjA0MyA4IDggMTE5LjA4MyA4IDI1NmMwIDEzNi45OTcgMTExLjA0MyAyNDggMjQ4IDI0OHMyNDgtMTExLjAwMyAyNDgtMjQ4QzUwNCAxMTkuMDgzIDM5Mi45NTcgOCAyNTYgOHptMCAxMTBjMjMuMTk2IDAgNDIgMTguODA0IDQyIDQycy0xOC44MDQgNDItNDIgNDItNDItMTguODA0LTQyLTQyIDE4LjgwNC00MiA0Mi00MnptNTYgMjU0YzAgNi42MjctNS4zNzMgMTItMTIgMTJoLTg4Yy02LjYyNyAwLTEyLTUuMzczLTEyLTEydi0yNGMwLTYuNjI3IDUuMzczLTEyIDEyLTEyaDEydi02NGgtMTJjLTYuNjI3IDAtMTItNS4zNzMtMTItMTJ2LTI0YzAtNi42MjcgNS4zNzMtMTIgMTItMTJoNjRjNi42MjcgMCAxMiA1LjM3MyAxMiAxMnYxMDBoMTJjNi42MjcgMCAxMiA1LjM3MyAxMiAxMnYyNHoiLz48L3N2Zz4=;connectable=0;movable=1;verticalLabelPosition=bottom;resizable=1;rotatable=0;cloneable=0;deletable=1;recursiveResize=0;imageBackground=none;verticalAlign=top;rounded=1;shadow=0;labelBackgroundColor=none;labelBorderColor=none;fontSize=10;fontColor=#E6E6E6;strokeColor=#FFFFFF;fillColor=#CCE5FF;" vertex="1" parent="fmiSZgB1ioxrz4cgV_8w-137">
          <mxGeometry x="145" y="2" width="6" height="6" as="geometry" />
        </mxCell>
        <mxCell id="fmiSZgB1ioxrz4cgV_8w-135" value="Referenzdefinition erfüllt, wird übermittelt" style="rounded=0;whiteSpace=wrap;html=1;shadow=0;labelBackgroundColor=none;labelBorderColor=none;fontSize=8;align=left;spacingLeft=0;fillColor=none;strokeColor=none;fontColor=#000000;" vertex="1" parent="fmiSZgB1ioxrz4cgV_8w-137">
          <mxGeometry width="151" height="10" as="geometry" />
        </mxCell>
        <mxCell id="fmiSZgB1ioxrz4cgV_8w-138" value="" style="group" vertex="1" connectable="0" parent="1">
          <mxGeometry x="851" y="1787" width="151" height="10" as="geometry" />
        </mxCell>
        <mxCell id="fmiSZgB1ioxrz4cgV_8w-140" value="Alogrithmen zeigen keine Auffälligkeit " style="rounded=0;whiteSpace=wrap;html=1;shadow=0;labelBackgroundColor=none;labelBorderColor=none;fontSize=8;align=left;spacingLeft=0;fillColor=none;strokeColor=none;fontColor=#000000;" vertex="1" parent="fmiSZgB1ioxrz4cgV_8w-138">
          <mxGeometry width="138" height="10" as="geometry" />
        </mxCell>
        <mxCell id="fmiSZgB1ioxrz4cgV_8w-139" value="" style="shape=image;aspect=fixed;image=data:image/svg+xml,PHN2ZyB4bWxucz0iaHR0cDovL3d3dy53My5vcmcvMjAwMC9zdmciIHZpZXdCb3g9IjAgMCA1MTIgNTEyIj48cGF0aCBkPSJNMjU2IDhDMTE5LjA0MyA4IDggMTE5LjA4MyA4IDI1NmMwIDEzNi45OTcgMTExLjA0MyAyNDggMjQ4IDI0OHMyNDgtMTExLjAwMyAyNDgtMjQ4QzUwNCAxMTkuMDgzIDM5Mi45NTcgOCAyNTYgOHptMCAxMTBjMjMuMTk2IDAgNDIgMTguODA0IDQyIDQycy0xOC44MDQgNDItNDIgNDItNDItMTguODA0LTQyLTQyIDE4LjgwNC00MiA0Mi00MnptNTYgMjU0YzAgNi42MjctNS4zNzMgMTItMTIgMTJoLTg4Yy02LjYyNyAwLTEyLTUuMzczLTEyLTEydi0yNGMwLTYuNjI3IDUuMzczLTEyIDEyLTEyaDEydi02NGgtMTJjLTYuNjI3IDAtMTItNS4zNzMtMTItMTJ2LTI0YzAtNi42MjcgNS4zNzMtMTIgMTItMTJoNjRjNi42MjcgMCAxMiA1LjM3MyAxMiAxMnYxMDBoMTJjNi42MjcgMCAxMiA1LjM3MyAxMiAxMnYyNHoiLz48L3N2Zz4=;connectable=0;movable=1;verticalLabelPosition=bottom;resizable=1;rotatable=0;cloneable=0;deletable=1;recursiveResize=0;imageBackground=none;verticalAlign=top;rounded=1;shadow=0;labelBackgroundColor=none;labelBorderColor=none;fontSize=10;fontColor=#E6E6E6;strokeColor=#FFFFFF;fillColor=#CCE5FF;" vertex="1" parent="fmiSZgB1ioxrz4cgV_8w-138">
          <mxGeometry x="132" y="2" width="6" height="6" as="geometry" />
        </mxCell>
        <mxCell id="fmiSZgB1ioxrz4cgV_8w-141" value="" style="group;verticalAlign=middle;" vertex="1" connectable="0" parent="1">
          <mxGeometry x="851" y="1762" width="151" height="13.5" as="geometry" />
        </mxCell>
        <mxCell id="fmiSZgB1ioxrz4cgV_8w-143" value="Bearbeitungsstatus" style="rounded=0;whiteSpace=wrap;html=1;shadow=0;labelBackgroundColor=none;labelBorderColor=none;fontSize=8;align=left;spacingLeft=0;fillColor=none;strokeColor=none;fontColor=#000000;" vertex="1" parent="fmiSZgB1ioxrz4cgV_8w-141">
          <mxGeometry width="143" height="10" as="geometry" />
        </mxCell>
        <mxCell id="fmiSZgB1ioxrz4cgV_8w-148" value="&lt;font style=&quot;font-size: 6px;&quot;&gt;Auf Wiedervorlage&lt;br&gt;&lt;/font&gt;" style="rounded=1;whiteSpace=wrap;html=1;shadow=0;glass=0;labelBackgroundColor=none;labelBorderColor=none;fontSize=8;fontColor=#808080;strokeColor=#000000;strokeWidth=1;fillColor=default;verticalAlign=bottom;spacing=0;" vertex="1" parent="fmiSZgB1ioxrz4cgV_8w-141">
          <mxGeometry x="71.5" y="1" width="73.5" height="9" as="geometry" />
        </mxCell>
        <mxCell id="fmiSZgB1ioxrz4cgV_8w-150" value="" style="shape=image;aspect=fixed;image=data:image/svg+xml,PHN2ZyB4bWxucz0iaHR0cDovL3d3dy53My5vcmcvMjAwMC9zdmciIHZpZXdCb3g9IjAgMCA0NDggNTEyIj48cGF0aCBkPSJNMjA3LjAyOSAzODEuNDc2TDEyLjY4NiAxODcuMTMyYy05LjM3My05LjM3My05LjM3My0yNC41NjkgMC0zMy45NDFsMjIuNjY3LTIyLjY2N2M5LjM1Ny05LjM1NyAyNC41MjItOS4zNzUgMzMuOTAxLS4wNEwyMjQgMjg0LjUwNWwxNTQuNzQ1LTE1NC4wMjFjOS4zNzktOS4zMzUgMjQuNTQ0LTkuMzE3IDMzLjkwMS4wNGwyMi42NjcgMjIuNjY3YzkuMzczIDkuMzczIDkuMzczIDI0LjU2OSAwIDMzLjk0MUwyNDAuOTcxIDM4MS40NzZjLTkuMzczIDkuMzcyLTI0LjU2OSA5LjM3Mi0zMy45NDIgMHoiLz48L3N2Zz4=;connectable=0;movable=1;verticalLabelPosition=bottom;resizable=1;rotatable=0;cloneable=0;deletable=1;recursiveResize=0;imageBackground=none;verticalAlign=top;rounded=0;shadow=0;glass=0;labelBackgroundColor=none;labelBorderColor=none;fontSize=6;fontColor=#808080;strokeColor=#000000;strokeWidth=1;fillColor=default;" vertex="1" parent="fmiSZgB1ioxrz4cgV_8w-141">
          <mxGeometry x="137" y="2.5" width="6" height="6" as="geometry" />
        </mxCell>
        <mxCell id="fmiSZgB1ioxrz4cgV_8w-153" value="&lt;div style=&quot;font-size: 6px;&quot;&gt;Schulung der AÖGW zu CVD&lt;/div&gt;&lt;div style=&quot;font-size: 6px;&quot;&gt;Falldefinitionen des RKI&lt;/div&gt;&lt;div style=&quot;font-size: 6px;&quot;&gt;Ratgeber des RK&lt;/div&gt;&lt;div style=&quot;font-size: 6px;&quot;&gt;Fallhelfer/Visualisierung&lt;br&gt;&lt;/div&gt;&lt;div style=&quot;font-size: 6px;&quot;&gt;Interne DienstanweisungenI&lt;br style=&quot;font-size: 6px;&quot;&gt;&lt;/div&gt;" style="rounded=0;whiteSpace=wrap;html=1;shadow=0;labelBackgroundColor=none;labelBorderColor=none;fontSize=6;align=right;spacingLeft=0;fillColor=none;strokeColor=none;fontColor=#000000;" vertex="1" parent="1">
          <mxGeometry x="1175" y="1762" width="88" height="30" as="geometry" />
        </mxCell>
        <mxCell id="fmiSZgB1ioxrz4cgV_8w-157" value="" style="shape=image;aspect=fixed;image=data:image/svg+xml,PHN2ZyB4bWxucz0iaHR0cDovL3d3dy53My5vcmcvMjAwMC9zdmciIHZpZXdCb3g9IjAgMCA1NzYgNTEyIj48cGF0aCBkPSJNNTY4LjQ4MiAxNzcuNDQ4TDQyNC40NzkgMzEzLjQzM0M0MDkuMyAzMjcuNzY4IDM4NCAzMTcuMTQgMzg0IDI5NS45ODV2LTcxLjk2M2MtMTQ0LjU3NS45Ny0yMDUuNTY2IDM1LjExMy0xNjQuNzc1IDE3MS4zNTMgNC40ODMgMTQuOTczLTEyLjg0NiAyNi41NjctMjUuMDA2IDE3LjMzQzE1NS4yNTIgMzgzLjEwNSAxMjAgMzI2LjQ4OCAxMjAgMjY5LjMzOWMwLTE0My45MzcgMTE3LjU5OS0xNzIuNSAyNjQtMTczLjMxMlYyNC4wMTJjMC0yMS4xNzQgMjUuMzE3LTMxLjc2OCA0MC40NzktMTcuNDQ4bDE0NC4wMDMgMTM1Ljk4OGMxMC4wMiA5LjQ2MyAxMC4wMjggMjUuNDI1IDAgMzQuODk2ek0zODQgMzc5LjEyOFY0NDhINjRWMTI4aDUwLjkxNmExMS45OSAxMS45OSAwIDAgMCA4LjY0OC0zLjY5M2MxNC45NTMtMTUuNTY4IDMyLjIzNy0yNy44OSA1MS4wMTQtMzcuNjc2QzE4NS43MDggODAuODMgMTgxLjU4NCA2NCAxNjkuMDMzIDY0SDQ4QzIxLjQ5IDY0IDAgODUuNDkgMCAxMTJ2MzUyYzAgMjYuNTEgMjEuNDkgNDggNDggNDhoMzUyYzI2LjUxIDAgNDgtMjEuNDkgNDgtNDh2LTg4LjgwNmMwLTguMjg4LTguMTk3LTE0LjA2Ni0xNi4wMTEtMTEuMzAyYTcxLjgzIDcxLjgzIDAgMCAxLTM0LjE4OSAzLjM3N2MtNy4yNy0xLjA0Ni0xMy44IDQuNTE0LTEzLjggMTEuODU5eiIvPjwvc3ZnPg==;connectable=0;movable=1;verticalLabelPosition=bottom;resizable=1;rotatable=0;cloneable=0;deletable=1;recursiveResize=0;imageBackground=none;verticalAlign=top;rounded=0;shadow=0;glass=0;labelBackgroundColor=none;labelBorderColor=none;fontSize=6;fontColor=#808080;strokeColor=#000000;strokeWidth=1;fillColor=default;" vertex="1" parent="1">
          <mxGeometry x="1263" y="1760.25" width="7" height="7" as="geometry" />
        </mxCell>
        <mxCell id="fmiSZgB1ioxrz4cgV_8w-158" value="" style="shape=image;aspect=fixed;image=data:image/svg+xml,PHN2ZyB4bWxucz0iaHR0cDovL3d3dy53My5vcmcvMjAwMC9zdmciIHZpZXdCb3g9IjAgMCA1NzYgNTEyIj48cGF0aCBkPSJNNTY4LjQ4MiAxNzcuNDQ4TDQyNC40NzkgMzEzLjQzM0M0MDkuMyAzMjcuNzY4IDM4NCAzMTcuMTQgMzg0IDI5NS45ODV2LTcxLjk2M2MtMTQ0LjU3NS45Ny0yMDUuNTY2IDM1LjExMy0xNjQuNzc1IDE3MS4zNTMgNC40ODMgMTQuOTczLTEyLjg0NiAyNi41NjctMjUuMDA2IDE3LjMzQzE1NS4yNTIgMzgzLjEwNSAxMjAgMzI2LjQ4OCAxMjAgMjY5LjMzOWMwLTE0My45MzcgMTE3LjU5OS0xNzIuNSAyNjQtMTczLjMxMlYyNC4wMTJjMC0yMS4xNzQgMjUuMzE3LTMxLjc2OCA0MC40NzktMTcuNDQ4bDE0NC4wMDMgMTM1Ljk4OGMxMC4wMiA5LjQ2MyAxMC4wMjggMjUuNDI1IDAgMzQuODk2ek0zODQgMzc5LjEyOFY0NDhINjRWMTI4aDUwLjkxNmExMS45OSAxMS45OSAwIDAgMCA4LjY0OC0zLjY5M2MxNC45NTMtMTUuNTY4IDMyLjIzNy0yNy44OSA1MS4wMTQtMzcuNjc2QzE4NS43MDggODAuODMgMTgxLjU4NCA2NCAxNjkuMDMzIDY0SDQ4QzIxLjQ5IDY0IDAgODUuNDkgMCAxMTJ2MzUyYzAgMjYuNTEgMjEuNDkgNDggNDggNDhoMzUyYzI2LjUxIDAgNDgtMjEuNDkgNDgtNDh2LTg4LjgwNmMwLTguMjg4LTguMTk3LTE0LjA2Ni0xNi4wMTEtMTEuMzAyYTcxLjgzIDcxLjgzIDAgMCAxLTM0LjE4OSAzLjM3N2MtNy4yNy0xLjA0Ni0xMy44IDQuNTE0LTEzLjggMTEuODU5eiIvPjwvc3ZnPg==;connectable=0;movable=1;verticalLabelPosition=bottom;resizable=1;rotatable=0;cloneable=0;deletable=1;recursiveResize=0;imageBackground=none;verticalAlign=top;rounded=0;shadow=0;glass=0;labelBackgroundColor=none;labelBorderColor=none;fontSize=6;fontColor=#808080;strokeColor=#000000;strokeWidth=1;fillColor=default;" vertex="1" parent="1">
          <mxGeometry x="1263" y="1767.75" width="7" height="7" as="geometry" />
        </mxCell>
        <mxCell id="fmiSZgB1ioxrz4cgV_8w-159" value="" style="shape=image;aspect=fixed;image=data:image/svg+xml,PHN2ZyB4bWxucz0iaHR0cDovL3d3dy53My5vcmcvMjAwMC9zdmciIHZpZXdCb3g9IjAgMCA1NzYgNTEyIj48cGF0aCBkPSJNNTY4LjQ4MiAxNzcuNDQ4TDQyNC40NzkgMzEzLjQzM0M0MDkuMyAzMjcuNzY4IDM4NCAzMTcuMTQgMzg0IDI5NS45ODV2LTcxLjk2M2MtMTQ0LjU3NS45Ny0yMDUuNTY2IDM1LjExMy0xNjQuNzc1IDE3MS4zNTMgNC40ODMgMTQuOTczLTEyLjg0NiAyNi41NjctMjUuMDA2IDE3LjMzQzE1NS4yNTIgMzgzLjEwNSAxMjAgMzI2LjQ4OCAxMjAgMjY5LjMzOWMwLTE0My45MzcgMTE3LjU5OS0xNzIuNSAyNjQtMTczLjMxMlYyNC4wMTJjMC0yMS4xNzQgMjUuMzE3LTMxLjc2OCA0MC40NzktMTcuNDQ4bDE0NC4wMDMgMTM1Ljk4OGMxMC4wMiA5LjQ2MyAxMC4wMjggMjUuNDI1IDAgMzQuODk2ek0zODQgMzc5LjEyOFY0NDhINjRWMTI4aDUwLjkxNmExMS45OSAxMS45OSAwIDAgMCA4LjY0OC0zLjY5M2MxNC45NTMtMTUuNTY4IDMyLjIzNy0yNy44OSA1MS4wMTQtMzcuNjc2QzE4NS43MDggODAuODMgMTgxLjU4NCA2NCAxNjkuMDMzIDY0SDQ4QzIxLjQ5IDY0IDAgODUuNDkgMCAxMTJ2MzUyYzAgMjYuNTEgMjEuNDkgNDggNDggNDhoMzUyYzI2LjUxIDAgNDgtMjEuNDkgNDgtNDh2LTg4LjgwNmMwLTguMjg4LTguMTk3LTE0LjA2Ni0xNi4wMTEtMTEuMzAyYTcxLjgzIDcxLjgzIDAgMCAxLTM0LjE4OSAzLjM3N2MtNy4yNy0xLjA0Ni0xMy44IDQuNTE0LTEzLjggMTEuODU5eiIvPjwvc3ZnPg==;connectable=0;movable=1;verticalLabelPosition=bottom;resizable=1;rotatable=0;cloneable=0;deletable=1;recursiveResize=0;imageBackground=none;verticalAlign=top;rounded=0;shadow=0;glass=0;labelBackgroundColor=none;labelBorderColor=none;fontSize=6;fontColor=#808080;strokeColor=#000000;strokeWidth=1;fillColor=default;" vertex="1" parent="1">
          <mxGeometry x="1263" y="1774.75" width="7" height="7" as="geometry" />
        </mxCell>
        <mxCell id="fmiSZgB1ioxrz4cgV_8w-160" value="" style="shape=image;aspect=fixed;image=data:image/svg+xml,PHN2ZyB4bWxucz0iaHR0cDovL3d3dy53My5vcmcvMjAwMC9zdmciIHZpZXdCb3g9IjAgMCA1NzYgNTEyIj48cGF0aCBkPSJNNTY4LjQ4MiAxNzcuNDQ4TDQyNC40NzkgMzEzLjQzM0M0MDkuMyAzMjcuNzY4IDM4NCAzMTcuMTQgMzg0IDI5NS45ODV2LTcxLjk2M2MtMTQ0LjU3NS45Ny0yMDUuNTY2IDM1LjExMy0xNjQuNzc1IDE3MS4zNTMgNC40ODMgMTQuOTczLTEyLjg0NiAyNi41NjctMjUuMDA2IDE3LjMzQzE1NS4yNTIgMzgzLjEwNSAxMjAgMzI2LjQ4OCAxMjAgMjY5LjMzOWMwLTE0My45MzcgMTE3LjU5OS0xNzIuNSAyNjQtMTczLjMxMlYyNC4wMTJjMC0yMS4xNzQgMjUuMzE3LTMxLjc2OCA0MC40NzktMTcuNDQ4bDE0NC4wMDMgMTM1Ljk4OGMxMC4wMiA5LjQ2MyAxMC4wMjggMjUuNDI1IDAgMzQuODk2ek0zODQgMzc5LjEyOFY0NDhINjRWMTI4aDUwLjkxNmExMS45OSAxMS45OSAwIDAgMCA4LjY0OC0zLjY5M2MxNC45NTMtMTUuNTY4IDMyLjIzNy0yNy44OSA1MS4wMTQtMzcuNjc2QzE4NS43MDggODAuODMgMTgxLjU4NCA2NCAxNjkuMDMzIDY0SDQ4QzIxLjQ5IDY0IDAgODUuNDkgMCAxMTJ2MzUyYzAgMjYuNTEgMjEuNDkgNDggNDggNDhoMzUyYzI2LjUxIDAgNDgtMjEuNDkgNDgtNDh2LTg4LjgwNmMwLTguMjg4LTguMTk3LTE0LjA2Ni0xNi4wMTEtMTEuMzAyYTcxLjgzIDcxLjgzIDAgMCAxLTM0LjE4OSAzLjM3N2MtNy4yNy0xLjA0Ni0xMy44IDQuNTE0LTEzLjggMTEuODU5eiIvPjwvc3ZnPg==;connectable=0;movable=1;verticalLabelPosition=bottom;resizable=1;rotatable=0;cloneable=0;deletable=1;recursiveResize=0;imageBackground=none;verticalAlign=top;rounded=0;shadow=0;glass=0;labelBackgroundColor=none;labelBorderColor=none;fontSize=6;fontColor=#808080;strokeColor=#000000;strokeWidth=1;fillColor=default;" vertex="1" parent="1">
          <mxGeometry x="1263" y="1782.25" width="7" height="7" as="geometry" />
        </mxCell>
        <mxCell id="fmiSZgB1ioxrz4cgV_8w-162" value="" style="shape=image;aspect=fixed;image=data:image/svg+xml,PHN2ZyB4bWxucz0iaHR0cDovL3d3dy53My5vcmcvMjAwMC9zdmciIHZpZXdCb3g9IjAgMCA1NzYgNTEyIj48cGF0aCBkPSJNNTY4LjQ4MiAxNzcuNDQ4TDQyNC40NzkgMzEzLjQzM0M0MDkuMyAzMjcuNzY4IDM4NCAzMTcuMTQgMzg0IDI5NS45ODV2LTcxLjk2M2MtMTQ0LjU3NS45Ny0yMDUuNTY2IDM1LjExMy0xNjQuNzc1IDE3MS4zNTMgNC40ODMgMTQuOTczLTEyLjg0NiAyNi41NjctMjUuMDA2IDE3LjMzQzE1NS4yNTIgMzgzLjEwNSAxMjAgMzI2LjQ4OCAxMjAgMjY5LjMzOWMwLTE0My45MzcgMTE3LjU5OS0xNzIuNSAyNjQtMTczLjMxMlYyNC4wMTJjMC0yMS4xNzQgMjUuMzE3LTMxLjc2OCA0MC40NzktMTcuNDQ4bDE0NC4wMDMgMTM1Ljk4OGMxMC4wMiA5LjQ2MyAxMC4wMjggMjUuNDI1IDAgMzQuODk2ek0zODQgMzc5LjEyOFY0NDhINjRWMTI4aDUwLjkxNmExMS45OSAxMS45OSAwIDAgMCA4LjY0OC0zLjY5M2MxNC45NTMtMTUuNTY4IDMyLjIzNy0yNy44OSA1MS4wMTQtMzcuNjc2QzE4NS43MDggODAuODMgMTgxLjU4NCA2NCAxNjkuMDMzIDY0SDQ4QzIxLjQ5IDY0IDAgODUuNDkgMCAxMTJ2MzUyYzAgMjYuNTEgMjEuNDkgNDggNDggNDhoMzUyYzI2LjUxIDAgNDgtMjEuNDkgNDgtNDh2LTg4LjgwNmMwLTguMjg4LTguMTk3LTE0LjA2Ni0xNi4wMTEtMTEuMzAyYTcxLjgzIDcxLjgzIDAgMCAxLTM0LjE4OSAzLjM3N2MtNy4yNy0xLjA0Ni0xMy44IDQuNTE0LTEzLjggMTEuODU5eiIvPjwvc3ZnPg==;connectable=0;movable=1;verticalLabelPosition=bottom;resizable=1;rotatable=0;cloneable=0;deletable=1;recursiveResize=0;imageBackground=none;verticalAlign=top;rounded=0;shadow=0;glass=0;labelBackgroundColor=none;labelBorderColor=none;fontSize=6;fontColor=#808080;strokeColor=#000000;strokeWidth=1;fillColor=default;" vertex="1" parent="1">
          <mxGeometry x="1263" y="1789.25" width="7" height="7" as="geometry" />
        </mxCell>
        <mxCell id="fmiSZgB1ioxrz4cgV_8w-164" style="edgeStyle=orthogonalEdgeStyle;rounded=1;orthogonalLoop=1;jettySize=auto;html=1;exitX=0;exitY=0.5;exitDx=0;exitDy=0;fontSize=6;fontColor=#808080;" edge="1" parent="1" source="fmiSZgB1ioxrz4cgV_8w-163">
          <mxGeometry relative="1" as="geometry">
            <mxPoint x="1271.8000000000002" y="1787.1999999999998" as="targetPoint" />
          </mxGeometry>
        </mxCell>
        <mxCell id="fmiSZgB1ioxrz4cgV_8w-163" value="Ein Fallhelfer ist das was z.B. das Ester-Team ester.frauenhofer.de entwickelt oder der Object-Graph" style="rounded=0;whiteSpace=wrap;html=1;shadow=1;labelBackgroundColor=none;labelBorderColor=none;fontSize=10;fontColor=#333333;strokeColor=#666666;fillColor=#f5f5f5;" vertex="1" parent="1">
          <mxGeometry x="1358" y="1744" width="112" height="78" as="geometry" />
        </mxCell>
        <mxCell id="fmiSZgB1ioxrz4cgV_8w-166" style="edgeStyle=orthogonalEdgeStyle;rounded=1;orthogonalLoop=1;jettySize=auto;html=1;exitX=0;exitY=0.5;exitDx=0;exitDy=0;fontSize=6;fontColor=#808080;" edge="1" parent="1" source="fmiSZgB1ioxrz4cgV_8w-165">
          <mxGeometry relative="1" as="geometry">
            <mxPoint x="1229" y="1797.1999999999998" as="targetPoint" />
          </mxGeometry>
        </mxCell>
        <mxCell id="fmiSZgB1ioxrz4cgV_8w-165" value="Jedes Amt hat die Möglichkeit interne Dienstanweisungen bereit zu stellen" style="rounded=0;whiteSpace=wrap;html=1;shadow=1;labelBackgroundColor=none;labelBorderColor=none;fontSize=10;fontColor=#333333;strokeColor=#666666;fillColor=#f5f5f5;" vertex="1" parent="1">
          <mxGeometry x="1304" y="1832" width="112" height="78" as="geometry" />
        </mxCell>
        <mxCell id="fmiSZgB1ioxrz4cgV_8w-76" style="edgeStyle=orthogonalEdgeStyle;rounded=1;orthogonalLoop=1;jettySize=auto;html=1;exitX=0.5;exitY=1;exitDx=0;exitDy=0;entryX=1;entryY=0.5;entryDx=0;entryDy=0;fontSize=10;fontColor=#000000;" edge="1" parent="1" source="fmiSZgB1ioxrz4cgV_8w-77" target="fmiSZgB1ioxrz4cgV_8w-140">
          <mxGeometry relative="1" as="geometry" />
        </mxCell>
        <mxCell id="fmiSZgB1ioxrz4cgV_8w-169" value="+" style="ellipse;whiteSpace=wrap;html=1;aspect=fixed;rounded=0;shadow=0;glass=0;labelBackgroundColor=none;labelBorderColor=none;fontSize=19;fontColor=#FFFFFF;strokeColor=none;strokeWidth=1;fillColor=#0066CC;" vertex="1" parent="1">
          <mxGeometry x="1118" y="1819" width="32" height="32" as="geometry" />
        </mxCell>
        <mxCell id="fmiSZgB1ioxrz4cgV_8w-175" value="" style="group" vertex="1" connectable="0" parent="1">
          <mxGeometry x="545" y="1852" width="614" height="131" as="geometry" />
        </mxCell>
        <mxCell id="fmiSZgB1ioxrz4cgV_8w-173" value="" style="group" vertex="1" connectable="0" parent="fmiSZgB1ioxrz4cgV_8w-175">
          <mxGeometry y="8" width="614" height="123" as="geometry" />
        </mxCell>
        <mxCell id="fmiSZgB1ioxrz4cgV_8w-170" value="" style="rounded=1;whiteSpace=wrap;html=1;shadow=0;glass=0;labelBackgroundColor=none;labelBorderColor=none;fontSize=19;fontColor=#333333;strokeColor=#666666;strokeWidth=1;fillColor=none;" vertex="1" parent="fmiSZgB1ioxrz4cgV_8w-173">
          <mxGeometry width="614" height="123" as="geometry" />
        </mxCell>
        <mxCell id="fmiSZgB1ioxrz4cgV_8w-171" value="" style="shape=image;verticalLabelPosition=bottom;labelBackgroundColor=default;verticalAlign=top;aspect=fixed;imageAspect=0;image=data:image/png,iVBORw0KGgoAAAANSUhEUgAAATsAAAB/CAYAAACQYmUJAAAYJ0lEQVR4nO2dX3AT173H9wH6UvLUyZSHPjVJ8XSmdZi0HT2kM5k6btpBccK/Sy5wGcqlTuK2xAEbJygm5N66DslACMQ0Teu4CbVpwNghmCQ4CSkuGOHEtjAWxjIy2LJs+Z8kS7EQ+M/3PnDPcvZoJa3WYi3Zv8/Mb0bac/ac34o5H87Rynsk+zU3CON4seoCejy+2U6DINKS/pExbDtk1XWuRLIzlsqmvtlOgSDSGr1jiGRnMFUa/qEqKirufiIEkaZoGUNqkOwM5vDX8T9vSZIMyIQg0hMtY0gNkp3B/JNkRxAzQssYUoNkp4LD4YDJZEr4vPr6euTl5cWs80Fzf9x2SHYEER0tY0iNeSs7SZJUQ5Scw+HQLB8tsjvSQrIjiJmgZQypMW9lx6ivr485i0u27I62DsRth2RHENHRMobUINmpyI5fxppMJtVZHz8brK+vl9viZVdWVhbRdrWNZEcQIkVFRaorraKiooi6WsaQGiS7OLJTm9mZTCZZcMAdOWmR3bGLnrg5keyI+YbX60Vubq5CdLm5ufB6vRF1tYwhNUh2OmSn9j+Qw+HQtIytIdkRhCrBYBAPP/wwJElCRkYGhoeHVetpGUNqkOx0ys7hcKi2FU92tW2DcXMi2RHzlYGBATzyyCPo6uqKWkfLGFKDZKdzGSsuV1lb8ZaxH14i2RHETNAyhtQg2cWRHQDk5eXFvEHBjmuR3fH2obg5kewIIjpaxpAa8152RvORnWRHEDNByxhSg2RnMCcuq3/pykOyI4joaBlDapDsDKZO5z8UQRC30TuGSHYG82nnCMZvTsx2GgSRloRuTeLklRFd55LsDOaKJ4hPO0fw8RUKCopE45POUdjcY7rGHsmOIIh5AcnOQHpdbpw4WY+jx05QUFDojI9OnIKjqzvh8UeyM5Cvmy8hFLox22kQRFpz40YY1iZbwueR7Ayk16Xv90EEQSjRM5ZIdgbS20eyI4hkoGcskewMpLePfmNHEMlAz1gi2RkIyY4gkgPJLsXpdZPsCCIZ6BlLKSc7l8uFxYsXw+NRPqCvoqICmzdvnqWskkOvW98vvwmCUKJnLKWc7AAgOzsbJ0+ejHss3SDZEURymDOyE2dx4myvsLBQfpbcvn375HrZ2dnys+cWL16MlpYWLF68GGvWrJHrM2H6fD7cd9998vGlS5cq+uc32lm6dCkaGhrk93xuYju8kCsqKhTtkuwIIjqJbLozZ2Qnyo2XnygQfsaXnZ0dIUleQA0NDYpzeQoLC2VxqvXB2hVz4/v3+XwwmUyKvBWy6yfZEUQ0Etl0R89YSknZAbflw0uso6Mj4jigFKG41BXF5HK5ImZw/AfLy46Xpii0++67Dx0dHRGzOhYsVxFX/+iMPxeCmMto3XRHz1hKWdk1NDRg8+bNEYJKluwaGhoilsZ6ZRdNbiKuAZIdQcRDy6Y7esZSysqOLQlLSkoU38vFW8YmIjuxnURlx8r4utXV1VGXsSQ7gkgOc0p2wJ0bEeLMKdYNikSWsdnZ2YpNc/TILt6NDpIdQSSfOSe7uYZrIPKLVoIgEkfPWCLZGYjLQ7IjiGSgZyyR7AyEZEcQyYFkl+K4B/2YnJqa7TQIIq2ZnJqCy+NL+DySnYEEx8PoG/LDNeijoKCYQfiDoYTHH8nOQGgPCgqKmQftQZEG0B4UBDFzaA+KNID2oCCI5EB7UKQ4tAcFQSQH2oMixaHHshNEcqDHsqc4JDuCSA5pKzuLxYLjx4/HfD0XoD0oCCI53NU9KJYtWxbx3La7IaK5JjgeelIxQSSHu/qk4mXLlhkiIZIdQRDxmBXZ8TO+e++9F/39/QCAQ4cOKfZx+OEPf4jGxkb5/YYNG+Q2tC5j+b5ef/11ALcf9Hfvvfdi7dq1ETPOWGWBQAA/+MEPFPkxEsldbIfP99ChQ4p2SXYEEZ2U2YNCXMbyg5hx6NAhWQTiQF+2bJlcxiTExKhFdhaLRRYca6+trQ0DAwMKyTQ2Nsr9xioT4dtPJHf+P4FAIACTyaQQvkJ2tAcFQUQlZfagiDaz42c8/KyHF594PpsNtbW1AdAmu2jfGYryGRgYUMguWhnLkW+Pl52W3MVZHQt2XSK0BwVBxCYl9qBQkx2bObHBLc7ski07NdnqlV1jY2PE7FKv7KLJTYSeVEwQ8Zn1PSiiyU4Uxt2SncViUczKGhsb5WWsXtmJS9VEZcfK+Lo1NTVRl7EkO4JIDobLDrgtIX4fh7slO9aGeDNkJstYvj2TyaRLdvFudJDsCCL50B4UKQ7tQUEQyYH2oEhx6LHsBJEc6LHsKQ7JjiCSA8kuxaE9KAhi5tAeFGkA7UFBQZGcoD0oCIIgokCyM5Aetwe73/4HBQXFDOLk6UZd449kZyBXnD2o/uRLTE9PU1DMoQAmJicxfiMsR8V77+PNtw7izbcOYt+B6PHGgYN440DZ7divjL37y7D/rYPwDA3L7bZ3dqP8SJ2u8UeyM5CW9k7YHYlvAUcQ6YZl5y68XH4Su97/EjvfO42X/v4Fdrz7OV5893MU/e0z7P7gHD5rceLAhxfw/NunsOXgp/hD2Sf43Vsf49n9H+OZ/Sfx230nUPjCDoyO3vkBcY/bg3+e+FxXTiQ7A2m1O+Ds6Z/tNAjirrMl/3kUH7HhpWN27DjajheOtGP7Py+h4HAbnq+8iMvuAAAgdHMSf3ivFb8t/xr//devsPGdJmx4+wLW/9mK/yw7j99vyUcodOdmRI/bgw/qvtCVE8nOQFrtDnT3zh/ZZWVloa5OfcmRlZUFu91ucEaEUTz9bB4KD30ty+25Qzb8/r1W5P29Bc+824xzjtuPaBocC8tyW1t2HmsONGL1/nNYse8sntx7Fr99+lmMj4/L7fb2D+LIydO6ciLZGUjr5S5ZdmfOnIl4NNTevXs1teN0OvGtb30L4XD4bqarGafTCZPJhImJCSxatEjOi2Q3f9mc+yw2vbgHm4rfwm9eOoCNlgPYYNmP/9qxH+tffBMbdhzAn/5ag00v/xlrtr+B/yh8A6sL3sCqbXuxYtteLN+6B08+vwfrN2zE0NCdbRNvy+5LXTndNdlVV1dj+fLld6VtLfh8Ptxzzz3o7e2dtRxEbILsHnroIUxMTMjlWVlZEcfUSDXZRYNkN39Zv349dry0Ey+/8r8zilWrVskP8gBuy+7ox//SlZMm2a1Zs0YxA/ne974X95xkym7NmjU4fPhwQudolV1zc7Om60kGtstX0e0aAKAuO0ApiIKCAsXnzuSQlZUlH2NtiPJYtGiR/H7RokWKx8zX1dUp2ogmnYKCAjkXMV/WPhMva2vTpk2Ka8nLy4taJubL5wfckTrfRjR5EqmF2WyGPxDE1NT0jGLlylUIBoNyu67+IVR/ckZXTjFlFwqF8KMf/Qi7du1SHC8pKYkrH5JdJBc7ruJaHNkVFBSoLmf5+mozu3iy46XFCy5afwBQXl4uC4qJlwmOLVtFeFlnZWUpBMfnxOcrzgDZUphdZzThEqmL2WyGbyyIyampGUWE7AaGcOzTuyA7LcLy+XyK2UdTU5N8Lj+b4MVTXV2tEGhJSYn8vqSkRPE/Of+atS/2yUTI5KzWJz87ZcfF+suXL0coFILJZJLP46XJ6vPXdfjwYUXb7PrZdfIivdjhTEh24qxpJrJjr8V+eaGJ8FL7+c9/jr/85S/Yu3cvzpw5oxCkOAPlZcdLTBQcn5/4/SU/a2TXGUuyRGphNpvh9QcwMTmpiNNffgmvzye/r62tRdnBg3J89vnnivqqsjvVoCunmLLjJaQGG/xsgPt8PnlwiwO9pKREFmc82YkzLXFmx78PhUJ499135eOsnVgzO17i4sxOi+xY383NzQrBiZ9XhOyuOHHN5QGgbRkrzsiMlh1rt76+Hnv37pVl89xzz8l5lZeXK9oTZ3ZaZae2lCbZpS9msxmjvjHcujWBW7cm0N19DRaLBZmZmejp6ZGPb9q0CRaLBefPW3H+vBUOR5dcduvWhIrshlFz6t+6ckpIdvwM5vDhwxEzLH7WJM4KeanEk50oWFF2JSUlkCRJUS+WpFj/fJ4zkR2Tm3huvJlw25XumLKLtezjpRJNdtGWqjORHb98Zf1IkiT3LZ7PC1qr7MTrLi8vVyxjSXbph9lsxuCIV/7Lhxd37MDR6mPIzMzE1e5r8vGNv/kNdr3yCj45dQrXenoVf4UxfiMcIbu+gWHU1p/VlZOuZSyTj9bZE5Bc2fF9aFl+MinzS+zZkN0lxzX09A8C0PbTk/LycsVj43lJMQmxY3x7mzZtStrMTq2+KGl+GWoymRKWndhGNKmT7NIHs9mMPs8Q/IFv5Lji6EJmZiauOLrkY0UvvIjf/f4PKH11Nx7NzsYrr/yP4pwI2XlGcPyL87py0nWDgslHrbysrAxA5MDnl5h8mdhGPNmFQiE8+uijchkvHL5ec3OzQna8lPkltZrseKFVV1frlp24jO281oe+Qdo7lpj7mM1mXOvtx9CoT45L9g5kZmbikr1DcZzFR3Uf46c//Sn6BjzysRUrVipk5xnx4bPzNl056frpCT+gxaUs/71ctHP4GwP33HMPNm7cGFN2/BK0qalJXsaKNwX4XEwmU4Tg+DJRxNFyz8vLS5rsHNfd6B+iTXeIuY/ZbIbjmgtuz7AcLRfbkZmZiZaL7YrjLD44egxPPPGk4pgou8ERH05fuKgrJ/oLCgO52tNPsiPmBWazGXZHN7pd/XJYm1uRmZkJa3OrfOylnS9jw8aNKNhehMdznsDf/v6e4hxRdkOjPpxp0rZPswjJzkCcvf0YGKZ9KIi5j9lsRmt7Jzqu9shhd3SjofEr2B3diuMNjV/h5KkvFMdYLF++Qik7rx///vqSrpxIdgbS7RqAh2RHzAPMZjOabJdxsePqjEKU3bDXj3Mt+v7MkGRnINf7POhxe2Y7DYK46+Tl5WFb4Xa8sKN4RpGT84RCdiO+MVhbL+vKiWRnIANDozj+2Vk4e/vR0z9IQTE3wj2I9s5uNF3skONsUytqP/p4xvHFv88r2v38bDPOfkXf2aU8N29NwDM8SkFBMYMYC3yja/yR7Ayk1+XGiZP1OHrsBAUFhc746MQpOLoS396AZGcgXzdfQih0Y7bTIIi05saNMKxNif+wmGRnIL2uofiVCIKIi56xRLIzkN4+kh1BJAM9Y4lkZyC9fcOznQJBzAn0jCWSnYGQ7AgiOZDsUpxeN8mOIJKBnrFkqOxycnJQW1trWH+pRq+bHu9EEMlAz1jSJbvBwcGIB0+++uqrcc9LluwGBwfxne98B253es1KSXYEkRwMkZ3VaoUkSbDZ7vzOJRgMwmQyxZUPyY5kRxDJwBDZaRFWVVWVPONbsmSJ4lx+Z65169YpyphAg8EgMjIyYLPZ5Ndsl7ElS5YgJycnon2+TyZCJsX169fLZSx31q5ansXFxRF58u3zs1ixHf6zqaqqUrTb20+yI4hoFBUVRawYJUlCUVFRRF09Yykh2fESiobValUM8KqqKlkOOTk58mvWFpNDPNnxghFnduJ7q9UKm80mL7dZH2JuPMXFxXIfxcXFsojF/sU2ePmLM1xRdq5+enAnQUTD6/UiNzdXIbrc3Fx4vZGPRdMzlmYkO/67OyYbfgYkzuDEWSEvmHiy4wUryo2fXcWqNzg4GCFite8d+bzUrpm1Kc7qWET7z8A1QLIjiFgEg0E8/PDDkCQJGRkZGB5Wv+uqZywlZRnLC6CqqkqxPI11brJkJ/bBZnOxZGe1WhVl4swuEdnFmunykOwIIj4DAwN45JFH0NXVFbWOIbJTu0HBC0AsDwaDeP/99wEoZcdmhaweX8a3oUV2VqtVscxlsoonO3E5mqjs2Hm83Gtra6MvY0l2BJEUDJEdoP7TE/GLebUy/saCeA4TnCRJ+PWvfx1zZgfcFhK7sRDtZkO8ZSyfj8lk0iW7WDc6ImVHj2QniGSgZyzRX1AYiMtDsiOIZKBnLJHsDIRkRxDJgWSX4rg8vtlOgSDmBHrGEsnOQFyDJDuCSAZ6xhLJzkDcQ35MTk3NdhoEkdZMTk2R7FKd4HgYfUN+uAZ9FBQUMwh/MJTw+CPZEQQxLyDZzQI2mw179uxBYWEh8vPzKSgo4kRhYSH27NmDc+fO6R53JDuDsdls2L17N3p6ejA9PT3b6RBEWjA9PY2hoSG8/fbbOH36tK42SHYGs2fPHly/fh03b95EIBCgoKDQGOFwGD6fD7t27dI19kh2BlNYWIipqSmMjY1RUFAkGNPT08jPz9c19kh2BpOfn4+pqSn4/X4KCooEY2pqimSXLjDZ+Xw+CgqKBINkxxEOh/HjH/8YVqtVtcxkMqGnp0dX26WlpSguLp5Rfvn5+ZicnITX601KfPPee7j5+OMx64TXrcONrVuT1me0GDtzBli4ED63O6HzQi+/HPcaKCi8Xi8mJyfTR3Zr165VPOZp8eLFSW1/tmSnVYRMdqOjo4ZFeN06hJ5/PuGyRMP/r38BCxfC29eX0HnjO3fi5uOPG/qZUKRnpIXsmIREIZSWlqKysjLp/aSy7CYmJjAyMmJYMKElWpZoMNmNulwJncdkZ+RnQpGeMTExkfqyq6mpQU5OTsw6gUBAMetjwhKP83LkZ4o5OTmy7NhuZJIkyRISZRetP5YvO/7tb38bPT09KC0tVbTLZqWtra2q+dXU1ETMXPXILlBRgcmMDExkZgKSBEgS/CdPymW8KMZ37pTrQJIw6nIhvG4dbj75JLBwISBJmMzIwEh/PwIVFYq6wf37VfsPr1sn1+H7mvjJTxBeseJOTp9+CixcqDjGt8n3x3JgOU9mZMj5sbz5fthxJmYm1mh9UaRPbNmyRXVXsS1btkTUTQvZxZv5iDOyQCAgi2Lt2rWyQMLhMMrLy+U2eYHm5eVFzCADgYAsK152sfprbW2VzwFuS8tqtaK0tFQhLz4vteuLJrtQKASn06k5PGVlgCTBfeQInE4nRrdvxze/+pVcxr+GJKG7vV2u5z5yBIHVq3HzgQfQfeUKnE4nwkuXYmj3bjidTgRWr4YvLy9q33xfrD47N7x0qaLMdeIEphcskMs9ZWVyv6xM7RpGt29X5BdYvVouE/MLL10K95EjMftK5LOlmP1oaWnBU089pRDdU089hZaWloi6oVAo/WTHz8gqKysjZlnijIqfofFtiMtVUWKi4NjrWP3V1NSoilm8Bn4Jnsgydnx8HA6HQzWGCwruzKIeeABddjv6DxyQXzscDvQfOIDgY49FvB4uKMDoM89EtDm2apXi+NiqVfCUlqqWqZ3Lz/4gSXL9Gw8+KLfjcDjQc/w4phcsQNfFi/L7cEaGfA0sT7HucEGBooy/3hsPPhjRv6e0NGZfA6+9Jted+O534Tx3Lur1UaRG2Gw2PPTQQ5AkCd///vdx4cIF1Xrj4+OpL7toy1g2O+JnYLHaYMtVdu5MZBetv7stu2AwiM7OTs3h3r8fNx94AI72dvl98LHHIl4z2Ynn+1euVBz3r1yJgT/9SbUs3rl83HjwQbmdzs5OXP/wQ0wvWACHzSa/D2dkwNHershTrMtkp3a9Yh9a+krks6VInTh37hx+9rOfob6+PmqdYDCY+rKLdoOCyU6tvKysDOFwGL/4xS/kY62trfLSMNYyNp7sovXH+oi2jE1EdtGWsYFAAB0dHZqj7803Eb7/flxpa5PfB375S9XXkCR0traio6MDQ9u24XplJfwrV2Lk6afl9vwrV6K/pER+zZeJMbRtm6LNa7W16H/1VXR0dCCUmSm3w8qmFyxQ1A1nZOBKW5tcdr2yUm6X5c2/Zu2ynPwrV0Zc+/XKyph9JfLZUqRXBAKB1JcdQ/zpCS8rcWnJytgyVu1GAt9ecXGxZtnF6g9Q3qDg5RpNdnxb8W5Q+P1+2O12zeHatw/h++/HZZtNfj+WnR3x2m63Y3DrVnkJx87xrViB4dxcuY5vxQq4//hH2O12OI8dw/SCBbe/E/z/Y2L4uJsAkCRc+8c/YLfbEcrMVJzD2upobpbf31iyRJG3mJuYMyRJcT2sH768o7k5bl8UczP8fn/6yG6+k5+fD6/Xi/b2dgoKigTD6/WS7NKFrVu3YmRkBG1tbRQUFAnG6OgoyS5deP3119Hc3IyrV6/CZrNRUFBojM7OTnR1dcFisegaeyQ7g2loaMBrr72G9vZ2DA4OUlBQaIzOzk688847qKur0zX2SHazwOnTp2GxWGb9UdcUFOkUFosFdXV1mNK5Qx/JjiCIeQHJjiCIecH/AVHW2DjVDkkGAAAAAElFTkSuQmCC;" vertex="1" parent="fmiSZgB1ioxrz4cgV_8w-173">
          <mxGeometry x="49.110000000000014" y="16" width="206.89" height="83.41" as="geometry" />
        </mxCell>
        <mxCell id="fmiSZgB1ioxrz4cgV_8w-172" value="" style="shape=image;verticalLabelPosition=bottom;labelBackgroundColor=default;verticalAlign=top;aspect=fixed;imageAspect=0;image=data:image/png,iVBORw0KGgoAAAANSUhEUgAAAUEAAAByCAYAAADNl2OGAAAOMklEQVR4nO2d32sbVxbHhxKKMX3Ig/+IPtqpyeoh0EIfAmZh/wKDaElS8hBMMHgRZkvfFqM6XUJLf2AoZvuwdJsa2Q12McsGYbY/0iau1o2J66wjWYmdpLZby5IlxT370N7pmTN3RiPpyvK1vh+4EI1Gd+6M5n50z9z4HocAAKCDcdrdAAAAaCeQIACgo4EEAQAdDSQIAOhoIEFLyObyNP3Z5/TxJ9MoKCgNltT0HN1duefpW5CgJdz8JkPFYqndzQDAakqlffriq9uebZCgJWRzj9rdBACOBbIvQYKWkF2HBAEwgexLkKAlZNcft7sJABwLZF+CBC0BEgTADJCgpWTzkCAAJpB9CRI8BPb398lxHHIch5599llaXV2tu45s/kkLWgZA5yH7EiT4G0tLS66oVLlx4wYREY2Pj9Pw8HBD9VarVXrhhRfcumZmZhqqCxIEwAyQoIb9/X3fCG1paYkmJiaIqDkJ7u/v03PPPee+Hh8fd+utB0gQADNAghqWlpY8opLv8dHhxMSEu/8rr7xCjuPQ8PAwjY+Pa0eRSoIqJJYynZmZcT/D26BGkEqY2QeQIABBjIyM+CI5x3FoZGTEt6/sS5DgbyihcYEp5EhQiVHux99XQpMjwZmZGXr55Zd9+6n31HGkBHMPfjRwlgAcT7a2tuj8+fMeAZ4/f562trZ8+8q+BAkK+CRGUDisGznyz/FRnZRgtVqlWCxGq6urnlGgKkqQktxDSBCAMHZ3d+nMmTPkOA49//zz9Pix/n9UyL4ECQbAR2y1JChHbWEjQSnBIOlJIEEAavPw4UN66aWXaGVlJXAfSFCDbsaWiy+qBPkMcJAE+WdlWF2tVum9997z1OmGw5AgAEaABDUo4fCwlEtPhsi6cJiHtrFYzCdBNXEiZ6FlSKyk55eg/9kGAKB+ZF+CBC0htwEJAmAC2ZcgQUuABAEwAyRoKbmN7XY3AYBjgexLkKAl5DYhQQBMIPsSJGgJ+Uc79PTgoN3NAMBqnh4cQIK2sru3T+uPdii3uY2CgtJE2dktevoWJGgJyDaHgtJ8QbY5i0G2OQCaB9nmLAbZ5gAwA7LNWQqyzQFgBmSbsxQkWgLADEi0ZCmQIABmgAQtBdnmADADss1ZCnKMAGAG5BhpESdOnPAsiTU7O0tERPPz83T69Gn65ZdfPPvPz89rcyK89tpr2vohQQDMAAm2iBMnTtDy8jIREa2srNAzzzxDy8vLgRKsVYcEEgTADJBgi5ACO3PmDM3OzkaWoNpfbrt69SoRIdscAGEg29wRoJmR4KVLl1zZcbgEkW0OgGCQbe4IIJ8JKiHWkuC7774baaSIHCMAhINsc20m6HlemATV5MhBhCWyIEEAaoNsc22kEQmGTYQQiXAYEgTACJBgiwiToHxYe/r0aXrnnXe0D3K5ML0SRI4RAEyAbHOWgkRLAJgBiZYsBRIEwAyQoKUg2xwAZkC2OUvJbUKCAJhA9iVI0BKQbQ6A5kG2OYtBtjkUFDMF2eYsBdnmUFCaL8g2ZzHINgdA8yDbnMUg2xwAZkC2OUtBtjkAzIBsc5aCREsAmAGJliwFEgTADJCgpSDbHABmQLa5Q6BcLlNvb6+7MkxPT0/o/oVCgbq7u2ltbS1wH+QYAcAMyDHSYpQAJycn3W1TU1OhkoMEATg8IMEWMzU1RQMDA77tg4ODrhgHBwfp4sWL5DgOdXd3a0eNUqaQIADB1JVoCRJsLWNjY5RIJEK3Dw4OekSpGwn6JIhscwAEUk+iJWSbazFRJcjD5SjhMLLNARBO5ERLyDbXWqKGw3VLEDlGAKgJEi0dAaJMjESRoKwHEgTADJDgIVDrv8hICRL9Gi6HTYxAggCYARK0FGSbA8AMyDZnKUi0BIAZkGjJUiBBAMwACVpKfhM5RgBolqcHB8g2ZyvIMYKCYqYgxwgAADAgQQBARwMJAgA6GkgQANDRQIKWMn7lSt0FAOAHErSU8StXqFAoBJZKpULlcoX29vaoUChAggAEAAlaipLgtek5t3w6M0fTs/P0rxsL9OVXP9C5CxO0sbFFxWKxLRJMJpP04YcfHvpx231s08TjcfdcksmkdqHQeqhUKhSLxejevXsmmncoZDIZOnnyZEvqhgQthUvw61tLdPPWEt3OLNPS8g+0vfMTnbswQX39o5R88zqVy2WtBFOplG/13VQqRWfPnj3MU7GeYrFIXV1dLZOKaQnaCCQIfHAJcgGuruUoNf0t9fWP0h//9CZl/psLDIdTqRS9+OKLnlEBJFg/kGDrgQSBDyXBT2fm6HZmme6urtHqWpaebP1EQ5f/Tn39o/S3q3P0YGMjVIJnz56lVCrldiwuwUwm4xGifO/kyZMUj8cDcznwkDSZTLp5VRzHCb2h4/E4xWIxT56IZDLpvuZhbiaTcbdzEdVzbHUO/DwqlQqdOnXK87kg+QRJUNWhO676AVLvy8/z8+XnzCVYLBbddqk2nDt3jhzHcb8nXo/aJsNhFRHIdoRd26jfpa5ueXx5/dR58XOX95vjOJROp7XH4e2Jx+Oetup+4CFBS1ES/OLmLbqffUKzc9/RTz8X6Ps7eerrH6X+P/yF7t9/THfvrtSUIL8p65GgvBElUkTy5gx6ZhePx30dXe3L2yA7D29v1GPLkVU8Hqd0Ou0KjLcjaLQXdSTIj5VKpXxi4e/Vaq+6Lur6y+skrxW/Jvz71l3DdDpd89pG+S6D6g6ToLruqr5isUgjIyO++033g8zPW13LeDzukf+pU6d89ywkaClKgt8t3aHX37hGff2j9Pob1+jy8EfU1z9Kl4c/omq1Sis/rNaUoPr3yMhI3SPBMKSIuGzCJi54p9J1JHVcPlKRo4Cox+YjCz7ykB0mbDIhTIJ8hMJHk1JQvOPKayMlODQ05OvMujbI0aQ6Pj8XPlrl9dW6tlG+y6C6wyRYLBa195W83/i9Ka8xH/FJQasfOQ4kaClKgrcWM/TxP7+kvv5RT7mznKdSqUT/u38/kgTVjfnWW29ZJcGgNtQjwbAO3IwEM5lM6GivUQl2dXV5RqlBbQh6fhh0LuoHgYefOur5LnV1t0KCQc+xIcFjjJLgv9MLtL2zS38dm3YFmBy/TtVqlUqlEq3n85EkqF7zX1F54/HQ4ihIUBcCvv3223UdW4Z2PGQzIUF5/aJIUP448fBQnYsubJRtkCF3sVj0SSiTyfiuDQ+3g65tlO8yqG55bXk7w8LhIAnKULlSqdD777/vXnNI8JiiJLjwny/p65vf0pMn2/TnxD/o3IUJ+v7OOt3P5Wg9n6eNzc3IElQ3IN/Gw8WLFy8eKQmq17pws55j83OUnTGqBGU4purhdcdisUgS5G1Soz7dufDvK0jEMiSWz+TCJm/Crm294bBuYojfV2ETI+l0OlSCsj4ub0jwGCP/YmRvb48qlQpVKhUqlUq+vyDBX4wAoAcStBT87TAAZoAEAQAdDSQIAOhoIEEAQEcDCQIAOhpI0CKyuTxNf/Y5ffzJNAoKSp0lNT1Hd1f8/8UJErSIm99kqFgstbsZAFhJsViiL7667dsOCVpENveo3U0AwGp0fQgStIjsOiQIQDPo+hAkaBHZ9cftbgIAVqPrQ5CgRUCCADQHJBiRhYUF6u3tpXK5TGtraxSLxahcLre7WZTNNy9B3R+Qc1q9VHwjmEwMFLawAjj+6PpQUxLULWYY1sEagQtJkUgkfNtafcxmmJycpMHBwabryeafGGhNOCZWUG4lutWB65EZJNjZ6PpQwxKU67AR+Ze3MYEUUiKRMCKUeo7ZLJCgOSBB0AzGJBi1M+gS2BB51ymrtSYdF5JOJgsLC25dUlyTk5Pue/xziUSCXn31Veru7ibHcWhxcZHW1tbc17wuHg6rfXjilqmpKbfenp4e7ed5vWNjY752O45DhUJB2zZ+TlElGJZchofDcr03XcIeuTZbre9NtxYckT4xUzKZ9CRUUkmf5D3Dw2G+Pl5XVxddv35du45cUOIdKUF+fLlf1PMA9mBMglEX1NQlsJEJYmqleFQS/OCDD3wCVIJZXFwkIu+IS0mGy0UJSBdO9/T0uEILeiaojqfbT8KPJ+Wt6lFtW1hYcN+XbRsYGHCPl30QXYJByWW4BPlKx5VKhYaGhnwrCsuVnMN+/OSx+FLpusRMyWTS107VHn5c3SKgYSPBsMQ7UoLyB0InNV1eE9OPfcDhoOtDRiTIf3V5ghNdAhsZMvOOxUduSgRKZr29vR7hEXnlQeSVy+TkpCshta+qkwtKfY5PftSSoJKX/BxvPx/1SQnKUSA/X9m2RCLhSjD34EfP9yBHclFW0+XZ1HSTDbr0h1ElGLbCsu6HU7dKMheoLkVjFAmGJd4JC4dlJjv++bC8JpcvX3b3u3DhgvbagKOB7ENEhsNhfhMFJbAJk6AOKaSgERRReyUYNvLUSTDKCFK9diX40P8F6minBIPeP2wJBkUXUSQo81xETe4Ejj66PmR0YoTffEEJbBoNh4ME1Wg4zEVD9Gs4zOtpRIIyjK0VDvPniSqJzWFJUP1bFw43KkEZ0vLzOkwJhiXeCZIgF58uERAkeDwwKkEif9ghO4gugQ1R4xMjChV2FgqFhidGpAR5PbFYrKFweGBgwFMHP4aaNAmaGAkSdCslqAunwyRI9PuEQdSJkbDETI1IkOj3+46naQybGOHbpQT5PkEhdSwWgwSPCcYlCA6X3MOtdjcBAKvR9SFI0CJyG5AgAM2g60OQoEVAggA0ByRoOfnNHXp6cNDuZgBgJU8PDii3se3bDglaxO7ePq0/2qHc5jYKCkoDZWe36OtXkCAAoKOBBAEAHQ0kaBHINoeC0nhBtrljALLNAdA4Qdnm/g+HT5xU3OVYSQAAAABJRU5ErkJggg==;" vertex="1" parent="fmiSZgB1ioxrz4cgV_8w-173">
          <mxGeometry x="300" y="11.559999999999945" width="281.25" height="99.88" as="geometry" />
        </mxCell>
        <mxCell id="fmiSZgB1ioxrz4cgV_8w-174" value="Information zur Person" style="text;html=1;align=center;verticalAlign=middle;whiteSpace=wrap;rounded=0;shadow=0;glass=0;labelBackgroundColor=none;labelBorderColor=none;fontSize=10;fillColor=#FFFFFF;" vertex="1" parent="fmiSZgB1ioxrz4cgV_8w-175">
          <mxGeometry x="33" width="112" height="14.56" as="geometry" />
        </mxCell>
        <mxCell id="fmiSZgB1ioxrz4cgV_8w-182" value="- Warnung: Eine ähnliche Person ist schon vorhanden. &lt;font color=&quot;#0066CC&quot;&gt;Zusammenführen &lt;/font&gt;| &lt;font color=&quot;#0066CC&quot;&gt;Ignorieren &lt;/font&gt;| &lt;font color=&quot;#0066CC&quot;&gt;Übernehmen&lt;font color=&quot;#000000&quot;&gt; -&amp;nbsp;&lt;/font&gt;&lt;/font&gt; " style="text;html=1;align=center;verticalAlign=middle;whiteSpace=wrap;rounded=0;shadow=0;glass=0;labelBackgroundColor=none;labelBorderColor=none;fontSize=10;fillColor=#FFFFFF;" vertex="1" parent="1">
          <mxGeometry x="554" y="1987" width="602" height="14.56" as="geometry" />
        </mxCell>
        <mxCell id="fmiSZgB1ioxrz4cgV_8w-178" value="" style="rounded=1;whiteSpace=wrap;html=1;shadow=0;glass=0;labelBackgroundColor=none;labelBorderColor=none;fontSize=19;fontColor=#333333;strokeColor=#666666;strokeWidth=1;fillColor=none;" vertex="1" parent="1">
          <mxGeometry x="543" y="2028" width="614" height="123" as="geometry" />
        </mxCell>
        <mxCell id="fmiSZgB1ioxrz4cgV_8w-181" value="Verknüpfungen" style="text;html=1;align=center;verticalAlign=middle;whiteSpace=wrap;rounded=0;shadow=0;glass=0;labelBackgroundColor=none;labelBorderColor=none;fontSize=10;fillColor=#FFFFFF;" vertex="1" parent="1">
          <mxGeometry x="590" y="2020" width="84" height="14.56" as="geometry" />
        </mxCell>
        <mxCell id="fmiSZgB1ioxrz4cgV_8w-183" value="" style="rounded=1;whiteSpace=wrap;html=1;shadow=0;glass=0;labelBackgroundColor=none;labelBorderColor=none;fontSize=19;fontColor=#333333;strokeColor=#666666;strokeWidth=1;fillColor=none;" vertex="1" parent="1">
          <mxGeometry x="542" y="2183" width="614" height="123" as="geometry" />
        </mxCell>
        <mxCell id="fmiSZgB1ioxrz4cgV_8w-184" value="Falleingaben" style="text;html=1;align=center;verticalAlign=middle;whiteSpace=wrap;rounded=0;shadow=0;glass=0;labelBackgroundColor=none;labelBorderColor=none;fontSize=10;fillColor=#FFFFFF;" vertex="1" parent="1">
          <mxGeometry x="594" y="2175" width="74" height="14.56" as="geometry" />
        </mxCell>
      </root>
    </mxGraphModel>
  </diagram>
</mxfile>
